<mxfile host="app.diagrams.net" modified="2021-09-03T16:51:55.211Z" agent="5.0 (Windows NT 10.0; Win64; x64) AppleWebKit/537.36 (KHTML, like Gecko) Chrome/92.0.4515.159 Safari/537.36" etag="qdEd2vPpzHgWjMOGmwU1" version="14.7.6" type="github" pages="2">
  <diagram id="dMxbNNf-_3eFLrvWzbhG" name="FrontEnd">
    <mxGraphModel dx="1718" dy="943" grid="1" gridSize="10" guides="1" tooltips="1" connect="1" arrows="1" fold="1" page="1" pageScale="1" pageWidth="850" pageHeight="1100" math="0" shadow="0">
      <root>
        <mxCell id="0" />
        <mxCell id="1" parent="0" />
        <mxCell id="NWuCkK3vRZhU65GR5XNH-1" value="" style="whiteSpace=wrap;html=1;fillColor=none;" parent="1" vertex="1">
          <mxGeometry x="190" y="250" width="630" height="680" as="geometry" />
        </mxCell>
        <mxCell id="SoOD0umvgKuOXdiHO2RA-4" value="" style="rounded=0;whiteSpace=wrap;html=1;fillColor=#f5f5f5;strokeColor=#666666;fontColor=#333333;" vertex="1" parent="1">
          <mxGeometry x="190" y="310" width="630" height="550" as="geometry" />
        </mxCell>
        <mxCell id="SoOD0umvgKuOXdiHO2RA-1" value="" style="rounded=0;whiteSpace=wrap;html=1;fillColor=none;" vertex="1" parent="1">
          <mxGeometry x="190" y="310" width="120" height="550" as="geometry" />
        </mxCell>
        <mxCell id="SoOD0umvgKuOXdiHO2RA-2" value="" style="rounded=0;whiteSpace=wrap;html=1;fillColor=#dae8fc;strokeColor=#6c8ebf;" vertex="1" parent="1">
          <mxGeometry x="190" y="860" width="630" height="70" as="geometry" />
        </mxCell>
        <mxCell id="SoOD0umvgKuOXdiHO2RA-5" value="" style="rounded=0;whiteSpace=wrap;html=1;" vertex="1" parent="1">
          <mxGeometry x="320" y="320" width="490" height="530" as="geometry" />
        </mxCell>
        <mxCell id="SoOD0umvgKuOXdiHO2RA-10" value="Project" style="html=1;shadow=0;dashed=0;shape=mxgraph.bootstrap.rrect;rSize=5;strokeColor=none;strokeWidth=1;fillColor=#006AC9;fontColor=#ffffff;whiteSpace=wrap;align=left;verticalAlign=middle;fontStyle=0;fontSize=14;spacingLeft=10;rounded=0;" vertex="1" parent="1">
          <mxGeometry x="200" y="330" width="80" height="40" as="geometry" />
        </mxCell>
        <mxCell id="SoOD0umvgKuOXdiHO2RA-11" value="" style="shape=triangle;direction=south;fillColor=#ffffff;strokeColor=none;perimeter=none;" vertex="1" parent="SoOD0umvgKuOXdiHO2RA-10">
          <mxGeometry x="1" y="0.5" width="10" height="5" relative="1" as="geometry">
            <mxPoint x="-17" y="-2.5" as="offset" />
          </mxGeometry>
        </mxCell>
        <mxCell id="SoOD0umvgKuOXdiHO2RA-12" value="" style="html=1;shadow=0;dashed=0;shape=mxgraph.bootstrap.rrect;rSize=5;fillColor=#ffffff;strokeColor=#999999;rounded=0;" vertex="1" parent="1">
          <mxGeometry x="200" y="373" width="90" height="107" as="geometry" />
        </mxCell>
        <mxCell id="SoOD0umvgKuOXdiHO2RA-13" value="All" style="fillColor=none;strokeColor=none;align=left;spacing=20;fontSize=14;" vertex="1" parent="SoOD0umvgKuOXdiHO2RA-12">
          <mxGeometry width="170" height="30" relative="1" as="geometry">
            <mxPoint y="10" as="offset" />
          </mxGeometry>
        </mxCell>
        <mxCell id="SoOD0umvgKuOXdiHO2RA-14" value="SFM" style="fillColor=#f5f5f5;strokeColor=#666666;align=left;spacing=20;fontSize=14;fontColor=#333333;" vertex="1" parent="SoOD0umvgKuOXdiHO2RA-12">
          <mxGeometry width="90" height="30" relative="1" as="geometry">
            <mxPoint y="40" as="offset" />
          </mxGeometry>
        </mxCell>
        <mxCell id="SoOD0umvgKuOXdiHO2RA-15" value="MEC" style="fillColor=none;strokeColor=none;align=left;spacing=20;fontSize=14;" vertex="1" parent="SoOD0umvgKuOXdiHO2RA-12">
          <mxGeometry width="170" height="30" relative="1" as="geometry">
            <mxPoint y="70" as="offset" />
          </mxGeometry>
        </mxCell>
        <mxCell id="SoOD0umvgKuOXdiHO2RA-16" value="" style="shape=line;strokeColor=#999999;perimeter=none;resizeWidth=1;" vertex="1" parent="SoOD0umvgKuOXdiHO2RA-12">
          <mxGeometry width="90" height="10" relative="1" as="geometry">
            <mxPoint y="100" as="offset" />
          </mxGeometry>
        </mxCell>
        <mxCell id="SoOD0umvgKuOXdiHO2RA-23" value="" style="shape=image;verticalLabelPosition=bottom;labelBackgroundColor=#ffffff;verticalAlign=top;aspect=fixed;imageAspect=0;image=data:image/png,iVBORw0KGgoAAAANSUhEUgAAApwAAADzCAYAAAArdsYDAAAgAElEQVR4Ae29//NuV1Xn2X+JTDlVLWPZbWt1WVYxzsiUljV2Ozo/2JSm7HKsRnrAdFNDQOMoaEZMFEXA5jtjQBIgRKAJSZBowgC5+UYSwk0kX+69ubmRcC+YQFB/sMsfnqnXg+9P1mc/a5+99jnn+fpZT9Xz2eesvdZ7r73OOvu8P3ufc55/tshPRiAjkBHICGQEMgIZgYxARmCNEfhna8RO6IxARiAjkBHICGQEMgIZgYzAIglnJkFGICOQEcgIZAQyAhmBjMBaI5CEc63hTfCMQEYgI5ARyAhkBDICGYEknJkDGYGMQEYgI5ARyAhkBDICa41AEs61hjfBMwIZgYxARiAjkBHICGQEknBmDmQEMgIZgYxARiAjkBHICKw1Akk41xreBM8IZAQyAhmBjEBGICOQEWgSzh/4F/9y8d3f9aLFu97xjpVo/W//5t8u637v6mtW6jwBGGD9yv/5Sq86ZRmBjEBGICOQEcgIZAQyAgcYgSScB3hQs0sZgYxARiAjkBHICGQEdikCSTh36WikLxmBjEBGICOQEcgIZAQOMAKzEk4tsdvldy3JP3z69HJZXkvqLMOzXVuuP8BYZ5cyAhmBjEBGICOQEcgInMgIhAmnyKFX6h7OKOEUCbVYlqSeyCORnc4IZAQyAhmBjEBGICNwoBHYCuGEmD594cIypL/w85ctZzkp85MRyAhkBDICGYGMQEYgI3B4EQgTTm8GUjOavTOc9in1D19//ZJwMuuZn4xARiAjkBHICGQEMgIZgcOLwM4Qzv/5f/yRw4tu9igjkBHICGQEMgIZgYxARmAxK+HU8viv/9qVy9DecvPNC92vaR8aYmZUH82SykbyLDMCGYGMQEYgI5ARyAhkBA4jArMSTr3Y3T4MpG1LOCWz5Z1f+MJhRDR7kRHICGQEMgIZgYxARiAjcCwCsxJOkLk/U0QSAqp9Szi551OzoSylMxOan4xARiAjkBHICGQEMgIZgcOMQJNwHma3s1cZgYxARiAjkBHICGQEMgKbikASzk1FOtvJCGQEMgIZgYxARiAjcEIjkITzhB747HZGICOQEcgIZAQyAhmBTUUgCeemIp3tZAQyAhmBjEBGICOQETihEUjCeUIPfHY7I5ARyAhkBDICGYGMwKYikIRzU5HOdtYaAd7jypsQpnyw169mTcFJ24xARiAjkBHICGQEjkdg7wknr2DK1yodP6gnbY/jz+u1nn/++Uldx54fKnj6woVJOGmcEcgIZAQyAhmBjMDxCDQJJzM+eq+mytavAvHrQZsggRADfPJmtiAP+CmfKcfOXm2qP8cPTX2P2Np+sd3706DEYmw86p75NeUPAtj8sXXE2ZJGfgyAfql/3nGmRew+fP31y8a94867YC0uisrrEpP2hOX3JqUZgYxARiAjkBHICPRGoEk4uVjzjX64sEMQNjFLBCGhrZJMsA9xgIiIUFBCdHr92mR/ojGGpDETN+VjSdoUnIgtx8L7JSn1g2OjYyYyioxjK/JHDoJTfsAlFtgLozzu7Nv29Y8KdvhgP7S/KSJu283tjEBGICOQEcgIHHIEmoSTi3V5USYgXJRFACAHXLxv+/PPHM1IQRZEHrBnny+/MMRHy6DoIGdfbUkXXH3AoD3VQRo00ycdlWDKN8lUimwIG1yRN8gN27SBL08//fSxNtUfzY6hp/6Aj43iQh3+6ReVqNOHdtQXSnwSsVWssFU78lX2yG27kqNHO7RNP0Sy0IewUceXbXT4Kk6UtM0HHOooh46LbQ99tSd/KJGpLUq1QR0+2n22FSd85KuPcIiT/ahvyIaOu7VBj68XR9VZ/dzOCGQEMgIZgYxARmBaBJqEUwRMpEEEgQu/CANkBWLCR2RKbqGPHuRERAaChdwSEO2LSFkCJAxIR4khwqT2KOWXlWlbxEX7kA6RHOw0o0abfIb6Y2OALvb4Q/9E6sCxPmtb7ahNydV/+eeVwtYxwX98oW0IEx/FjG3p03c+It2U+oCleo4l+2CCw7b80nEp26MNtS1MSvrFl4+waFf9VZ3qdTzLY6jjZn3GhnbB5VPaLIXFH9t320+pJeFUJLLMCGQEMgIZgYzAfBEYJJyQCktEymZFICBt+iATOUEGGeLLhZxSupQiF+iV++iCJR9EaEUSZGPbkg/4LEInmcqSQEJY+PKhBK8kQbYN+SU86uib/FS7wkJPZAkd9RMb6SBXv0pCpXZsWfpAHfYQLn3UJnjo054+qtO+JWHIiLuw5K901bb8BZcvchs36Zel8kk+0Hd9aEuxRo829FF72ldJDinm5XEHDxlfxVX+Yq9jZtvhmND//GQEMgIZgYxARiAjMF8EBgmnZqF0sS6bhWRATCyZsRd09LnYcxEvMZBBCPQp98GFSJREA3wRVWxs28LC1mJLTmkJMYSj1MVP+iV7rz+QJX3wBUzFSgRKxAw9+kE7fCBU1FkM5GAgj3wUG6tr+4Xctom+JVXUKYboivwJTz6yXzsutKe+y65V2hipTcULWxsz8sb6zPEQGbXt4AP94VMeS2Rqx26LhKrUsUYHPNsusvxkBDICGYGMQEYgIzAtAoOEsyR7tikRAF3QRSghBdRptsuSAHR1cbfkAly7r5kn9OUD+CJRIh7WpvQNMiEigi02YNE+dnyQoSfCKH1IFl/p2P5ASNQH7Ogf/oLNtj5sCw89tQmutvELQksJptoUhlfa2Nh6xQYsviKD0tfxwEb+oCffiQPb1LEtX2yMhcVxUd/B4IP/yO2HOvUPW7CEyz4xAocPeuwLj2Oj40zf8IkYlx8wbZzR075wiQUfiykc/NbxwH98wLf8ZAQyAhmBjEBGICMwXwQGCafIBxdxfSEMyLmI68LMhVxEggs4ulzEqddFHBk2IiVc2C2BYF9EQTNhIh9gYU87dsbR2pQhQU8+U4rYCFsyfMIP2gYPOe2p7aH+oCciBz77fOg3OOorvig+4Ko/8gEb6mlLH7UrfMnlv/yTnJL4gMlXWNLXsUKP/qJDf6mnjjggww/8lb2NsbDUtm1P/bP+oD+kQ8zlr40lGNjKJ+uDxWfb5gP7Zc6CSzvqM7j2Izl9KrGsXm5nBDICGYGMQEYgIzA+AoOEczxsWmYENhMByKSI/pQWIZwQW5HpKVhpmxHICGQEMgIZgYzA8Qgk4Twej9zbswgwO8ssqp3BHdMFZkY1Cz7GPm0yAhmBjEBGICOQEahHIAlnPTZZkxHICGQEMgIZgYxARiAjMEMEknDOEMSEyAhkBDICGYGMQEYgI5ARqEcgCWc9NlmTEcgIZAQyAhmBjEBGICMwQwSScM4QxITICGQEMgIZgYxARiAjkBGoRyAJZz02WZMRyAhkBDICGYGMQEYgIzBDBJJwzhDEhMgIZAQyAhmBjEBGICOQEahHIAlnPTZZkxHICGQEMgIZgYxARiAjMEMEknDOEMSEyAhkBDICGYGMQEYgI5ARqEcgCWc9NlmTEcgIZAQyAhmBjEBGICMwQwSScM4QxITICGQEMgIZgYxARiAjkBGoR2CQcP7d3/39Ir8Zg8yBzIF9y4H6kPdCzb71Kf3d7nn4Qub4W3l8tnt8Mv798fczeX3SJJxJqvOfisyBg8uByJCZF6j+C9RJjlkrp05ybLLv+3kutXJ67voknEk2Do5s5OC3n4PfnMctMlDO2V5iHX7OtXIqc+Dwc+DQjnErp+euT8KZhDMJZ+bAweVAZKA8tItH9me9hKeVUxn/9cY/4zt/fFs5PXd9Es4kGwdHNnJgmn9g2reYRgbKfetT+rvdvG7lVB6f7R6fjH9//Fs5PXd9Es4knEk4MwcOLgciA2VeoPovUCc5Zq2cOsmxyb7v57nUyum565NwJtk4OLKRg99+Dn5zHrfIQDlne4l1+DnXyqnMgcPPgUM7xq2cnrs+CWcSziScmQMHlwORgfLQLh7Zn/USnlZOZfzXG/+M7/zxbeX03PVJOJNsHBzZyIFp/oFp32IaGSj3rU/p73bzupVTY4/PubNnFzdcf/3yy/ZYnLTbbn7sY/xbOT13fRLOHSecDEQ/8dKXHvt+5pZbFwxMr/mVy4993/v2tw8OVj/6kpcsvvu7XnTse/VVVy1+8sd/bEHdnCfM5b/8imPtfN+LX7y48oorjto4e+bMopT1tv+Ot75t2caHPvCBBXj0zbbRi4f+z/7MTy9+6Ad+8MjPMRhps/2BPzJQbuo4cV7qHL7/3nuPtpFf9u/+3XKfc7nlj/LdnsPkKvmPjPoWRqSeMQE8SqvPueXJpTNlHGG8oC+cx8LbtbKVU73+Mo6TF/Z4sv2KX/w/luP7EF5tLNcxmiuOv3jZZSv+4aOO1dQxvNbHr3zlscVNn7r1KBcuXfrG4nWv+7Xlt2azLTm+Xfv+64583ZYfY9pt5fTc9Uk4d5xwMiC94corj/4DZpuLE0S0HKjYH0o6BgcIVanD4OHJS72effBoTzYaCEUI7z51qkk40eUiJoyy1IWRC+6tN31yGQ/hl7q1fWytn0k4t08Wa8eqRx4ZKHvwpujyz+H3/vPvWeYn565Ixr/+/n+1PJf/95/8N8v6++6+p5rrtK9ziFy3/ug8KOVWp2ebc5OxBBJo7Rgnhv4xnTKOQGxEYmiTc5Jz07a/7e1WTvX494e/e/UyxuQFBJMc4J8P5Qk5MoRXG8uJox3PhjB66vTPjv2nJjKG97Rhdd/8R398jMRBPiGcl/+nVy/On78wGBuLs4ltyDF+PfDgQzvlV6TvrZyeuz4J5x4QTsilkoftMYRTM4AMSMJSyQBVXlxUN7bkwsQFxNpDHkuZrS+30ff8LfXYHzvLw0W8xyev7ZTtHkmNDJSbPG6QCkgchOLad79nuc3+//P61y9lkA2+Qz5p1YALvdUTEZ1rVgtsxgT7z57Or6F/6OYaR9RW2U/b521st3Iq6hP/WJAH/MOhfzLIBcZ1Zj1FOplc8DCHxnKO2dA/BR5eRKYc28Q/AXeeumeFWL7+Db+9JKAQu7/4y8+6cYn0Y106+GdnZNfVzty4rZyeuz4J5wkhnJoBLImlBi9dSNDTcg0lg345gwJB08VI//mWsyvlBYsTRRdMdGXHAIYP4DHoYkcdbbAvGfbI8BNdvuChT518pB4ZdvpvnH3N4Opihj5kVm3YUn2zPlOvGBET7StWqsMmv9uPQWSg3ORxglgox+wsJzNZ7DPDBQEZuoePHAajJJb2PKjlLOeOzgGdKyIP5LDqFBPOAZ1byKjXfjlG4E9kHBG2xgH6wjZyfKBN+aZYSVfnF+3gR/QfUbU5R9nKqWgbHG/6ZycS2EcOhkgnxNPDJP42dlZHcURGrIgpusSM8dCOXegQRx1XxVaxtrg6DvafADuG67hJDz/IL43jGovBlA5+eW0xu/nOd73vqO8ioMwkiniCwza68vN3r/79BV/2IaWaERWWZMJjRpLZUjAgsny1NA55lEwluvhAG8goWU6nPbZlK3/2oWzl9Nz1STh3nCCw9MJFyX6594sLmJWxzSxKLclFtMoTXIMXA4YGHAYEcHSRkg6DhnCoQ4cBi8GlbJdBrLyIaaABDz8YcNhGLgz5oTatv2DyZRDFF3sRFB449AP/0GPbDs52kMTn0k/1mTr8Yp9BVvj4ZWNAHe2AU8Yg97dHPCMD5aaPDzOY5GI5y3ntu9+9lHH+inR4vtXyjPNA52MtZ9HROQYOfnCuiYBYQkDbynfq7bhgt9Ej79HV+arzFzm+oFOeU9SBiw1f4Wi8sOe17PGZbdrCHj/Y3+S3lVNRXxirSzLJ8bDHXjPikM8SV+MPsSjriI3IOMdbcbM5Yo8N27TN8eDY1WILJno27soRjqG20ZN/HHf0y+PPPu3pWNo+QOAgc3YWE0IoYmm3IXiQSuy1rA2ZFKGkhFSCRykSic1HbvjYkixCWiGkahe57LGx2+jIljbZ1qwmhJOv7cs+bLdyeu76JJwbHrS2lYQMJgwY9ovMErByANDAz6CBHfpcRBiUNDAxeGBn+8Vggr4uOKpjHzn12gabQREc8KWrQUsXQvmgiyZ6bGtfeNhRJ9/li3ykxAcGSWFaP+mX9tmWHfrYsa+YqU5tyfcsN0sEvHhHBkrPbp0ye98128xoklNaTuefS2Q1HzhH0NeXfXQtsajlLDmNPjmPjvTIYeHYdu35hw5tWpIAjs656DgCPu3q/FJ75XnIeKDzGh1IDHbo4WtpL5x1l62carWvh4Qgm3whniKUxNcSTraR2VlQ4RNv5YBKZIojx0vHT+OhjiHjGLElpoxjxBUM9BjH+KodW3JM0LUyHX+bC+SI2qZN9DlmIr5gIKdtjfsWUwQPAolcRFIEFIInkokMMsnMI0QR8oiNSClyyKTVYZs20KNONuhSB76IKbJym7YhnrSHvvxKwtk6O75Tn4Rzxwmn/tPVwEKpGU4GLSv/kR/+4eWJZE9gbWvA0QBUyhmIygGAwUcXI0owVNIug5wuBMKjtOTMyi2+LiLUi8CBqYFJgypYNUx80QBpfUUfHAZWDX7gIbeDZElG7X5ppz6Bo1iir7YUJ/bzu/0YRIa/TR8nzXBCKi35ZIYTGef60H2cnGs6P6zvyMn/oZzVuUruinBwDoLnETh7LtjzDH2NORoL8EXnxNA4Iv84363/ti3ktj32NRbgpzfeWKx1brdyKtK2HhYihpZgImc8FwFVrniYijXxtPUao6iXjsYou6/jTs4QU+Kt/CiPjfDJGb7ap7RjuB1/dbzkH8cMXR1/5Q828k+4IpyQOmQidpA7+2X2UbOX2EAcIYfYQAqlC/n0CKb0tAxusWgbAgkGWFqSB0u4tj2w0MdXtvfp28rpueuTcO54gvBfsE5QlQxU9oIlOWUt2UW0yhNccv5LLQcVO/CLwCFDl0GEbe8CKALJwCN/7GCITHiql4w+gG8HSOqEqUEMGT7gP9v4Ll/kH3Xl4IcedthoAJSf8pG21B4lusJBB1xhUFeLA3X53U4MIgPlJo9N5B5OCIceIil9I6c5N7hw2zrJycmhnFWuk/8iJOQtmPacstjUS0fnQTlGSJ/2de6WOmBALkr/ZCvf1Abnlu2nCClycGS36bKVU1F/IJfePxbIGe81trPtYSrW5Vhu4ysd8gMM4slxYJvjr3GQ8Yxxkzo7ppXtUqfxVXV2DAdP9XbsVn4is/4JoyxLwgnhE5FEt5zxpB6yRwlR5Asp9MgfepBGcEo9iCd2mlmVX5BNtY89X9XZsvTT1u3ydiun565PwrnjpGAuwslA7Q0oDESSM0ixzSChQYMBiRMGPXvB04VIZM2eVLLVBYSB0Q5I6GJvByhktK9BsRwwhSl/dBFCji1+0wbb6hP90CDHRU0Y0lOd/NQ+utiCiR9sY6OLXRlL9GiTtvO7GzGIDJSbPFZaIoVU2qfUIRfMbkJAPBIiH8l7zj/lu+T2PBjKWemBwbb+gdL5Jjxb6pzX+UKdHSNoj3MY33TOlTo659CRfzpXKDnn5IvOO3ykHeuLxhud/7ZuU9utnOr1gwfEeBJdD4rxzwb7WrnSbGeJW44/qlcciZHGMkr2GaOUO9LTsddx1nERnkqOmx37JcdeYzj4Gh/t2E3bylsdfx1b/JCNMC3h1HJ2SQIhd5qZ1KyjJZiWGGKLDgQTO81W0p72WTpnG8Jpl9HtbCb6tIGeiC244Gt2tPRTfdrlspXTc9cn4dxxkjAX4eSioQHGngAMGPaCwj4DBLoMVtLVhYOLAjL0GGRUb0sNOODoq0FGeiJpDEi0hR5+sI8OF0V0kNO22mfQoh4/qGPQYh9d7JGBJxzqJGdw46tBEixbpzZoGzv6Lx/swGhjpgt52T/s87u9GEQGyk0dn/I9nDyRTp5CNJnViryHUwRC+S7fdR7oXK3lLPrksnJfduS8sMpS54PV4ZwBA//5qs6eE+BIpxxHRHawRQc8taPzTgQIW/nEeWrPQck3WbZyqtcX73Yp4gLh5LapGh6xsLGRnuKoMVL79jihWx576SEXli1rYxz5JJLKtsZAjhP7YChvlZ/l8bfjNPqQNogeJM4SR+sPy9m699IjpWBQDw6l7rOELFpiKlvaEZkU4ZWNvU8UoimCC7ZmPiGxyK2P+7Ldyum565Nw7jgx4L9cZkfslwsYXytje2iQ2pcTIP3cHkk7pNhHBspN9ZdZKxEJfmmIbb6cr9x3zfbQ7Oam/NzVdkRaSnKyaX9bOTXGHy2vM7FADtgZzzF4h2ADSRSZ23R/RDA1WwmRrC2j45sIsu4T3bS/U9tr5fTc9Uk4d5xwTk2otE8CdxJzIDJQnsS47GOfmdHju23fWzm1bf8OpX1mGzXDuI0+MWOp5XQIJ8vsNT/wU8v7NZ1dlrdyeu76JJxJOKsn0y6fKOlbEumhHIgMlEP2WZf5VeZAK6dK/dzPHNr1HGjl9Nz1STiTcCbhzBw4uByIDJS7fjFI/3aLsLRyKo/Xbh2vPB7t49HK6bnrk3Am2Tg4spEDTXugOfQYRQbKQ49B9m/e86CVUxnveeOd8Vx/PFs5PXd9Es4knEk4MwcOLgciA2Ve0NZ/QTukGLdy6pD6mn05GedGK6fnrk/CmWTj4MhGDpYnY7AcOs6RgXLIPusyh8ocaOVUqZ/7mUO7ngOtnJ67PglnEs4knJkDB5cDkYFy1y8G6d9uEZZWTuXx2q3jlcejfTxaOT13fRLOJBsHRzZyoGkPNIceo8hAeegxyP7Nex60cirjPW+8M57rj2crp+euT8KZhDMJZ+bAweVAZKDMC9r6L2iHFONWTh1SX7MvJ+PcaOX03PWzE87/9RP3Leb4egk/By4YHjayfcafy/dafObCz9gPnx9efDL234mZF5uaLDJQ1mwPWf7tb//t4pvf/Nbiuee+ufjGN549+j729MXFn973uPu98cGzi3vPPbP8Xnru+er4echxo2+tz6H3P/t3eCS0ldNz1yfhNLNb+3xhn8t3cLyBZS58DxvZPuPP5XvGvp+M1/IpMlDWbA9B/rd/+3dLYgmpvHjx64tnnvna4umnv+p+/+uXnjh2/l32qfsXb/jsI8dkZY7/xm1fWrz5848sREYPIWatPrRyqmWf9YdH2Pb9mLZyeu76JJxJOFcuLN5JVF5wxu572MjG4pV228AvfZiy7/k/Bc/aetj7HvtanyIDZc12H+UQTGYtv/71vxkklyXp/NxfnTt27t1w+unFpb/7h8Ud576+ePKbf7/4L/ecOVZv86nchoQyS3r6/EX3n9Z9jKv1uZVTVje3k1zuQw60cnru+iScSThXLijeiVJeXMbue9jIxuKVdtvAL32Ysu/5PwXP2nrY+x77Wp8iA2XNdl/kkMxnn31uOYNZEsno/h9+9vTRufcnDzy5DBsls5w3PfrMcr8122lzTNs/f9N9yxnQOx6r/w71vsRZfrZySnpZJtnclxxo5fTc9Uk4k3AeXXB0sfBOFtVNLT1sZFNxZb8NfLU9R+n5PwcuGB72vse+1qfIQFmz3XU5M5ksk0dJ5ZDeb3zmS0fnHrOb+vz9f/vH5ewmsjGE0+bsy2/54uLdd31lcfbis9Uc3PWY41/rsw99SB+TDNscaOX03PVJOJNwHl1wdJGwCalt1U0thVeWU3FlX+JqX/VTS+HZciqmtbe42rb1U7aFV5ZTMK1tiat9qzNlW3iRMjJQRnB2RYfZTO7H/OpX6/diDhHLWl2NcJ6++PxyXJiDcNpjzrL77Y8+tZfEs5VTu5Ir6UeSymgOtHJ67voknEk4k3B2vFnBO5HtBXXq9jrxPWxkU32W/bbwvXYjA6Vnt2syEc2//utnZpnRLInn++9+9Oj4v+a20wtmNvlw/yZkk/IVn37wSEfHemrJrOctj5zfK+LZyqldy530J4lnKwdaOT13fRLOJJwrFxMvSadeYGTvYSNT/dRyG/hTfbb2nv+2fsq2h73vsa/1KTJQ1mx3Qb5uoini+cT5pxfcb6m84t5NiCYznD0PDMm+t9wn4tnKqV3Im/QhSWZPDrRyeu76JJxJOI8uNrpYeAmruqmlh41sKq7st4GvtucoPf/nwAXDw9732Nf6FBkoa7bblv/N3zy3WNeMpoimLU+feWphl9bnyrcenFd/+sHlez63Hfuh9ls5NWSbdUkEdzEHWjk9d30SziScK2TPOzF6Lh5Duh42siGbnrpt4Pf419L1/G/ZROs97H2Pfa1PkYGyZrstOS9kn/seTUss2eZ9nF/72sWjF77zlDvt8n3imW8cveBdL3rnPZu86oiHfrj/khnJaL6N0ePdnhef/Vb1n6NtHRvabX226Vu2nYR2TA60cnru+iScSThXLiBe4o65eHg2HjYyT3eMbBv4Y/ys2Xj+13R75R72vse+1qfIQFmz3bSc5XPen1mSw6n7kEtwIZXPP//tWUkchBQy+sY7Ts9OQlni38UHi1o5tem8yfaSZE7NgVZOz12fhDMJ5wrZ85K4l9zU9D1sZDX9Xvk28Ht9HNL3/B/S76nzsPc99rU+RQbKmu0m5XPPavK6JAgmP2G5yX48fOHSkoCyNN6Tk0O6kNldmu1s5dQm451tJdmcIwdaOT13fRLOJJwrFwgvkYcuDD11HjayHowh3W3gD/nTW+f534tR0/ew9z32tT5FBsqa7abkvOZo6iwm9iKZzJT2+M6sp5bTKe88dY/7PXPmXBfuuUvPLcnny2+5f/J5zWznPWe/2tV+Twx6dFs51YOVukkYdyEHWjk9d30SziScKxcF70SokZheuYeNrBenpr8N/JovY+Se/2NwPBsPe99jX+tTZKCs2a5bDjHkPsopZJOHiiCskZlMiCUPIrG8TrvlA0l33X3v4pd+6T8sfuqnfnr5/c+v/r8W73r3/3u0Lzk6V7z2Vxfvee+1i49/4lOLCBFl6Z37Mr187JFxH+m6j0sLv5VTLfusT5K5aznQyum565NwJuFcuRh4J0XPxWFI18NGNmTTU7cN/B7/WmNEkNYAACAASURBVLqe/y2baL2Hve+xr/UpMlDWbNcph/xNeTAIW8jj0GwmJBSdyK8RPfTQ6cXLXvZzR0QTsnnx4qVl+CCV7F/567+xQj4tCb36mjctCShkthY7Zj2nEk+W2C8993y1jVrbc8lbOTVXO4mTxHRTOdDK6bnrk3Am4Vwhe16yR0lNS8/DRtayi9ZvAz/qW0TP8z9iF9HxsPc99rU+RQbKmu265PwkZTm7GJ3l1IxmzTeRTB4UimKi98bfveaITIpsQkL1hXwiF8Fslb/5+t8aJJ9TiSf3iF78m29uhXS2cqp2bKLy37rj4WPj4Nvvqs/q/sdbx98re8NDT24lftE4pN7mCHcrp+euT8KZhPPYIAdx8U74CKGJ6HjYyCK2EZ1t4Ef8iup4/kdtW3oe9r7HvtanyEBZs12HnAd5eoig1WUpvDajyb2XkZlMi2e3X3PF647I5Mtf/orlMjmx++B1H1mGkGXzHsIpQsqsKTOftWV3iCevWWrlrFfPq5l4SGkdx2kIs5VTQ7ZDdZe++fzitbd9eSUWSTg3R7yGjs8h17Vyeu76JJxJOFcGOu8E8wb+MTIPG9kYLM9mG/ieH2Nlnv9jsUo7D3vfY1/rU2SgrNnOLR9LNpmtrL3OCMwpS/Mina985a8cEc43/9EfHy2nW8KJXERyTMl9nzyQ5MX1jscuHPulozJna/s8TLRp0tnKKa9/LdmTX//mojZbmYQzCWcrf6bWt3J67voknEk4V8iel8S1gb9X7mEj68Wp6W8Dv+bLGLnn/xgcz8bD3vfY1/oUGShrtnPKx5JNHgjy/JiLaIpw2iV1yOSpu+5Zhk6Ek/0xJNOzgXiyVF/2i/syuT/Ty9kh2aZJZyunyn619h/+6jcWv3BT/UX6Q4STuqHYDNXd8fhuPPXfik/Wr59wt3J67voknEk4VwYu70QfGsB66jxsZD0YQ7rbwB/yp7fO878Xo6bvYe977Gt9igyUNdu55GPIJrOW3qwmsqlPtotk2pIn1EUOWTpnCZwn1HlQiJnNz9x2++BDQ7LtKVlq9x4wuuWR892znZskna2c6smbe578WnPMGyKc0bbe/8Uzx9phNjVqm3rrJ3zbjnErp+euT8KZhPPYgARZ8U6CGonplXvYyHpxavrbwK/5Mkbu+T8Gx7PxsPc99rU+RQbKmu0c8jFkk3sxy3s12V/HrxBZ0nnDRz9+9KR6D3Gcoss9npDZMtYsk/e+PH5TpLOVU2Vfavs3P3whNN5NJZweqaXtml8pP3yCWR7jVk7PXZ+EMwnnyuBXJiX7HoEZI/Ow9x1/TBxqNl58arq9cg9732Nf61NkoKzZTpXzNLoldJFtbwl96iuUhtrlqXdmGSG5tH3+/IXFxz9x0/Idm7xnk+9b3vr25Xs3WQqfQi6HbHmqvZztHLPE/upbH1j7rxK1ciqaN+XT6JzHzESWy+tTCWfZTs5unjxC2crJVk7PXZ+EMwnnCpn0krSX3NT0PWxkNf1e+Tbwe30c0vf8H9LvqfOw9z32tT5FBsqa7RQ5JLH31UfMhpZtQgKHCGNPHf5ALHk3J0+1l21F91luZ1YSMjonCWW203uoqPe9ncyMljPE0b5F9Fo5FcFAh6fS7YNCmnUsz+UphNOb3czXISXhLHO0ldNz1yfhTMK5QvbKpGS/HAzH7nvY+44/NhaenRcfT2+MzMPe99jX+hQZKGu2Y+WQnZ4nxyGC5f2aYEx5zZGIKH6wFD+FYLbiwMwkL4d//Rt+e5YZUB5UKtu88cGzXWMPJLXEmGu/lVM97fB0OgQQYii78pyeQjjL2U1mTyG6aivLJJ/kwKY/STiTcK4M6N5gVA6GY/c9bGRj8Uq7beCXPkzZ9/yfgmdtPex9j32tT5GBtGY7Vg4BE+FrlR7Z5OXtvS9uL9uBrLKkH+0DBBdSyvfLpx859n3s8TNhHJFP+xOZQ0vptToeKCpnKXmYyOZxa/vm032//R6NVSunojg1vbJfYwlnzm4mmazlWClv5fTc9Uk4k3CuDOZlUrJfDoZj9z3sfccfGwvPzouPpzdG5mHve+xrfYoMlDXbMfKeJXCPbI5Zirdk89KlbzR/Vx1SiZ+QUkts7zx19+IP/vAti9++6neOvtf83h8cbf/u1b+/fHL9zz72ycXnv3Bq8dRTTw8SUZbHpyy5v+pVl6/c19lLOk+fr//M5pjji03rMxZXduU5PZZw5uxmEk7lVKts5fTc9Uk4k3CukEkvScvBcOy+h41sLF5ptw380ocp+57/U/CsrYe977Gv9SkyUNZse+UQOUv+WtvlMvoUsjlENJkp5P7QoSX6e++7/4hYinC+813vW4bvj97yX1bqpANBhYA++tgTVfIJ8YQ81mYzh+Qe6fzT++LvnuQhorl/d72VU715U+rbc5XtMYTTm90cg1P6lvuHSWJbOT13fRLOJJwrZM8bXMrBcOy+h41sLF5ptw380ocp+57/U/CsrYe977Gv9SkyUNZse+SQup77NssHhMaSTWYoIbqer8iHSKYlxLxzUyRS5dmzTy7DRynZUAn5/NTNn15Afj1/rrv+hlGvXfJIZ8+DRO869VeuP56PEVkrpyIYQzr2XGV7DFEsZzfB4X7RoXaz7jDJZOS4tnJ67voknEk4V8iel6jlYDh238NGNhavtNsGfunDlH3P/yl41tbD3vfY1/oUGShrtj3ynndkspxtsceSzRJHmJDZHvIL8SyJ5Ic+fOMydA88+NCy/JNrP7iiU9rY/es/9NHlK5bkk0ru8eQVSEOzml6dRzp7foP9nrPz/apOK6fU17GlPVfZ7iWc65rdvPqqqxbf/V0vOpa7Y/uYdrtFbls5PXd9Es4knCtkzxsUysFw7L6HjWwsXmm3DfzShyn7nv9T8Kyth73vsa/1KTJQ1myj8p6ldGYcLS4PCHEvp51tbG1DJsvleDDxw96T2cKx9ZYsct8mDxzxsaXViW7XZjyZ7fSI5ZCM+0Ft7Fgqf/kt9Z+EtDmPXvkQksXq2W7lVA+Wp2v9ZruXcK5rdjMJ526RRC93xspaOT13fRLOJJwrZM9L3qELQk+dh42sHGzH7m8Df6yvnp3nv6c3RuZh73vsa32KDJQ126g8SvIgipb0sB21FTlkhtBi4CP70aVz4ZSlfVjojs9+zg3bLbfe1jXLKVLKw0bcI1rGk99T732anafXLQ6/SBQ9B7j309qO3XaDY4RjcWVX9qeHcHqzmxBQYU8pk3Am4TRpPmkzCWcSzpWB2xucekjlkK6HjawcbMfu1/CHfOqp8/B77Fu6Hv7YWJR2HjayUm/s/rbwvXYjo6JnF5XxEvWSvNX2y1nJXpLo3RvJDGTvDKnn3+13fO6ITJ66654F922WX4ioSOSY8tr3X7ckxja2EOjeB4r4JSSLEX1HJz99efbi8dsZLE50u5VTUZyaXnne9RBOb3YTElprqyW/8oorlsvoLKX/6EtecrSkfvbMmcVP/viPHdX94mWXLdtAR9tgv+Otb1t834tfvLj71Klj+j/7Mz892qeWz1nfT4xbOT13fRLOJJwrhMM7cVtEKVrvYSMrB9ux+zX8qH8tPQ+/ZdNT7+GPjUVp52EjK/XG7m8L32s3MlB6dhEZM4tRslfeb8m+R/xqstIe/yCgNf0x8o/e+IlJhDJCQpntfPTR4zONY0gns6P2GEXv53zz56bP9rVyyvo1Zrs876KEc+7ZzQ994ANLQklJPy7/5VccEU5kEEuIp/RuvemTC82CIscGUoodxBPSCvFEDpEdE5u06SeTkZi1cnru+iScSThXCIeXqD2kaUjXw0Y2ZNNTtw38Hv9aup7/5YVo7L6HjWwsXmm3LXyv3chA6dlFZFHSyLK5xWOms4cQlk+0j1mKb7UH6eN75uyTi0/d/OdHXx4e4gl2u+QeIZYtnf/vc3ceiwl9euPv/l74/GcpHn8V13OXnlswg1nmorc/9d2crZyST2PL0uco4fRmN+94fPzDUhBFZizVD5FJ7dsSMkk9sh/6gR9cEkrIpUgmBFSznyKw1j6310Mko3Ft5fTc9Uk4k3CuDNZesraIUrTew0YWtW/pbQO/5VNPved/eSEau+9hIxuLV9ptC99rNzJQenYtWc/spl1Kx67nCfJyZhOsHnuPaDIry3I+RNb61uoz9fwK0V/85WeXJLRFKlv1PFBEPNRu70znW9769iNbMD543xOhHGY2VG2OKVs51YPpzUqW51O57y2Rezj8TnuPL6UuM5jMUEpuCSdkkmVxCKW+IpzMXkI6Iazl0rnsLJEVfpbbI52tnJ67PglnEs6VwdobAHpI05Cuh41syKanbhv4Pf61dD3/WzbReg8bWXlhG7u/LXyv3chA6dm1ZNHZTV6XZLF6Xp9U3rMJOYwu4XtEE5LZ83OX1m9vm75APqfMfvL6pCmkk5fKW99efsv9oTyeMsvZyinrT2vbI4qt884jnN7s5s0PXzgWm5YvZb0IJkvl1OmeTbYhkiKjmskU4WQ2k/s2IaKazURHy+haXteye9lu7m+eeLZyeu76JJxJOFcGau/Ej5Kalp6HjaxlF63fBn7Ut4ie53/ELqLjYSNrXeii9dvC99qNDJSe3ZAsOrsJObRkCsLoEUFPZpeL8WUK2YS48vqloT5NrWPm03t5fGuWk/qSdJ45cy78gniW1m2M7z33TCiPp9zL2cqpnljOQThZNi/PzRseenKW4y2SCXm093CKjCJHhxlLEU76Xy7HQzzR0WyoyGdPrFJ3fUS0ldNz1yfhPBDCGSEcUR3vBI/atvQ8bGQtu2j9NvCjvkX0PP8jdhEdDxtZedEau78tfK/dyEDp2Q3Jok+ml8vhkEiPXJYy7/VJY5bRaS9CNCGzLK/jL/eb/tVXHlvc/8CXlsvnX/nKYwu+589fWNYPxYW6+774wKgZz/KeTmYuI7mMznvee+0xchV9gGjsE+utnGrF6CTUs6RuCehJ6PM+97GV03PXJ+FMwrkywHsnUPQi0NLzsJG17KL128CP+hbR8/yP2EV0PGxkYwlmabctfK/dyEDp2Q3JIuQPHYsBoSuJZW0fAmhte9/Vyczq0NI5M4L4U76WiafH7zx197HvY4+fObbPK5OYzYSAWh/tNkvtH/v4Td1PvN9z7xePYUIkI/n8spf93JIoy4foLOcH7j3+tLzsW2Urp1r2h17P7CVL6ofez0PqXyun565PwpmEc2Vw906oyAUgouNhI4vYRnS2gR/xK6rj+R+1bel52MhK4jh2f1v4XruRgdKzq8kgcjWiaOUQOosRIanYl7Oiva8+gpzWZjX5JaIa3hNPnD1GLCGUFy9eWoaPkv2SjEI+H3nkKys+q98QU16DFFlWRwfdJ5986ljcou/oLB8gisxy8lS7XY6X362ylVMt+6xf39JwxnZcbFs5PXd9Es4knCtkzzt5W2QmWu9hI4vat/S2gd/yqafe87/HfkjXw0Y2lmCWdtvC99qNDJSeXU1Wzgpakqnt8t7N6Oxm+fqkKLlVu+VDRuoDBLS1nM9vpotQfvH+B92wIZdOWUI8v/Wt54+RRdq/cOGvF2/743eGSSe6ljA/9OWHw2MC936qz9FZztsfPU5wZT9UusExwiHbrBtHiDJu642bSd+NbCbhTMK5MrB7J/kQkemp87CR9WAM6W4Df8if3jrP/16Mmr6HjawkjmP3t4XvtRsZPT07T8ZsmMjdUFnOUkZnN5mBVLu01fNEeo1s4suQr6qzZJJldD4QSJb3/+Ef/ttyn3s7S6Jp95nx9JbaWWLvIZ03ferWozgQj+jS+rvf8yfH7F796QebOf07t3/5mI3iP1S2cmrINuvWS5wyvuPi28rpueuTcCbhXCF73slbIzG9cg8bWS9OTX8b+DVfxsg9/8fgeDYeNrKxBLO02xa+125koPTsPFl0ptLO0EEiReqGypIwRmZShVfa4js+9Nz7aQmnltIhnHzB4QMBtgSzts1Sehm/XtLJg0rCYHaW+zS9XLYydNCV3S2PnA/l9MVnXyD6sh0qWzk1ZJt14whRxm29cWvl9Nz1STgN4bSD2JTt2klSXqDH7nv4U/wtbdeJ72EjK30Yu78N/LG+enae/57eGJmHjWxsHpZ228L32o0MlJ6dJ4uQQHSsbcQG4jiGpGLnkc0xr1B6+OG/OiKTkEw+//iP/3jUF/aR10hmKedpdfRtLHpIJ69YsvdXfvwTnwqNDfZ31i8993zo14dufrjvFUKtnLJ9zu31EqWM7zzxbeX03PVJOJNwrgzo3sk8huB4Nh42Mk93jGwb+GP8rNl4/td0e+UeNrKSOI7d3xa+125koPTsSll0Od0+LASJ1CzkUFmSxujMZHnPJz6PIZv49tRTTy94ShziyJI6S+Plt3xivSSZ5b5HOh9//Ez4QaLyqXXeudnKdR4yssfuzZ9/pJnXb7zj+O+yW3tvu5VTnk3K5iFGGcf1xLGV03PXJ+FMwrkymHsnd2vAj9Z72Mii9i29beC3fOqp9/zvsR/S9bCRjSWYpd228L12IwOlZ1fKIg/wsORs7aLv67Szm9Fle9qydrQ7lmyKDEM67dJ6SSDH7HukE1nkyXV+wcj28brrbwiNDw899AKBvOOxC8287n1avZVTNgdyez0EKeM6b1xbOT13fRLOJJwrg7l3Ug8RmZ46DxtZD8aQ7jbwh/zprfP878Wo6XvYyEriOHa/hl/zp1dew/fkkYHSsytlLAeLmNXKcjk9MlNZ2kQfMCrfswkx63nIyPYBO/zgASPuObVEmVlO7qfkRfBjCCc22JbxvPb914VIp53ljN7LWb4iCULZyuV7zn51xcfSZ+23ckp6Wc5LijKe64tnK6fnrk/CmYRzhex5J3gvOajpe9jIavq98m3g9/o4pO/5P6TfU+dhI2tdlKP1NfweH4d0a/iePDJQenalLEIexyynW+IYfcDIPhgjPyP+WZLJNjjWZ2HVSu7JZElcS+89BJTXJllcCHzkHZ3lvZxXX/Om5hjB0rttK7Ks/qf3xV8CH8mp1MkIZATqEUjCmYRzZSC3g7a2h4hAT53wyrIHY0i3xNX+kE1PnfBs2WPf0rW42m7ZROuFV5ZRQtnSK3G1H/WvpSe8SFkf8l6oaeFE79+0D7nYWcKS6Gm//DWiMQ8Y4Xv01Ue2XfsKplb/vXqIJ69B6iGdtG+x/uIvPxua5Tx37vyRHcvlrfygnhfZq63I0+q8KF76rfKFzMmtjEBGYEwEZieckUEhouOd/K0LXrTew0YW8Suisw38iF9RHc//qG1Lz8PeROwj945FdDz/W33uqV8nvoe9idj39H9It+a/J48Mhp6dlUVmHssHeCLkkVk+tRMlteUDRiyli0hGSuwtMVb7Y0qILvdjRkmnXR5Xe9yn2TrfPnrjJ47ihF3k4SHu91QbT156rjl7z7K79FtlJKdSJyOQEahHIAnnBmc4hy6mPXXewNhj39JdJ76HjazlU7S+ht+6uEXrPfyobxG9deJ72MgifkV0toXvtVsf8l6o8eysLDKDaMkjthHyZ2cZow8L2YdoaIdl8Uhb6PQsn9v+D22zzM57N6Okk5lRi/eFO+9qEs7y4SHu0Wzl4W++/reOtfPyW77YJJ1PPPONYzbWT7v9QubkVkYgIzAmAkk4k3CuDOJ2kNV2a6CP1guvLKP2Lb0SV/tRQtnSE54tWz711FtcbffYD+kKryyHbHrqSlzt92AM6QovUkYGwxZOZLbSkjmeFm+RwPKJ9kgb6FhfIzOv8sP6ZzHm2v7SQ6dDpJNleNtm9F5O+yL4u+6+d2WsKvOFl8DbdiL3cUZ/5jKSU6mTEcgI1COQhDMJ58ogbgdsbZcD+9h94ZXlWLzSrsTVfotIRuuFZ8vShyn7FlfbU/CsrfDK0upM2S5xtT8F09oKL1LWh7wXalo4kQdyIJnCidy/WZJHEcOh0j5gRFssjw/pq65chpefc5bMdEaX18+ePf6i9Q99+MbmLGf5c5c2H2rb9j7OGx8825zhjD449ELm5FZGICMwJgJJOJNwJuG86neaFz4RUu9iXbvwjZGvE9/DRjbGT89mW/heu5HB0LOzMhG3odLqR4ggpFQ2kZnKckY0es8nDybNdc+m/K2V/CRmZGkdYmoxeG2SzqtaydPq1uaK1/5qM18/c9vtRzb3nnumSTjf/LmHj/RtW+V2JKdSJyOQEahHIAlnEs6VAbwcaNn3CMYYmYe9CfzaBa1X7vk/Jg41m3Xie9ibiH2tr73ymv+evD7kvVDj2UkWeSinfGAocl+lvX8zco9oOUsZmUWFINt21Kd1lrz+KEI66bP1I/KKJNuX97z32uZYhI7a4GcuWw+TRp9UfyFzcisjkBEYE4EknEk4VwZwDda27CUHNX2Labdr+r1yi2m3e4llTd9iarvXxyF9YdpySL+nzmLa7R6MIV2LabeHbHrqLGZrOzIYDmFEZh/L92JGXsBu24zcv1negxmxKf2yba5rm6X1COEsHx6KvAje3sfJ7GUrZ3hnp+1ni3DyYJHVr21Hcip1MgIZgXoEknAm4VwZwL0BtzXIR+s9bGRR+5ZeDb9GIHvlHn7Lp576deJ72Mh6/BvS3Ra+1259yHuhxrOTLEI4y9m6oaV36srl8d57RPGt1Qb1JUlVn9ZdRp5a5yEj60fknZz2tUqRB4dYdrdtvPrTDzZnOa1+bfuFzPG3anYpX98v5WRsp8XWz+T1SZNwJuFcIRzeSTxENHrqPGxkPRhDujX8XmJZ0/fwh/zprVsnvoeNrNfHmv628L12I0OmZydZZLnbEs7IE+rlzGOEPMofykgbJam19uve5jfZW7Oc5dPqkNTauSZ574NDr3rV5ccIJ0vmrVlOu2xfi1Mrp2p2KZ9GijJ+64tfK6fnrk/CmYRzhXB4J3iNZPTKPWxkvTg1/Rq+Ll5TSw+/5ssY+TrxPWxkY/z0bLaF77UbGSg9O8kihNPOJEZmRO0T6pGHf0qCSnstkmrbUF82WUZ+hYjld/nE65Fa52Qv4SQ3hU/5xjtONwnn6fMXj9lYe223ckp6Wa6PIGVs541tK6fnrk/CmYRzhXB4J7VHMMbIPGxkY7A8mxp+66IWrffwPT/GytaJ72EjG+trabctfK/dyEDp2UkWIZx2VixCOO2MaES/JJwRn2wb6ssmS548b81yQpqtT61zr3xSnRnMMvfKfYvPa49aM5w8zW5tvO1WTnk2KZuXIGU8541nK6fnrk/CmYRzZfD2TupyQB+772EjG4tX2tXwWxe1aL2HX/owZX+d+B42sin+Wttt4XvtRgZKz06yCLlbN+Esf8Wo1yf1ZZNl5Gn1knC2nlQvCWfk1Ui2z0k45yUpNra5vd+xjYyTc+ok4UzCuUI4vEHEEosp2x42simY1raGHyWULT0P37Y/dXud+B42sqk+y35b+F67kUHSs5Osl9xFZizt7GOvPn5FnlC3JFh92WTJE+WtGc7z5y8cm02EUA6dd0k495vUbDL/sq2+XImMk3Pq7BXh1IVtallLyqFBr6duG/hTY2LtPf9t/ZRtDxvZFExrW8PvOX5Duh6+bX/qtoc/5E9PnYeNbKrPsq/h9/g4pFvD9+SRQdKzk2wXCSdL7K17OPeBcNrXHBHvJJx9JEE5mmXGbWoORMbJOXWScJoZzqGLXU9dLQl6MIZ0PXxd9Oco14nvYSObw28wavhD8eyp8/Dn8r3mf49/Q7qe7/se+1qfIoNkzRb5LhLOyC8Z7QPhLJfUk3AmcRo6F7NuffkRGSfn1EnCmYRzhex5J/hcpMrDRrZu/CEi1lPn+T+X70k4h39i1It9TRYZJGu2yHeBcJa/MhTxqfzd9aE+rqMu8i7OknDmPZzrIxTrOMaJeTjHKzJOzqmThDMJ5wrZ8waUuUiVh41s3fg9pHJI1/N/Lt+TcCbhtEvm+/iUOr+X3rqHsyScQ+cbdX9y7QePrVz80i/9h+Z4Yc/TXXto6N//3M8vvvd7vufo+xMvfeli6PuZW2491n/69qMvecniu7/rRce+V1911eLKK65Yys6eObNiY2PSs/2Ot75tiQl+j11L9xcvu2zxfS9+sYvJq7DuPHXPso57ft/8R3+8uPw/vXr55R+U8lVZrbbWUc8/hPxS1jqwN4U5J5mMYCXhTMK5Mnh7yT4XqfKwka0bv3VRi9Z7/s/lexLO/SKc/K658iHyEFBJIC259LbL32pn9tLTs7KyDfm3iTL685bWlwsX/nrwgSHOy5JcRM4320bkxe/PfP34b7xbe223LqjSa5U/8b+89BhRHNKHiN5w/fVHeSZdiNrP/szqLURDJE62vaVI7Ic+8IEVP3qxrP5P/viPLYmzlbENkXvd635twa9QQTbZhnBKj23qtL/JEl8eePChZdvciwwJ1v4m/ZirrVZOz12fhDMJ5wrZ85I5MshHdDxsZBHbiE4NP0ooW3oefsSvqI6H3/IpWu9hI4v61tKr4Uf9a+nV8D15ZKD07CSDTFoi522zxC39b3/7b5v6JRn0MEuZ8CkjbWDPS+Wt3aa2z559sjm7aX+mEr96f2no4sVLzXwtf9oyQjiJbStOrZxq2au+JJxDs5vf+8+/Z4VwMnvJ7CbkUpgqayRO9WPKy3/5Fcv27j51aqW9MXiy+aEf+MEF/mpf5Udu+NiCWUz2KbWt+m2VEEsIpn3Lwuvf8Nsr/xBty78x7bZyeu76JJxJOFcGcC9xW2QjWu9hI4vat/Rq+C0yE6338Fs+9dR7+FHfWnoeNrIe/4Z0a/gtv6L1NXxPHhkoPTvJIjOW5XsyS7Lo7QufEgLq6VhZ+RAQP11p671tO/Nq21v39gOBl75DMK0fn7r5z5sznPb311lmHcpB6krC+fJb7m+++N36VNtu5VTNbm75rTd9ckkAIYIlNkvtInEQU7Yhp8yIsjQOaWSfWUts7Ywo+uipTtjMpGJTLtOzxI4+dWpTNmCoC5u+HgAAIABJREFUjnqRVdpjH7JJvUeamUVkVlsEr5zhVhvvfNf7lrOf2sdOS9wigsyG8kVOCZlFDxu2tUyvNqwedeAw48qMqnQppQ8ZVpvyY5/KVk7PXZ+EMwnnygDunTCtQT5a72Eji9q39Gr4UVLT0vPwWz711Hv4LZ+i9R42sh7/hnRr+FH/Wno1fE8eGSg9O8kihLOcsfzqV7/WJIN29pELmUcYrawkjxEb/FA/NlUy29u6d5N6ZkGtT60n1MmJc+fOH9l8/BOfaubrW9769iN92mr9ytCrb33gmL71z263csrqDm2XM5wQMO/LzKc3w8nSNvolMaRNS+Is+YQ0QvKkI7IqUgghFIEsiSVkEj3bJ93XSSkCLH9ENpFrdhRMKy9thM0/FBA6ZhEhdWzXlqzt7CfnhSWCkEq+kEwwKdnHBlzIJmRS7YiEogcO9SXhLQkuPlsf1Id9Kls5PXd9Es4knCsDuHfCDBGNnjoPG1kPxpBuDb9FZqL1Hv6QP711Hn7Ut5aeh42s18eafg2/5Ve0vobvySMDpWcnWeS3zkti1ztjGVm2L38bPXIfJ4S1JKrq17rKyOwmhNP+jjoktXXsuaDb5W7IZC3/JP/gdR85IkePPP31JuFkyT0Sl1ZORTDQiRJO7t38kR/+4ZUldYhhSVCRQepEREVKdd8lZI86iB5ElJlFyKIIJ3qQUu++UIgqNrZ/kFA7qwkOtiWRtDOo6GhGU3r4bXFFBJFpBrJ8b6v0IYyQQPZ1PyVkUuST3JEu25BK6pCxja7IKFjI0dO2xaQOMmoxpV/KkO/Lt5XTc9cn4TTJ0Rr8ovW1ZIvat/Q8fA22c5TrxPewkc3hNxg1/FZMo/Ue/ly+1/yP+tbS83zf99jX+hQZKGu2ktuZxtq2dClZYq/pSW7v+3z++W839bGzs6K0E1lWR8cSNevn3NvMEkVmN+3SOD5g08rZ8gn1yO+oQyLUx88+/nSTcL7r1F8d6cvOK1s55dl4svIpdfvEurb/xf/w4qMn1++7+4X+gCfyKDKpNkTiqJeOlrLtPqQPsghBZAYSQqnZTUio8FRCFC25RG7Jo9237SDHDrIqAiyCSQkBLtuDZIrAtQgnpFHL2ZoZpSyJIn6gK3KqmUtmMvki132ZFlN6ekDJElww+eIrfmp/38pWTs9dn4QzCecK2fNOmrlIlYeNbN34rQtbtN7zfy7fk3DuzlPqHOfeGctnn20/aFQuw0fII7g27yLEFqLKU+4lWbU4c2zzEM+pu+4JEU58sm1CFlrn3Wduu/3IJvLAEOeQjXHklUg3Pnj2qA3rX7nduviW+rX9N/z6lctZTmY6ve9rfuXyhf2WhFPL1CKTagfyJhInHS2PQzK1pA4phARCGiGpkELq2BeWSs2aamYSuWS0wT5+aGbVtis5xNb6hg0yzbiqLUpLOHXfJDORVodtCKJdQrfkVORTS/Ga8RSO6iktbqmn9oVjyajskAlXsn0qWzk9d30SziScK2TPO2HmIlUeNrJ147cubNF6z/+5fAfHw4/61tLzsPc99rU+RQbKmq3kXIA0M1kr7dL1mKfII22Ur0eKtoPP4Ks/c5csj/PUeWR2s3w6PfI6JPLZ3r8J+Wyda7yj0/bzN//ioeYM5z1njxNha2+3WzlldYe2W0vqLKXr6y2pQ9Y8cqhZQ0ikJXjsow/RxC/piYBCJiF/llTKf82ailxKDmHVMjv+CEsznNhZXM1wUq9t2hQhFq4lnMiYQWRmUTOQ1LO0bckhM5oQPwgocggg28jBKGc80UEfLOohlsxylnrCoW21JxvsNAOqdpDt27eV03PXJ+E0SRIZOCM6taRrEYJovYcftY3orRPfw0YW8Suisw38iF9RHc//qG1Lz8NG1rqIR+tr+C2/ovU1fE8eGSg9OyuL3GPJhcjaRGYs7a8BRe/JLJ9Wj85yQjq5D3TumU5mG6NkkzETP2ycIk+nv/Vt7zjm99XXvKmZq+jYdn7+pvuahPPis986ZmPt7XYrp6zu0HaLcNrZzX/9/f9q5R5OiJ4Inm1HZE8kTvuafZSuCB/1yKSHXDoqRVzB0BciyewlfiBjhlSzrbQtObiW6GpWE30IrEeaIXmQQbUP2dODPJBItrXEzQy5ZBBB2Yko6twUMbQzmpq9lD2ksdQTvnC0r3s8Ian4I1/3sWzl9Nz1STiTcK6QPe/EiZKClp6HjaxlF63fBn7Ut4ie53/ELqLjYSOLEsqWXg0/4ltEp4bvySMDpWdnZZEn1csHh7g41WZDJdcFTG1FSKpdJsYOAhmxU5vMknLPqNqcUkICosvokE0eKLLtQZaZuWodc7ucjv3LXvZzzVzlKXa1FXlg6OW3fPFIX3a1spVTNbtS/rGP3LBgWb321eymynNnY0v+ZTv7uK9Zxl2fNZSflsTuY7xbOT13fRLOJJwrA7934rQuDtF6DxtZ1L6ltw38lk899Z7/PfZDuh42shaRjNbX8Id86qmr4XvyyEDp2ZUyEbah0j6cE7mPE6JoZxwjJJX2y1nO6Oyo9Z2HlmzbZX+H9rGNPo2ulSCIqX1QCvyPffym0PluSXZkOZ08tTbcm9l6JdKbP/fwxgnnUIyz7jtPg2sJfVfjwQwpM5676l/Ur8g4OadOEs4knCuDv5esPcRgSNfDRjZk01O3Dfwe/1q6nv8tm2i9h73vsa/1KTJI1mytHAJjCZu3be/jhMx5OqXMPggUvSeznE3FzyhZte2fOXNueU8cy+K2r94292ly8ecJc5HInrJ87+bjj58JnevXXX/DMd9Yxmz948MT7LYPkfs3bz597piNtS+3WzlV6uf+/t3TeNKOWSun565PwpmEc+UC4J10UVLT0vOwkbXsovXbwI/6FtHz/I/YRXQ87H2Pfa1PkYGyZmvlzM5ZsuZt21k1bLln0tOzsvJBoAixxb6cLYTggmWxa9uPPX5mZSmcGcj7H/jS8oEJlgn15ReBkPeQy1L3kUe+skLm3vbH7wyd648++viRLQS5RTaptyT10nPPN2c3mf08e/GFnye1x93bbuWUZ5OyJJ27nAOtnJ67PglnEs6VC4B3gkQITUTHw0YWsY3o1PDLi+HYfQ8/4ldUZ534HjayqG8tvW3he+1GBkrPrpSNeVdmZFkdUmiXyCP3i4pIWjv8jZDOJ544O4k89p4v5U9Y4mfkQSFyjF8fssfhPe+9NkQ4Iaayu+WR803C2XP/Jritj9rOMknmvuRAK6fnrt8rwtm64EXra8nQO6jW9Gv4Uf9aeh5+y6anfp34HjayHv+GdGv4tWPVK/fwh/zprVsnvoeNrNfHmv628L12IwOlZ+fJIg/nlMvqEZsxM6OQzvIeUHxukU6ewO3N9bH6Htm874sPhPPMvgqJGEUeFvrN1//WEdkkHm+843STcL77rtUZWO/4S9bKKellmYRzX3KgldNz1yfhzBnOlQuBd7LUSEav3MNG1otT06/hj714lnYefs2XMfJ14nvYyMb46dlsC99rNzJQenaeLHKfZLlEHrEpZzmj93JiR3uQTOsv+7Wl+TKP17XvLaNz32bkqXRy6voPffRYn6Kzm/aJ9icvPdckmyynR9+/qRi3ckp6WSbh3JccaOX03PVJOJNwrhAO72TxCMYYmYeNbAyWZ1PDn+sC6+F7foyVrRPfw0Y21tfSblv4XruRgdKz82TRp8Hta4ei5LGc5YzcM6qldY904r/3js658r+Gw72g5QNC+NJDNiGl9kEmlsgjs5vly94jvy7E+zm9Yz0ka+XUkG3WJQndxRxo5fTc9Uk4k3CuEA7vxCjJxdh9DxvZWLzSroZfu1D2yj380ocp++vE97CRTfHX2m4L32s3MlB6djVZZImcWU1rX5ttFGFUaZ9Yxz76EFBtphMM7vPkqXa1ce99969tSZ1XJZUPM+FDD9kkj8pfI2KZPPKwkH33Ju1GXvbeu5wObuuDTn4zBvuUA62cnrs+CacZJHrJR02/lnD24jxl28OfglfarhPfw0ZW+jB2v4ZfO1a9cg9/rK+e3TrxPWxknh9jZNvC99qNDJSeXU3mzRqKzNnSvpMz+iBQeU9m9EEltQtBte3aPkAEwecJ9d5cb+lDEPHBtqdt7tmMLqOTayyl21sEeKF2hGwyA2pniSMPC7Gcfvr8Rddv+e+VrZzybFKWBHSXc6CV03PXJ+FMwrlCOLwTZAwB8Ww8bGSe7hhZDb918YzWe/hj/KzZrBPfw0ZW86VXvi18r93IQOnZ1WTRJfJypi86y8mrlGzb0SfdRTohlfYnMy0WRA68uUgn7+SsEU3ajT6NrvziVUm2/8SMZfII4bSvQqLtl99yf/P+zVd/+sFjsbaxGtpu5dSQbdYl8dzFHGjl9Nz1sxNODSJTS+/gTMWUvYeNLEo6WnrbwFff5ig9/+fABcPDRrZu/NYxi9Z7/s/ley0+c+F7vm8i9uv23+tXZKD07IZkEfI4ZbayXFqPPngk0knJTKydKSz7AyFmqRvSGP15SmYyefKcezR5EXyJqX1wo+/ZVE4wC/roY08cw4wupZf3bkZnN29++Mlj7cn/VtnKqZZ91ifp3LUcaOX03PVJODc4wxklNS09L2k1gM9RrhPfw0Y2h99g1PBbMY3We/hz+V7zfy58z/dNxH7d/nv9igyUnt2QLDrrCOmzOFHiCFm1Dx6BEXmJvCWcbINTklfrj92GQMoeQsmL37VPaXVr2/Q3+nOVZS7YF7yDz4xlZGYTHftkOra8V7P1U5bc38lL4Wt9GZK3cmrINuuSbO5iDrRyeu76JJxJOFfInndilBeKsfseNrKxeKVdDT9KKFt6Hn7pw5T9deJ72Mim+Gttt4XvtRsZKD27lsw+iGOJWblt76lkxhESWOp4++DbGUq2ex4isphgRYlnq99e/YULf71cPu+5V9Pmy+c+f+oY8XvoodNhsnnFa3/1mO2ffan9u+mQ0Q/c+8IvGHl9GpK1cmrINuuScO5iDrRyeu76JJxJOFcIh3di2AvFlG0PG9kUTGtbw28RyWi9h2/bn7q9TnwPG9lUn2W/LXyv3chA6dm1ZNFZTvsgC5i8GN6SwaHt8nVHU0gn7UB2mYUsZ09bfa3V80DQte+/blLeeGQz8gokZjbRs78qxIxl5Ml0dC4++61jRLXWR0/eyinPJmVJNHc5B1o5PXd9Es4knCsXDu8EEamYWnrYyKbiyr6GHyWULT0PX23PUa4T38NGNoffYGwL32s3MlB6dhFZdJazfIgncg+oiKh9iAafIJ1jlteFpxLyyRI/BJin6O1sqtd3dLl/kweB+MnJqbnCbOhDX374WK5AsKNkE8JZPij05s8/0lxKnzq7SWxaHy9+KUvCucs50MrpueuTcCbhXLmIeCfI1AuN7D1sZKqfWtbwW0QyWu/hT/XZ2q8T38NGZtufsr0tfK/dyEDp2UVk0VlOyJ0ldGxHl9YhiJC90h9mKkUe5ywh0RBiffHz9js+1/Vqo1bu/MEfvmXlASHI5qtedfnopfR7zz0TIptTZzc5Dq1PeaxyP8nmrudAK6fnrk/CmYRzhXB4J0nrYhKt97CRRe1bejX8KKFs6Xn4LZ966teJ72Ej6/FvSHdb+F67kYHSs4vKorOc5Uxl9N2cIpMQQEta8Q/C20NchdVTch4MHeveOpbgy1hwz2bPzCa6xEPHiKX0yINCzG7y60OyG1u2cmosbtolMd1WDrRyeu76JJxJOFcuLF7y915gavoeNrKafq+8ht8iktF6Dz9qG9Hz8HtjUNP3sJHV9HvlNfxIvyM6NXxPHhkoPbuorIc4lkvrvJqoh/yV93TiIw8lQb56cHp03/q2d8ySFyyh3/YXd6yQ5l6yyVI6Nvb4RJfSIaUlabc40e1WTkVxUi8J5q7kQCun565PwpmEc+XC4p0MEUIQ0fGwkfWSm5p+DT/iW0THw4/YRXU8/Fpfe+UeNrJenJp+DT/a95ZeDd+TRwZKz65HFr2nktlI+9Q6bURflSSSCIb30A/3Yq5jtrN2jHvk3PN5/vyFYySRvn/8EzeFl9AhmnzLn6+MvnOT2c3bH31qxYee4yzdVk5JL8sklPuSA62cnrs+CWcSzhXC4Z0sLTIQrfewkfVcyIZ0a/hR/1p6Hn7Lpqd+nfgeNrKhePbU1fB7+j+kW8P35JGB0rPrkUEio2SvnKVkxg2ZCGW0LH/JCH/Bmvvezp7jXury8vfywSD8ZEY2+lJ3EU3K97z32mOE8eELl0JPpUM233jH8VnRnuNb6rZyqtTP/SSeu54DrZyeuz4JZxLOFcLhnSRDRKCnzsNGVl60xu7X8Ht8HNL18If0e+vWie9hIxsb69Kuht8bg5p+Dd+TRwZKz65X1vO6o/IhoLGkE+JWzpjiNzKIZ5QED5FcHvApj29rnxnNL9x51zFyqHjy2+jRn6u0ZPPqa950DK/nvk0eFDp36blj9vJnTNnKqTGYaZOkdJs50MrpueuTcCbhXLmweCdAjQT0yj1sZK2LWbS+ht/rZ03fw6/pjpGvE9/DRhaNbUuvhj8mDp5NDd+TRwZKz26MrOdeyrlIJ2SR2U7v3kRkPFg0ZgZVJJT4t4439dyj+aEP37jy9LniyPsyx8xqQjo9ssnvoDNzGfmO/QlL+V6WrZwq9XM/yeSu50Arp+euT8KZhHPlwuKdJB4BGCPzsJFFLm4RnRr+GF89Gw/f0xsrWye+h40sEteITg1/bCxKuxq+J48MlJ7dGBkEr2dWETJo2xk70wk5bP2aELOezML2kGKRzv/6yVvc3GD2E5J57333u4SXvtEeS+E9T6EPzWyC+cbPng4RzbmX0nWsWjklvSyTaO5LDrRyeu762QlneZEYu+8dsMhFL6LjYSMb62tptw38SL+jOp7/ZR/H7nvY+x77sbHw7Lz4eHpjZB42smhetPRq+GN89Wxq+J48MlB6dmNlPIkuohYp5ySdEeKpfvF0PQSUpXdI4RARhUQ/9viZ5W+W8+J3COZTTz19jCwLVyUzmlOIpnfPJtjRJ9IhmzyVPvb30tUPr2zllGeTsiSfu5wDrZyeuz4JZ85wrhAO7wTxCMAYmYeNbAyWZ7MNfM+PsTLP/7FYpZ2HjaxFJKP1NfzSj7H7NXxPHhkoPbspst4Hd0rSSdu9T69bcnvX3fcuPnrjJxYf+/hNiyeeODtIDKf007P9zG23L5fA7SzlmO3yaXTa6iGbEE4eKvJ8nCpr5dRUfNm/9rYvr8zkqq5W3vzwhcXb73p8xe79XzyzuOfJr60lHjVfUr4/JLuV03PXJ+FMwrlCOLwBYyxJKO08bGSl3tj9beCP9dWz8/z39MbIPGxkUULZ0qvhj/HVs6nhe/LIQOnZTZUNzRhacqhtZhvLNnseRAKHWcjXXPG6lVcN8Qs+H7zuIyvvryzbG7sPyXzLW98+6mGgkoyy9F6+Z5NZyp5ldMgmr0sa25+WXSunWvaReggi/Si/Ndsnv/7NhUdQS/s3ff4ra4tLzbeU7z7xbOX03PVJOJNwrhAOb6DwCMAYmYeNbAyWZ7MNfM+PsTLP/7FYpZ2HjaxFJKP1NfzSj7H7NXxPHhkoPbupsjH3Y5YPEuED79yM/pqRRzY9QsfDOyx3E//eGdAvPXR6ubSO/RWv/dUVclu217MPHkTdxh6y2fOAEATr3Xetl1S1csr6P2abmciSKGrfw4Ns/sdb4w9RJencfQLoHed1ylo5PXd9Es4knCuEw0vwsSShtPOwkZV6Y/e3gT/WV8/O89/TGyPzsJFFCWVLr4Y/xlfPpobvySMDpWc3h6zn/Zya6eQl8pBV2z77rZfLs4zeQ+5KXV5VBOGrfUv9OfeZ1bzu+huO9Zn+syQe/clKETKW3W3s1rHdyqkpbV765vOD5NHDhkCq/9GSpXcPK2Unk4y2cnru+iScSThXCIc3+HgEYIzMw0Y2Bsuz2Qa+58dYmef/WKzSzsNG1iKS0foafunH2P0aviePDJSe3VwyZih7nlyHePIaI+/XhHjQpzbb+c53vW8S4ZyTQPZgQXB5wKiMN0vivD8zSqDQYyZ0HQ8Jlb61cqrU79lvkccS6+GvfmMlRsx22vs1Pcyc5TyZxLLMH+23cnru+iScB0I4x17EPTsloy09vTEyi2m3x2B5NhbTbnu6Y2QWU9tjcGo2wrRlTbdXbjHtdi9OTd9i2u2afq/cYra2IwNlC2Nq/RjSCUn17utktpP3bpYkdt8IJzOq3PtZxhbC2Ptw0CbJJv62PmWfovs3PPTkMfL4Czd98dg+/SyxvHs9WWK3esyalliQUquT2yebgLZyeu76JJxJOFdmF71BqJcc1PQ9bGQ1/V75NvB7fRzS9/wf0u+p87D3Pfa1PkUGyprtnPIxpJPZTu5prP2akH2SfeqSes+s5BRdls/f+773u2Tn3nPPdC+hb5pskhOtz5i8gSSWpLAkoB7h/K07Hj5GSmszl949nmP8TJvDJKatnJ67PglnEs4VsucNLj3EZkjXw0Y2ZNNTtw38Hv9aup7/LZtovYe977Gv9SkyUNZs55aPJZ212U78g4xCPNGJPDQ0hSxOsWVGk/s0y4eC6MPYWc1tkE38bX3G5E35hDlEkplJ+mi/NWwI69B9mSXhzBnOwySOtfxoyVs5PXd9Es4knCtkz0vSKKlp6XnYyFp20fpt4Ed9i+h5/kfsIjoe9r7HvtanyEBZs12HfCzp1L2d3Mfp+cVSOy9j3zXSyRPx3js11Yc/+9LZ7ns1RcBYet/EPZvyVWUrp6QXLctlcWY6IZB81VeVUUyr5+HUZkKtXW6fHFLayum565NwJuFcIXvegBMhNBEdDxtZxDaisw38iF9RHc//qG1Lz8Pe99jX+hQZKGu265JDDqf8vjlPrHvL7PKX91jO9V7MMbOavPeT2UzvYSD5OHb5XMRrE0+jy9eybOVUqT+07z30o5lKjygOYdXqvBfB24eKanYpT8LZyvWx9Uk4k3CukD1vwGmRmWi9h40sat/S2wZ+y6eees//HvshXQ9732Nf61NkQKzZrlMeedWRXpVUK1lKr814ynfIJ+SPp8HH/p55i3SyXH71NW9azmQOkUx84leV7nz0/MrMnYhkpFznS90Vt6GylVNDtrbOewWSnXmcg3B6hJbleutHbp8cYlk71q2cnrt+rwjn0MW0p64W/B6MId1t4A/501vn+d+LUdP3sJHV9Hvl28Dv9XFI3/N/SL+nzsPe99jX+hQZKGu2m5DzxHmNUEbl3Bfp/Tym5z8ElKfDeXE7y909RJSZS/Qhl995cfw97j2ZZbuQa5641yudXn3rA6MIJ+/kXNfPVZY+D+23cmrI1tZBLi3BZikdEiqdqYQT+/JBJC3Xq40sk2ySA5v+JOHMGc4VsucNRj3EZkjXw0Y2ZNNTtw38Hv9aup7/LZtovYe977Gv9SkykNZsNyUfer9mlHSix4NDzHpyn+imfB9q57nnvum+sN6SrOj2G+84vZX7Nb3+tXLKsyllLJuXfb/j8a8eO25TCCe25YNCtMeMZ+lL7ifpbOX03PVJOJNwrpA9byCKkpqWnoeNrGUXrd8GftS3iJ7nf8QuouNh73vsa32KDJQ1203K51hit+RU5BPSB/Ym+sJ9pcy0tn4VqSRaQ/u8/P3GB89uxP9ojFo51cLxZh65z7K0G0s4a2RzzH2bd586tfjRl7xk8d3f9aKj79VXXbXia+l77/6VV1yxxH/HW982O3avLydRv5XTc9cn4UzCuUL2vBMvQmgiOh42sohtRGcb+BG/ojqe/1Hblp6Hve+xr/UpMlDWbLchhyBCFi15nGObh5SY/WRpmxnVqSQUcgkOtwRAMLVcHvE1+gtCv3HblxbnLj23cwSklVOtvCmfSh8i3LW6GnmskU09iNTyraz/2Z/56SXhPHvmzPI4QDzXQTi9djfRTtnuSd1v5fTc9Uk4k3CukD3v5GuRmWi9h40sat/S2wZ+y6eees//HvshXQ9732Nf61NkoKzZbksOGfz61/9mdtLpkUHu/+QLGYU81r6QSvSmPF2v9t9/96Mry8mWWHGv5u2PPrVzRFP50Mop6dVKls5tf8dse4RzbrKJ/z/0Az+4YPZRfdkU4WRWNQnn5pb6Wzk9d30SziScK2RPg4wth4hMT53FtNs9GEO6FtNuD9n01FlMbffYt3SFacuWTbTeYtrtqH1Lz2La7ZZdtN5itrYjA2ULY1v1zCJC8kTUDqn8ndsfWiFdzHz+6X2P78y9mrXj3sqpmp3kPBhUvui9l3RCLoVHuQ6yWS6l044lnB/6wAeWhFTL7Zf/8iuWPkFQsZV/P/njP7bgq33qLIlFDhY4LOFDcoUpmW3r+1784iMyCg7Y8pX9X7zssiN77MAvbw0o25dvJ7Vs5fTc9Uk4k3Am4Tx190oMaiTIG5hqumPk68T3sJGN8dOz2Ra+125koPTsdknG0vUhEs8/P3128c47H1n84WdPLz51+tzi4rP+S+136VjgS+szl7+QyJKIetg8COQ9IDR2Gd22UZvhZIkd4ifiJsLIrOStN33yiDyiJ/LItq2z7cgeYoicdjXDKQyRR2Egp338QCY5twGAAfEEh23IsLZpQ1jWh5O83crpueuTcCbhXCEc3gnoEYwxMg8b2Rgsz2Yb+J4fY2We/2OxSjsPe99jX+tTZKCs2e6a/NCIpx5sGnqJ/a4dA/xpfebyOUI4IZvlq48gqcyglr+zbskr9fYVTDWfa4STh3sgkpA+2UL0IHnsaxYTQqj7QNnma2c/ZTtEOCGeIq22xAY8O3tKvYiq7GgDMkpf8E+kVm1n2c7pVs731ifhTMK5Qva8E7EkL2P3PWxkY/FKu23glz5M2ff8n4JnbT3sfY99rU+RgbBmu6tyCBr3XK7j4aJNLNvzgBEPL019cGlbx6eVU3P5FSGc3symJZZD2959oKXvYwknM4oQTcggxK8knmU7Q4RT5LZ84ZpzAAAOK0lEQVS0YT9KOGVLOxBeLf9LftLLVk7PXZ+EMwnnCtnzTkJLXKZse9jIpmBa223g2/anbnv+T8WUvYe977Gv9SkyUNZsd10OYeM1RPuw3K7ZTGZpdz2uLf9aOdWyj9a3CKdXP0Qwy7ophJOZTbukruVszS5qHx10mVXU7KQ3w+gRTsgkOGVb2DNTiTxKOMHnS+whm94sa/S4HKJeK6fnrk/CmYRzhex5J5ZIy9TSw0Y2FVf228BX23OUnv9z4ILhYe977Gt9igyUNdt9kjPryazhLpFPkUxe9bRPsWz52sqpln203iOU1tarL0nl0P4UwokfEDhmQEUky1lD6nQ/JfqQvBrRKwknWODq/sxaW1HCiR5YwhT5tPE8ydutnJ67PglnEs4VsuedgEl6vvNg0TpjUyOFGft67L3jgSzyqdnuq5yZT0ger1aa4zVG0WV2CCavT4L47sqvHa3jGLZyah1tJubmXhF0EmPdyum565NwJuFMwplPqa/kwBiSWxuwx2B5NjV8Tx4ZKD27Q5OxlM3yO+/ZZBZ0KhEFA3IJHuR23x78mXJ8Wzk1BTttk1huIwdaOT13fRLOJJwrZMNLfI8AjJF52MjGYHk228D3/Bgr8/wfi1Xaedj7HvtanyIDZc32pMiZjYSQtr4niVQOHftWTg3ZZl0Syl3MgVZOz10/O+HcxaCmT3myZw6crByIDJSZEycrJ6Ye71ZOTcVP+8zHTedAK6fnrk/CaWY4N32ws70cYDIH1pMDkYEyY7+e2B9qXFs5daj9zn4d7nnSyum565NwJuE8qCdJc3A83MGx59hGBsoevNTNvGrlVOZI5si+5UArp+euT8KZhDMJZ+bAweVAZKDct4tD+rtdQtPKqTw+2z0+Gf/++Ldyeu76JJxJNg6ObOTA0z/wHFrMIgPlofU5+7PevG/lVMZ/vfHP+M4f31ZOz12fhDMJZxLOzIGDy4HIQJkXsPkvYIcc01ZOHXLfs2+Hea60cnru+kHCOXdjiZcRyAhkBDICGYGMQEYgI3DyIpCE8+Qd8+xxRiAjkBHICGQEMgIZgY1GIAnnRsOdjWUEMgIZgYxARiAjkBE4eRFIwnnyjnn2OCOQEcgIZAQyAhmBjMBGI5CEc6PhzsYyAhmBjEBGICOQEcgInLwIJOE8ecc8e5wRyAhkBDICGYGMQEZgoxFIwrnRcGdjGYGMQEYgI5ARyAhkBE5eBJJwnrxjnj3OCGQEMgIZgYxARiAjsNEIJOHcaLizsYxARiAjkBHICGQEMgInLwJJOE/eMc8eZwQyAhmBjEBGICOQEdhoBJJwbjTc2VhGICOQEcgIZAQyAhmBkxeBJJwn75hnjzMCGYGMQEYgI5ARyAhsNAJJODca7mwsI5ARyAhkBDICGYGMwMmLQBLOk3fMs8cZgYxARiAjkBHICGQENhqBJJwbDXc2lhHICGQEMgIZgYxARuDkRSAJ58k75tnjExKBd73jnYv/+8orFz/9b39q8SuvfOXaer2pdtbWgQR2I/D8888vOLbkzo/+yP+0uPXmW1b0nr5w4ZjOnV+4c0VnGwJ8Jff//WWXLfN/Gz5kmxmBjMDxCCThPB6P3MsIhCPABfn3r7lmeUH771/03y1+8F9+//ICh3wXPhAFyCa+ceEd86FP2Htfkdg52hnjGyRIftFP78OxsHocr3V/Hj59etnm3G2Bq/6qVM5BDOfOO9qzx//D139oJXQQTGIvvV0hnMRex50yPxmBjMD2I5CEc/vHID3Ywwgws8OFjAstFzcu+CJ31O3KB78gJ2PJDzNFIjcQDvYpkTGDpM/UdoTTU1rf8McjXPRb/rO9iWOjWMxNdPBd/QGb/vPlnwn6iGzu/nGMFb8hbOl4x6DnmM6pC/nFL/1jNCd2YmUEMgL9EUjC2R+ztMgILC9iXMzsjI6I2C6Fh4tt6WePf5AM7CHW9oMMYqXP1HaE01Na37w+Uo/fmn1jxq7nw7G1x7fHllwYImg9WFZXOVaSKMV/7Ey2bcNu65+oIfKs41CbZbZ4m9wW8bd5usn2s62MQEbgeASScB6PR+5lBEIREImxMzpceHft4gZRgIxZP0Md/CclzSKWZAIiZgnV1HZ6fJKufNMsHGTMfpDjt0hTTwxE7HbteKqv5Yy1SN+UY21jxzbxAo9vSXCtrmJV+mR1trEtEj72n4Zt+JxtZgQOOQJJOA/56Gbf1hYBkRjKoQsadehAyCAvzEDpwgxhgkBQx0WbCzx12sd5ZuWwgeCqHWyQoYcNZIOLK/tg6iMSgtx+pA8mvg3N/OEPhIM29cFX+YKs1o76jj3+osdH/URG+/YDtvqgPtXIjnyjndJH+QQW/SxjQJvY4QO2+CH/rJxjBgYyPuzLL+LGF2xkbNtjIzz1Dxy1h43iDibt4wdytSU7W8peMbJ1+ifI2rMNNrjECz/LeNbaxxaf+KJDf5Svtn1k6ChO+Gj7Jx/lC7rolPFRfc3XodjTBvbgEgd8UjzUfpYZgYzAdiOQhHO78c/W9zQCXNx0QeMC6hEFLsDUccHnYokO+7rgIxOBYFvEAB2wIV+UsqPkg73alh/SwVYXcrXPxVcf6rAFA3z0hSsdW6Inn8Hjiz2lPl479Ac7StXTPz4QTtsH9vnQF7XFvjBkt1Qyf8DAd+yxs3r0mX36Sx1xth/5BAlTO+jIB2zsVzFUm9SBoeMADraKF/XqF+2qDer5ylfpi2hjx3btI590jK2e6vCDj/pCjGifNtFR2+gMtS+fsWGbvirP2NZHMulr37ajOkrF3tZHfRW2F3v8pJ42dF7ZNuRvlhmBjMB2IpCEcztxz1YPIAJc9HXB1sVeZAGyoQu0iAekBT3pEAJdaNHlQsmHbdnShkeouLBKh4svH/kgMqIZQNseF2Ds9GEbu9pHF3jpqVQb2JXtMHMHpiV5pW/YSaa2RRKIKR/aQEdxkZ5KfJOu4mHtiIvii4/66NjIP8UXDGtfIyvyE30RTR1j+Wxt5YN8tX7QP2Iqe3Q08yk9lcLGpvyoD9Tp2Cgm2ieO1CsWsqm1r35iAxb9kI36p30w0KEt+ck+n0g+tHxVf+UT+jb2pb1Irf5RkH2WGYGMwPYikIRze7HPlg8kAlxgIQq6MNMtXdwtWeIibQmB1RMZ0cWaCzjbfMqLpy7yYIlsSoadPro4i8AIh7YgDyLAtYuyMGmHbeuL2qAs2xGuJbr4Vfadfb58RErYVyyIHXZq27Yp3xRf+aBjwT4fHQfri/yjjjjIVljo4oeImW2XbfXFq1eMbUx13Gmr/KhtMMHz+iob7PFLZE9yStWJ5Hl+qC3rh2Re+7TFF0zlotpR/9QO9tKRTMdR8bbHQDHERvrCpD/yy/qKXHY29p692qQuPxmBjMBuRCAJ524ch/RijyIgwmZdFgHigshHJEMXYV2oRQhkCxYXdV1YPbJTXjyFxUVZH8l0kUeOL/KHfV3EkeEH+yJZwrGlSKD1mX6KwEq3bAd92ydiIOIiG0pk8g9f1E/1C5yaf/JNcUMPPIiIbVuY0qNd2kSHr+JgyZBsPLJS64v6VdqWeSE9W+K7Yqa+23ptq4/2GKsOO/qjfpR5pXihU3689tVPYqUcxq7sn/bB0Ecy+aK+6RgIGzmfqK+lndor7dHTMba+Sz/LjEBGYDsRSMK5nbhnq3scAS7a9gJLV0T4uNjyQUdkijpdAFWv7utirH1drC2pk61mv0Q8rA8iHLITwbAERjjSUZu1UuTXYpS6Q+3oYu/5Cw4xgpjTDr6JnCHDxpvJU/vyTW0o/mBaQibir9ihb4+N8GwpG2HbOrVrZ9hsfWk71B4+y1f8IwZ8ax/lhj3u6Cq+9jgpr8DlGGnf6tA2PvAp21c/a/mqeJb9FY7IJNjKO8VT/qof8m3IV3DkUxl7a08b2rc+LDuZfzICGYGtRiAJ51bDn43vWwS4KEJYuJhxweTLRZmLKjJdiHWR5QIvXZEhLpx8REYsCUAXPX1EpISBXMQDO2bhtG8vxLo4o6MLO9tgS4YduB4BRaaZI7UjwiDfKL12ZIc/+E8swCg/+MKXehEf7SPz/ALD+kb/ibmOC/b4yT514PDVbCVy9tGj/8QGf5FRx8fWo8NXH7axFZ7klNYHcIWnY0o7ao+4KXZgadseQ4tNfETu0JGNPaZqDzu1ST39ET77bEsHn8DCL/ql9r1+Kl/xAwzbX+HIRx1P2qFO2F4+RHwFx/NJ/QC/7Cu46it6+ckIZAS2G4EknNuNf7a+ZxHgIssFVBdJLuZc6CzBoEtcxNHhIokNF1ouirpYSwcZtnzQE95S8E8zp8jAol0+uqiDjZyvMGRH+9YObAiDLv5gYF8jdWoD//S1JGKoHcVI7Ze+yRa/wbakQDL8r31K30SE6Y/aAlN+U4KrD/0AQ7GGZAkDHerR52sJGnVqmz6WH2TWTpjEGBz8UK5Qp3bkn3z3cG1ftE1bHE8vVsKmnrb40l/8Vzv4ggw8K6/1k37omBJrMGVHO4onbdtPKx8ivtZ8Qi57+oOP9jjgZ34yAhmB3YhAEs7dOA7pRUYgHAEIAhf3/GQEMgIZgYxARmBfIpCEc1+OVPqZETBPczObk5+MQEYgI5ARyAjsSwSScO7LkUo/MwLmnknda5dByQhkBDICGYGMwD5EIAnnPhyl9DEj8E8RgGiypF7eJ5cByghkBDICGYGMwC5HIAnnLh+d9C0jkBHICGQEMgIZgYzAAUQgCecBHMTsQkYgI5ARyAhkBDICGYFdjkASzl0+OulbRiAjkBHICGQEMgIZgQOIQBLOAziI2YWMQEYgI5ARyAhkBDICuxyBJJy7fHTSt4xARiAjkBHICGQEMgIHEIH/Hwz6aRcxDvuLAAAAAElFTkSuQmCC;" vertex="1" parent="1">
          <mxGeometry x="358.83" y="380" width="412.33" height="150" as="geometry" />
        </mxCell>
        <mxCell id="SoOD0umvgKuOXdiHO2RA-25" value="SFM" style="text;html=1;align=center;verticalAlign=middle;whiteSpace=wrap;rounded=0;fillColor=#ffffff;" vertex="1" parent="1">
          <mxGeometry x="358.83" y="374" width="40" height="20" as="geometry" />
        </mxCell>
        <mxCell id="SoOD0umvgKuOXdiHO2RA-26" value="" style="whiteSpace=wrap;html=1;fillColor=none;" vertex="1" parent="1">
          <mxGeometry x="190" y="970" width="630" height="680" as="geometry" />
        </mxCell>
        <mxCell id="SoOD0umvgKuOXdiHO2RA-27" value="" style="rounded=0;whiteSpace=wrap;html=1;fillColor=#f5f5f5;strokeColor=#666666;fontColor=#333333;" vertex="1" parent="1">
          <mxGeometry x="190" y="1030" width="630" height="550" as="geometry" />
        </mxCell>
        <mxCell id="SoOD0umvgKuOXdiHO2RA-28" value="" style="rounded=0;whiteSpace=wrap;html=1;fillColor=none;" vertex="1" parent="1">
          <mxGeometry x="190" y="1030" width="120" height="550" as="geometry" />
        </mxCell>
        <mxCell id="SoOD0umvgKuOXdiHO2RA-29" value="" style="rounded=0;whiteSpace=wrap;html=1;fillColor=#dae8fc;strokeColor=#6c8ebf;" vertex="1" parent="1">
          <mxGeometry x="190" y="1580" width="630" height="70" as="geometry" />
        </mxCell>
        <mxCell id="SoOD0umvgKuOXdiHO2RA-30" value="&lt;font color=&quot;#ffffff&quot; style=&quot;font-size: 24px&quot;&gt;&amp;nbsp; &amp;nbsp; SFM&lt;/font&gt;" style="rounded=0;whiteSpace=wrap;html=1;fillColor=#dae8fc;strokeColor=#6c8ebf;align=left;" vertex="1" parent="1">
          <mxGeometry x="190" y="970" width="630" height="60" as="geometry" />
        </mxCell>
        <mxCell id="SoOD0umvgKuOXdiHO2RA-31" value="" style="rounded=0;whiteSpace=wrap;html=1;" vertex="1" parent="1">
          <mxGeometry x="320" y="1040" width="490" height="530" as="geometry" />
        </mxCell>
        <mxCell id="SoOD0umvgKuOXdiHO2RA-32" value="Project" style="html=1;shadow=0;dashed=0;shape=mxgraph.bootstrap.rrect;rSize=5;strokeColor=none;strokeWidth=1;fillColor=#006AC9;fontColor=#ffffff;whiteSpace=wrap;align=left;verticalAlign=middle;fontStyle=0;fontSize=14;spacingLeft=10;rounded=0;" vertex="1" parent="1">
          <mxGeometry x="200" y="1050" width="80" height="40" as="geometry" />
        </mxCell>
        <mxCell id="SoOD0umvgKuOXdiHO2RA-33" value="" style="shape=triangle;direction=south;fillColor=#ffffff;strokeColor=none;perimeter=none;" vertex="1" parent="SoOD0umvgKuOXdiHO2RA-32">
          <mxGeometry x="1" y="0.5" width="10" height="5" relative="1" as="geometry">
            <mxPoint x="-17" y="-2.5" as="offset" />
          </mxGeometry>
        </mxCell>
        <mxCell id="SoOD0umvgKuOXdiHO2RA-34" value="" style="html=1;shadow=0;dashed=0;shape=mxgraph.bootstrap.rrect;rSize=5;fillColor=#ffffff;rounded=0;strokeColor=none;" vertex="1" parent="1">
          <mxGeometry x="200" y="1093" width="90" height="107" as="geometry" />
        </mxCell>
        <mxCell id="SoOD0umvgKuOXdiHO2RA-35" value="All" style="fillColor=#f5f5f5;align=left;spacing=20;fontSize=14;strokeColor=#666666;fontColor=#333333;" vertex="1" parent="SoOD0umvgKuOXdiHO2RA-34">
          <mxGeometry width="90" height="30" relative="1" as="geometry">
            <mxPoint y="10" as="offset" />
          </mxGeometry>
        </mxCell>
        <mxCell id="SoOD0umvgKuOXdiHO2RA-36" value="SFM" style="align=left;spacing=20;fontSize=14;strokeColor=none;" vertex="1" parent="SoOD0umvgKuOXdiHO2RA-34">
          <mxGeometry width="90" height="30" relative="1" as="geometry">
            <mxPoint y="40" as="offset" />
          </mxGeometry>
        </mxCell>
        <mxCell id="SoOD0umvgKuOXdiHO2RA-37" value="MEC" style="fillColor=none;strokeColor=none;align=left;spacing=20;fontSize=14;" vertex="1" parent="SoOD0umvgKuOXdiHO2RA-34">
          <mxGeometry width="170" height="30" relative="1" as="geometry">
            <mxPoint y="70" as="offset" />
          </mxGeometry>
        </mxCell>
        <mxCell id="SoOD0umvgKuOXdiHO2RA-38" value="" style="shape=line;strokeColor=#999999;perimeter=none;resizeWidth=1;" vertex="1" parent="SoOD0umvgKuOXdiHO2RA-34">
          <mxGeometry width="90" height="10" relative="1" as="geometry">
            <mxPoint y="100" as="offset" />
          </mxGeometry>
        </mxCell>
        <mxCell id="SoOD0umvgKuOXdiHO2RA-24" value="" style="shape=image;verticalLabelPosition=bottom;labelBackgroundColor=#ffffff;verticalAlign=top;aspect=fixed;imageAspect=0;image=data:image/png,iVBORw0KGgoAAAANSUhEUgAAApQAAAHCCAYAAABR8FlLAAAgAElEQVR4Aey9+68tV3Xn238JSPwcWulf86B/Jk33lbojBRFFypUaC5JOqxVs02l18zCRmlfSdrgYB3ExhhBosKEv2CbY2IAdbB+DfY7fxz7Gj2MfP3mTzr2RWlpXn9X5bo89z6iao2q99tr7u6S1Z9WYY4w55rdGzfruOatq/ZOFP0bACBgBI2AEjIARMAJGYAUE/skKtjY1AkbACBgBI2AEjIARMAILE0ongREwAkbACBgBI2AEjMBKCJhQrgSfjY2AETACRsAIGAEjYARMKJ0DRsAIGAEjYASMgBEwAishYEK5Enw2NgJGwAgYASNgBIyAETChdA4YASNgBIyAETACRsAIrISACeVK8NnYCBgBI2AEjIARMAJGwITSOWAEjIARMAJGwAgYASOwEgImlCvBZ2MjYASMgBEwAkbACBgBE0rngBEwAkbACBgBI2AEjMBKCEwilP/sjf908YbXvX5xzdVXX9Tov/oXb1nWfei/fvCiukyAD3z9u3f+QVZtmREwAkbACBgBI2AEjMCeIGBCuScHymEaASNgBIyAETACRuCoImBCeVSPjOMyAkbACBgBI2AEjMCeILAxQqkl8Lg8riXzhx58cLlsriVvlsnZHlpO3xMsHaYRMAJGwAgYASNgBE4kArMIpchfVuoeyiqhFMmMviIJPZFHxZ02AkbACBgBI2AEjMAeIbBzQgnxPP/ss0vIfu9tv7ucpaT0xwgYASNgBIyAETACRmA/EJhFKLMZRM1ITp2hjE95f+Hzn18SSmYt/TECRsAIGAEjYASMgBHYDwSOJKH857/xm/uBnqM0AkbACBgBI2AEjIARWGyMUGr5+j/9xz9ZwnzTjTcudL9kfCiHmU19NMspG8ldGgEjYASMgBEwAkbACBxdBDZGKPXi8viwjbYjoZQsln97551HFzFHZgSMgBEwAkbACBgBI3AIgY0RSlrh/kgRRQim9iOh5J5LzWay1M1Mpj9GwAgYASNgBIyAETAC+4PAJEK5P91ypEbACBgBI2AEjIARMALbQsCEcltIux0jYASMgBEwAkbACBxTBEwoj+mBdbeMgBEwAkbACBgBI7AtBEwot4W02zECRsAIGAEjYASMwDFFwITymB5Yd8sIGAEjYASMgBEwAttCwIRyW0i7na0hwHtMeZPAKh/s9atPq/ixrREwAkbACBiBk4DAsSKUvKLIrx06CWk73EeOP6+f+tnPfjasVKjBnhfx63fmCyZWMQJGwAgYASNwYhGYRCiZsdF7JVX2ftWGX7/ZBsnjwk9M2cwU5IA4FTPl3NmnbfWnmpFgG/vF9tSfrgSLuXhU45Re+8L7mD+xDpwjKeRl9/RL/cuOM21gx2/C88mOO+9CjX7RU163PmlPvpYO/ccIGAEjYASMgBFIEZhEKLkY861+uHBDALYxywPhoK2WLLAPMYBoiDBQQmSmxrXN/lQxhoQxk7bKJ5KwVfxUbDkW2S8hqR8cGx0zkU1kHFuRO3IQP+0Hv2CBvXy0x5392L7+EcGOGOKH9rdFtGO73jYCRsAIGAEjsG8ITCKUXIzbiy4d5qKrCzwXfy7Ot/zNNw9mlCADIgfYs8+XX8jho2VKdJCzr7aki1998EF7qoMUaKZOOirxqdgkUykyId/4FTmDvLBNG8Ry/vz5Q22qP5rdQk/9wT82woU64tMvAlGnD+2oL5TEJOIqrLBVO4pV9shju5KjRzu0TT9EotCHkFHHl210+AonStrmgx/qKMeOS2wPfbWneCiRqS1KtUEdMcZ9toUTMfLVR37AKX7UN2Rjxz3aoMc3w1F1Ud/bRsAIGAEjYASMwMUITCKUIlgiBSIAXNhFCCAjEA8+IktqFn30IB8iKhAo5JFgaF9EKRIc+YBUtD5EiNQepeKKMm2LmGgfUiESg51mxGiTz1h/IgboYk889E+kDT8xZm2rHbUpufqv+LJSvnVMiJ9YaBtCxEeYsS19+s5HpJpSH3ypnmPJPj7xw7bi0nFp26MNtS2flPSLLx/5ol31V3Wq1/Fsj6GOW4wZG9rFL5/WZils/sS+x35KzYRSSLg0AkbACBgBIzCOQJlQQhoi0WjdiiBAyvRBJvKBDLLDlws1pXQpRR7Qa/fRxZdiEGEVCZBNbEsxELMIm2QqW4IIIeHLhxJ/LcmJbSgu+aOOvilOtStf6IkMoaN+YiMd5OpXS5jUTizbGKjDHkKlj9rEH/q0p4/qtB9JFjJwly/FK121rXjxyxd5xE36bal8Ugz0XR/aEtbo0YY+ak/7KskhYd4ed/wh4ytcFS/2OmaxHY4J/ffHCBgBI2AEjIARGEegTCg1i6SLcesWEgHxiGQlXrDR52LORbr1gYwLvj7tPn4hCi2RwL+IKDaxbfnCNvqWnDISXghFq0uc9Ev2WX8gQ/oQCz6FlQiSiBd69IN2+ECYqIs+kOMDeeUjbKJu7Bfy2Cb6kTRRJwzRFbmTP8XI/tBxoT31XXa9MmKkNoUXthEz8ibGzPEQ2YztEAP94dMeS2RqJ26LZKrUsUYHf7FdZP4YASNgBIyAETACFyNQJpQtmYuudIHXBVuEkYs+dZqtihd5dHXxjuQBv3FfM0foKwb8iySJWESbNjbIgogGttjgi/ax44MMPRFC6UOi+Eon9gfCoT5gR/+IF99s68O2/KGnNvGrbeKCsFLiU23KR1ZGbGK9sMEXX5E96et4YKN40FPs4MA2dWwrloixfHFc1Hd88CF+5PFDnfqHLb7kl30wwg8f9NiXP46NjjN9IyYwbj/4jDijp335BQs+0af8ELeOB/ETA7H5YwSMgBEwAkbACIwjUCaUIhdcpPWFECDnIq0LLxdqEQUu0OhykaZeF2lk2Ih0cOGOBIF9EQHNZIlc4At72okzhtGm7TJ6iplSxEW+JSMm4qBt/CGnPbU91h/0RNTwzz4f+o0f9ZVYhA9+1R/FgA31tKWP2pV/yRW/4pOcEnzwyVe+pK9jhR79RYf+Uk8dOCAjDuKVfcRYvtR2bE/9i/GgP6YD5oo3YokPbBVTjCH6ZzvmA/ttzuKXdtRn/MaP5PSp9RX1vG0EjIARMAJGwAgcRqBMKA+bec8IHD0EIIsi8qtEB6GEuIosr+LLtkbACBgBI2AETgICJpQn4SifkD4yu8osaJyBndN1ZjY1iz3H3jZGwAgYASNgBE4aAiaUJ+2Iu79GwAgYASNgBIyAEVgzAiaUawbU7oyAETACRsAIGAEjcNIQMKE8aUfc/TUCRsAIGAEjYASMwJoRMKFcM6B2ZwSMgBEwAkbACBiBk4aACeVJO+LurxEwAkbACBgBI2AE1oyACeWaAbU7I2AEjIARMAJGwAicNARMKE/aEXd/jYARMAJGwAgYASOwZgRMKNcMqN0ZASNgBIyAETACRuCkIWBCedKOuPtrBIyAETACRsAIGIE1I2BCuWZA7c4IGAEjYASMgBEwAicNgTKh/OUv/27hrzFwDjgH9i0HKoP6vvXJ8e72POzllI/Pbo+P8Z+Ofy+nK/UmlCbK/kfBOXCsc6AyEPoCNP0CdJIx6+XUScbGfd/Pc6mX05V6E0qTiWNNJjy47efgts7jVhkI19mefR3/nOvllHPg+OfAcTvGvZyu1JtQmlCaUDoHjnUOVAbC43ZxcH82S2h6OWX8N4u/8V0/vr2crtSbUJpMHGsy4YFn/QPPvmFaGQj3rU+Od7d53cspH5/dHh/jPx3/Xk5X6k0oTShNKJ0DxzoHKgOhL0DTL0AnGbNeTp1kbNz3/TyXejldqTehNJk41mTCg9t+Dm7rPG6VgXCd7dnX8c+5Xk45B45/Dhy3Y9zL6Uq9CaUJpQmlc+BY50BlIDxuFwf3Z7OEppdTxn+z+Bvf9ePby+lKvQmlycSxJhMeeNY/8OwbppWBcN/65Hh3m9e9nJp7fM6ff25x27duW37ZnuvHdrvNj33Ev5fTlXoTyj0ilAw0l1162aHv448/sXj11R8tPnDFBw7JP/WpT40ORm95828t3vC61x/6Xvvpaxdv+523Lqhb5wnxp++/4lA7v/orb1xcdeVVB21cuPDCopVNbf+G629YtnHrLbcu8EffYhtT/aH/jrdfsnjTr/36QZxzfNhm9wN7ZSDc1nH62te+fnAuPPjgQwfbnNuX/Nu3L/ev/G9XdnNO+R7PYXKV/EdG/Tr6xJiAP8roj3Mrk0tnlXGE8YK+cB7L31Erezk1Nd4zZx5Y/Pa//jdLTOMxJRcY38f8DY3lOkbrwvHyd116UXzEqmO16hg+1MezZ59Y3HjTzQcYvPLKq4vL3/0ny++Qza7kxPa5z33+INZdxTGn3V5OV+pNKPeIUEImuSAx+PBl+4tf+OJyOw5C2h5LKk5+CFOrw+CQyVu9Kfv4oz3ZaKAT4XvssbNdQokuFyn5aEtd+Lignrrn1HLgk/9Wd2gf2xinCeXuyeDQsZoirwyEU/ytogs5eNNv/OYyPzl3IQycr5AJSCX7bPdmp3QOkesxHp0HrTzqTNnm3CQ+SF60Y5wY+8dzlXEE4iKSQpuck5ybsf1db/dyakp8+ieDvCAn+DIhoH8wKMf8DY3l4BjHszEfU+r0z0z8p6Uyhk9pI+peddXHDpE0yCWE8o/+/X9YPPvs+VFsop9tbEN+iev0mQeOVFyVvvdyulJvQrlnhBIiqeRgew6h1AweA458qWQAai8eqptbcuHhAhHtIYetLNa32+hn8bZ67M+dpeEiPSWmrG3Ljh4JrQyE2zxunLOQNAhEO0sJmYRM9GYpNevPhTzGLqK5rlkpfDMmxH/mdH6N/cO2rnFEbbX9jH3exXYvp6oxscJELkAaNRPJPjnCvkgl+5nPsbGcYzZG+jN/FZlybBsk/66777mIOL73fVcsCSbE7bbbv53iUunHpnSIL86obqqddfvt5XSl3oTyBBJKzeC1xFGDky4U6DEgMcBRMqi3MyAQMF1s9J9rOzvSXpA4EXRBRFd2DFDEgD/axI462mBfMuyRESe6fPGHPnWKkXpk2Om/afY1A6uLFfqQVbURS/Utxky9MAIT7Qsr1WHj7+4xqAyE2zxO7SwlKw/kEGQS4sDtK5DNsVlKchibljjG82AoZzl3dA7oXBE5IIdVJ0w4B3RuIaNe++0YQTyVcUS+NQ7QF7aREwNtKjbq+H7gH2+d0flFO8RR/UdTba6j7OVUtQ39cwGxlA19FYEkV8gL8kH1sQT/iF2sE47IwApM0QUzxsM4dqEDjjquwlZYR786ZpHkxzFcx016xEF+aRzXWIxP6RBX1hazk5/85Gu3b4lgMhMoYokfttFVnB/80IcXfNmHdGpGU74kkz9mFJntxAdEla+WriGHkqlElxhoAxkly920x7ZsFc8+lL2crtSbUO7RRX/oHkouPO29lWP3UIpItSewBicGBA0oGuR1EZIOg4L8UMcJw4DE4NGePAxS7UVKAwn+iIMBhW3k8qE41GaMF598GSSJJV7k5A8/9IP40GM7Dr5xECTmNk71mTriYp9BVP6JK2JAHe3gp8XA+7sjlpWBcNvHR0vdEIVTp+5d5iW5+Y2bv7EkD9SPncNDecZ5oPNxKGfR0TmGH9rlXBPBiBd8cFG+Ux/HhbiNHnmPrs5Xnb/IiQWd9pyiDr/Y8JUfjRfxvJY9MbNNW9gTB/vb/PZyqhoL4zaEMepzPEQokWekU/oaf8BCMpVgI7LN8RZuMUfisWGbtjkeHLshbPGJXsRdOcIx1DZ6io/jjn57/NmnPR1LxU4JQYOsxVlICJ+IY9yGwEEasdOyM2RRhJES0og/SpFEbK6//ivLtiClEE61i1z22MRtdGRLm2xrVhJCyTf2ZR+2ezldqTeh3PJAdBQSi8GCASF+kUWC1Z7gGtgZFLBDn4sEg44GHgYH7GIfGSzQ1wVFdewjp17b+GbQww/+patBSRc6xaCLInpsa1/+sKNOsSsWxUhJDAyC8hnjpF/aZ1t26GPHvjBTndpS7C63e6HP8K4MhJndJmXcrkIO8WUbYsk2s5OQSe6ra4lGjIdzRPaU7FPPOSDiMJSz5DT65Dw60iOH5Se2Fc8/dGgvkgD86JyrjiP4p12dX2qvPQ/pi85rdCAp2KFHrK29/Gy67OVUr30tdcdjePdddy+PIbmQEcp4u5P8g3f0wTYy4cjx0vHTeKhjyDgGtmDKOAau2KPHOMZX7cSSY4JulOn4x1wgR9Q2baLPMWvzk7aRtbknAgdBxFZEUQQTAicSiQyyyMwhRBByiI1IJ3LIYtRhmzbQo0426FKHfxFPZO02bUMsaQ99xWVC2Ts7Fosl6ADv7+4wYMaiHTwYhLLBaexGbg0oGmB0TCVnoGlPcAYXnfCU6KrUIKaBXv4oI/mK8uhfFwnqRdDwqYFHgya+hnwSiwbAGCv6+GHg1OCGP+RxEGzJZtxv7dQn/Agz9NWWcGLf391jUBjetn6cNEMJaeQc1nnNbCUyiGUkFW0eca7p/Ih1yMn/sZwlb9Ejd0UoOAfxlxG0eC7E8wx9xa2xgFh0ToyNI4qP8z3GH9tCHttjX2MBcWbjTfS1ye1eTlXaZsVJ+LEtG8ZzckDL4LolQvWxFNbgGeUao6iXjsaouK/jTs6AKXgrP9pjI//kDF/tU8YxPI6/Ol6Kj2OGro6/+o+N4pNfEUpIGzIRN8hb/DJ7qNlHbCCGkL9lXP/48A76kMuMQEpPy9TRF21DELGHQGrJHF+KIbaHL/SJle19+vZyulLvGco9OugaWHQSUnLRibMdsW4omUWk2hNYcv7LbAeNOLCLoCFDl0GC7ewCJ4LIwKJ44mCHTP5ULxl9wX8cAKmTTw1SyIiB+NkmdsWi+KhrBzf0sMNGA5ziVIy0pfYo0ZUfdPArH9QN4UCdv7vBoDIQbvPYcIuKzlPdxsI+5zfnM/84MkulhzTa2Mhp9LkwxzrJycmxnFWuk/8iHOQtPuM5FX1TLx2dB+0YIX3axxfxtDr4gDy08clWsakNzq3YTxFO5PiR3bbLXk5V4+H4Z/84QCb5p0P/bPAPRuZTWLdjecRXOhwPfIAnx4Ftjr/GQcYzxk3q4pjWtkudxlfVxTEcf6qPY7fyE1mMTz7asiWUcVkZ3XbGknrInGYOIYOQvozcoQcpxE+rB7HETjOjigsyKaKKPV/VxbKNM9Yd5e1eTlfqTSj36EK/LkLJQJwNGAw0kjMIsc0goEGBAYcTAr14QdOFRmQsnjSy1QWCgS8OOOhiHwcgZLSvQa8dEOVT8egigxxb4qYNttUn+qFBjIuWfEhPdYpT++hii0/iYBsbXcxaLNGjTdr292hgUBkIt3ms4uxk/GdQs5MQyrH7J8l7zj/lu2KP58FYzkoPH2zrHySdb/IXS53zOl+oi2ME7XEOE5vOuVZH5xw6ik/nCiXnnGLReUeMtBNj0Xij8z/WbWu7l1NT4xCBJB/0hWjSf/65GHpAqx1/1K5wBCONZZTsM0Ypd6SnY6/jrOMifyo5bsTU1mOvMRz/Gh/j2E3b2NK2jr+OLXHIRm1FQqnl5pbkQd40s6hZw0ggI/HDFh0IJHaabaQ97bO0zTaEMi5zx9lI9GkDPXzxxS/+NbvZxqk+HeWyl9OVehPKPbrwTyGUDEJDyctFQQNI1GFAiBcM9pcD2q/9+nJQkq4uDAz6yNBjEFF9LDWg4EdfDSLSEwljwNHFgjjYR4eLHjoajNQ+gxL1xEEdgxL76GKPDH/yQ53kDF58NQjiK9apDdrGjsFYMcSBL2KmC3XbP+z93R0GlYFwW8cnzk5CGHROU3LfJDNRYwRCuRjzXbHrPCBXpZflLHXIlfuyI+flqy11PkQdzhl8EAtf1cVzAj/S4VxUbMhFZrBFB39qR+edCE4crzhP4znYxrqN/V5OTY1B/2QIS5Vx6TvzCRYRG+kIR42R2o/HCd322EsPuXzFcmiMI59EMtnWGMhxYh8fHHvaVw60xz+O0+hDyiBykLRIDGM8LDfr3seMdOKDevxQ6j5HyGAknrKlHZFFEVrZxPs0RSJFNDVzCUnVzGeMcx+2ezldqTeh3KOLPf/FchGKXy2L6SXnqtP9N/uQyI5xd2TrJGBfGQi3hQNLmJBHvufOPXmwzawUpAI55/C24tm3dkRKWvKx7X70cmpOPOQAx173z5IrGt/n+DsONpBAkbVt90cEUrONEMWhZW5iEwHWfZrbjnfV9no5Xak3odwjQrlqwtjexO0k5kBlIDyJuOxjn5mR47vr2Hs5tev4jkv7zBZqhnAXfWLGUbOQEEqWwYfiIE4tvw/pHGV5L6cr9SaUJpSDJ8hRTn7HZnJczYHKQFj1ZT3nHTnQ+zhPnCf7lgO9nK7Um1CaUJpQOgeOdQ5UBsJ9G/wd724JSy+nfHx2e3yM/3T8ezldqTehNJk41mTCA8v0geW4YVYZCI9bn92fzeZ9L6eM/2bxN77rx7eX05V6E0oTShNK58CxzoHKQOgL1PovUMcZ015OHee+u2/H81zp5XSl3oTSZOJYkwkPfsdz8JtyXCsD4RR/1nVO9XLKOeIc2bcc6OV0pd6E0oTShNI5cKxzoDIQ7tvg73h3S1h6OeXjs9vjY/yn49/L6Uq9CaXJxLEmEx5Ypg8sxw2zykB43Prs/mw273s5Zfw3i7/xXT++vZyu1JtQmlCaUDoHjnUOVAZCX6DWf4E6zpj2cuo49919O57nSi+nK/UbJZRv/uq9i3V8swReh198ZL6R7bP/dcU+hM+6/Bv78fMjw8fY/2/MMmyGZJWBcMj2uMp/8YtfLn76058tfvKTny5/jYVfZOH74osvL+55/NnFp+95bPHe2x88+H78rkcXXzp9bvm98aGnFmeeeXFx9vmXB8fP44qb+tXLKem5PJ7k6zge115OV+pNKAdmp/b5wr2u2PGTnTjr8p/5RrbP/tcVu7GfTraH8qkyEA7ZHgf5z37288WPf/yTBb8//MILLy3On39+8PtX9z526Pz7vZvuX3z4rrMLyqHcvuTm+5fEE8J595PPL17+8c/SceM4YKk+9HJKei5NKPclB3o5Xak3oTShHLxQmNRMJzVDF9058mwgmuMns8l8I8t058h25T9rtzIQZnb7Kvv5z3+xJJDMNj733IVB8tgSy+89+tTB8YdA/s0TLyxe/MXfHyqruQDJvPbU2SXBZDZ0X7EciruXU0N2lptgHtUc6OV0pd6E0oTy4CKSXSyy5M/05sgy38jm+MpsduE/i2OuLIt/rq/WLvO979gP9akyEA7Z7oscEvmjH/14ceHCi2UC2RLKD37nwYNz74ZHnlvCBqn8z995ZPGD53+03Ge2ss2lyv6H73h4cftjzy5e+cnPjwW57OXUvuSN4zTBVQ70crpSb0JpQjl6gVCyxbJyAanoRJ9xu2Jb0Yk+43bFtqITfWq7YlfVkc9YVm17etFn3O7ZVeujz7hdte/pRZ+97cpA2PNxFOuZ+WMpexUSGUnlf7ntgYOxACKpz0///h8Wnz3z9HKmci6h1PF869d+sOB+zNPPvLDXxFLYDJVHMV8ck8njWA4M5fIUuQmlCeXBRUSDfiyzBIz1q2xnvpGt4jPa7sJ/bH/V7Sz+VX3KPvO979gP9akyIA7ZHkU5s5HcDzllOTsSx6HtIUL51I9/uTwnIZmrEkrlHyXL4rc99sxiH5fEezl1FPPGMZlQjuVAL6cr9SaUJpSjBC5LwHhRWGU7841sFZ/Rdhf+Y/urbmfxr+pT9pnvfcd+qE+VgXDI9ijJIZIvvfTK7CXtISIpeXwg549ufWDBzCQf7qNkyZt95MqhdZXMWvJAzz4th/dy6ijljWMxkazkQC+nK/UmlCaUoxeILBHXdSHJfCPbZ//rih0/GT7r8p/53nfsh/pUGQiHbI+CfNNEUoTy3NPnF3/8zdOHzj+WupmhpFxX7g35EbHchxnLXk4dhbxxDCaSU3Kgl9OVehNKE8rRC0WWkEMXhKnyzDeyqX6G9HfhfyiWOfIs/jl+MpvM975jP9SnykA4ZLtLOcSKd0OK8G2jhFT+xZ0Pr+0czHKvJ2Mp/K5zz6X/UO3yeMS2ezkVdb1tYrcPOdDL6Uq9CaUJ5ejFIzsReheEan3mG1nVvqe3C/+9mKbUZ/FPsR/TzXzvO/ZDfaoMhEO2u5LzwvHnn39hY2SS+y95JyX3YkJaebiHF53HLy8vb7+81JzlaR6s4cXnYzm2ah3+n335R0eSWPZyald543ZNXufmQC+nK/UmlCaUoxeFLDlXvVDIPvONTPWrlrvwv2rM0T6LP9avsp353nfsh/pUGQiHbLctZ1aS90euezYS8ghxhDCue0n5/Cs/Xr5v8jP3Pr541y1n1nb+kt9aBt/2cei118upnr3rTfyOWg70crpSb0JpQjl6AciSfhUiE20z38iizirbu/C/SrytbRZ/qzN3P/O979gP9akyEA7ZblPOrOS6ntxmdpMHePC5zT7QFg/X8M5J3j05Nz9bu/fc9sCRmq3s5dS2MXd7Jqir5kAvpyv1JpQmlKODfpak7WA/dz/zjWyuv9ZuF/7bGFbZz+JfxV+0zXzvO/ZDfaoMhEO225AzY7iOp7cho3NIJA/9aKmbl6M///yFxW233b748pevP/jefvu3F2fOPLD8MtNZxUXkch3L48xWfu+J8+W2qzHO0evl1ByftjEp3GUO9HK6Um9CaUI5SuCyBI/EZJXtzDeyVXxG2134j+2vup3Fv6pP2We+9x37oT5VBsIh203LIXOrvpic2UiIYG8pm3pmLCGELKtn92jefPPfLH73d39v8S//5f+x/F5zzV8ufvCD+xa///v/54FMde973xWLq6++ZnHTTTcviWYPK5bGWRaHGCoP55T8pGOvr71YVq3v5dSq/m1vcrntHOjldKXehNKEcnRwz5J6zkUgs8l8I8t058h24X9OnEM2WfxDulPlme99x36oT5WBcMh2k3JmBVdZ4oYQ8jDNWIw/+9nPl/f1yMYAACAASURBVA/eVEjrffedPiCNH/3oRxfvec97l2TyqaeeXnzzm99c7iMXoczK97//A0uCef788FPazFryYM8qxJJ7NXf53speTo0dE9eZLB7FHOjldKXehNKEcpTAZYk/lbwM6We+kQ3pT5Xvwv/UGMf0s/jH9KfUZb73HfuhPlUGwiHbTckhgnMfvOkRSZHIbAZyrM2PfezjB2SRGckXX3xxAZlkhpLypz/96ZJUZkQyk1122btHyeWqxJJ3Zj5+4ZVRQr2p49fLqVXbvfy7jxwaB//s3nOD/fz9v5n/INRfPfTMoN9V+2D7/SLOvZyu1JtQmlAeGrhaUpINCq3O3P3MN7K5/lq7XfhvY1hlP4t/FX/RNvO979gP9akyEA7ZbkLO8vQYsRuqYzZz7P5FSGplJnLI/6WXXn5AKJmdhFDyYXaSD/vIM/LYk7E0zj2YGZ4shfMaopif1W1mOc8+/3LqN2trXbIlICN/5rbz0k9+vvjD2y5+HZMJ5X6Rs7nHf5d2I+lcrjKhNKEcHcizBK8O9j29zDeynl21fhf+q7FV9LL4K3YVncz3vmM/1KfKaDhku2753IdveO0P91u28XAvISRz6mxkRiojofzc5/5qOSMJdiKUzFJyT2WPPI7Vc9/l6dNnLuoH/eKdl7zUvJK/UQdS+ej5l1KfLV7r2u/l1Jx2nnzlJ4uh2UYTShPKOTk1xaaX05V6E0oTytEBPEvIOJivsp35RraKz2i7C/+x/VW3s/hX9Sn7zPe+Yz/Up8pAOGS7TvkcMsmsJDOaWRzMSK5yD2ZLKuOSN6TwkUceXUInQsn+GFmcUgexzGYsWQbnwR3labXcNqns5VR2vMZkD1z40eK3b7xvsN9jhJK6Kk6t3i1PvpDm1lisrjue5LaX05V6E0oTytHBKBs82kFp7n7mG9lcf63dLvy3Mayyn8W/ir9om/ned+yH+lQZCIds1yWfQyZZvs5mJXmYZx0zki2hfPjhRw+e8ObhG+6dZKaSZW6+d9555+wl7yGy+ZGP/Nkie4Dnnh9emPzQzjZJZS+npuTNXc++3B3zxghlta1rTj91qB1mQ6u21jueJDIe115OV+pNKE0oDw0ykXSwHRNO263O3H35a8u5/lq71q/2W725+/IXy7m+MrvoV9uZ3hyZ/LXlHF+ZTetX+5nuHJn8VcrKQFjxM1dnzj2TENC2PZa3N/ErOpFY8qT3O97xB2ubiRwiklHOa4puvPGmi/rLbOXUX96BVG7jQZ1eTrXHbmj/q2efGx1/dW6sSigz0krbQ3FZfvwJZHuMezldqTehNKEcHdDapGNfg9yqZeZ73/2vikm0z/CJ9atsZ773HfuhPlUGwiHbVeVznubGpm13nb+iEwkk29yfqZ9m5H5Mvvfdd/+S5MWXm1933WcXvBbone/8w40QTpbBs9nKqQ/sQCo3/RvgvZxqj9/Qfvs0N+c0M4nt8veqhLJtx7OTJ48wDuWg5L2crtSbUJpQjhJEJVssVyEy0Tb6jNtRZ5Xt6DNur+Iz2kaf2o71q27LZyxX9Sn76DNuq37VMvqM26v6lX302duuDIQ9H3PqeX1PS97G9rkfkuXstq1XXnl1kp+xNlgqZ/YT0kp8bVtT9rkHkpeaf/Sjf36wVB5nHudsM1t59933XBQX763Usa+Uf3zL6Y2+p7KXU1Uceao7PoijWcO2j6sQymx20q8LMqFsc7SX05V6E0oTytGBuk069tvBbu5+5nvf/c/FIrPL8Mn05sgy3/uO/VCfKgPhkO1cOfc+TnlgBt2W4LHEvcprgEQs8cGye3Y/5tz+ZXb33HNq+RR4/KWdOaQSm8985rMXkUp+H3xKrn/ouw9d5COLe46sl1NTfPJ0NwQP4ie7tp+rEMp2dpLZT4is2nJpckkOrONjQmlCOTpIZ4NNO9jN3c98I5vrr7Xbhf82hlX2s/hX8RdtM9/7jv1QnyoD5ZDtXPkUIpiRScjlFEIq8hhLZiJbkjrWH/2e98svv7I4e/bxi74XLtSfCP72t7+zXB6fSyixY3m9fe/mVFL5pfuHXwg+hkWvrpdTPftefTxX2Z5LKD07abLYyzXV93K6Um9CaUI5SuCUbLFsB7u5+9Fn3J7rr7WLPuN2qzd3P/rU9lxfmZ18xjLTmyOLPuP2HF+ZTfQZtzPdObLos7ddGQh7PqbUT1miXjeZxB8kbOy3rpmpZMmbOLl3MhLXO+7428UHP/SRxfuv+NOD77XXXnewjfwT13xy8dd//cXFHXf+7fIXdMawefzxJ5a/9z2XWPJrO6uSytPP1InwWF9iXS+nou6c7facmEsoPTtpQlnNv15OV+pNKE0oTSi/eu8oBu3grv3sRFXdOspN+s98I1tH3PjYlf+s3cpAmNnNkfHwTJwlHNvOyCRELxK8Mfu2DoI4RCQhkSx7j82c3nPPvYeII+Txi1/80hK+llRGwgkBveGGry7fKznUPsSSGcc5xBJSSd/i8ZgyU3nJzfet/X7KXk7FWOdst+fhHEKZzU7O8TMnftvsH5Ht5XSl3oTShHKURGQDQzvYzd3PfCOb66+124X/NoZV9rP4V/EXbTPf+479UJ8qA+GQ7RQ5ZGoKGWwfwIFMtiSxsj/0KzrEjk/qK34+8Ym/vIhQ/uhHP1rCx3J3JJFD25DLG2+8efH88xcOEUDhePfdpxbvfOf01xLxKz7tTOWUF6B/+LsPp/EorqllL6em+mv147nK9hwi2M5O4of7Ndu2vL9/5G8Tx6yX05V6E0oTylEClyVuO9jN3c98I5vrr7Xbhf82hlX2s/hX8RdtM9/7jv1QnyoD4ZDtFPmUd0RC9KLvOfdMQl7HfkVn6svPW5L4zW/esoTuscfOLsv/8f98rUQq5ef6G76aEkuIIQ/dTJ2tzJa/P3LHw+Xx4ntPnD+EecR/6nYvp6b6a/Xjucr2VEK5qdnJaz997eINr3v92nBs++393ZHbXk5X6k0oTShHB+TsBG8Hu7n7mW9kc/21drvw38awyn4W/yr+om3me9+xH+pTZSAcsq3KmW2szAKi0760fA6ZZOk6e+AGojqVSCpuEUHKj3z0zxf/8A//sITul7/85UGJPOpVtoeIJbOVU58Ib0nllJefr3Ppu5dT1bwZ0ovnKttTCeWmZidNKHdH+IZyZV3yXk5X6k0oTShHCVyWrFNnFob0M9/I2sF07v4u/M+NNbPL4s/05sgy3/uO/VCfKgPhkG1FzlJ3lcRBBKPPKbYifhDS9l5F7pGsLm3LT1vGJe97Tp1KYUNeIZGtDkvhd9xx50Vxc28lJHFojMjkV199zSEM+WUcXmZeOQ++eN8Th2zjsZiynYIThFN8ZbptX6YQymx2EoKZtTNVZkJpQhnS/KJNE0oTytGBOBtwskF+jizzjawdTOfuD/mfE2tmk/nP9ObKMv9zsWjtMt/IWr25+7vyn7V70aiXCDK7qowl3JacZfvZQzhTSWB7HyExsuw95d7NLDZk8aEclrshj+0XeUsWp+x/+trrLloGp09TH9jhF3zi8ZnykM4zL/3okG30U91OUuiQqOpnSK8976YQymx2EpI51FZPftWVVy2XuVnqfsubf+tgyZv7at/2O289qLv8XZcu20BH2/i+4fobFr/6K29ccOtE1H/H2y+ZHVMvZtdPJ76HEnjmjgmlCeUoichOzLkEqbXLfCNrB9O5+0P+2zjm7mf+5/rK7DL/c7Fo7TLfyFq9ufu78p+1WxkbM7uKbMqDOO39jlNeLwTha++7pO0p920OEcko57VBUwjiHF1mK0+fPnMRmWDmMTsPhmT8Uk88Rh8u3k+5jgd0ejkV45qz3Z53VUK57tnJW2+5dUkYKenHn77/igNCiQziCLGU3ql7Ti00i6n3lkIisYNYQkohlviCqM7BxjbTyWIFs15OV+pNKE0oR0lElohDA/xUeeYb2VQ/Q/q78D8Uyxx5Fn97oZm7n/lGNtdfa7cr/1m7lYEws6vIWH6OhGxom5nI6G/KPZf4bMkk90+OvQJoKI4hOUv2xAjJfeaZZxf3nLp38a1v3X7wveEr/2PBq4Mgg3NIZGbzne9evAQ+hVRy/2WcseV+yurS96rvpuzlVDzWc7bb86lKKLPZyVuenP8eToggM47qg8ii9mMJWaQe2Zt+7deXhBHyKBIJwdTspQhqtPf2ZohiFddeTlfqTShNKEdJRJaMc8hRZpP5RpbpzpHtwv+cOIdssvjbC83c/cw3srn+Wrtd+c/arQyEmV1Pxn2LQwStlaMrf1Pvm8zI5KpL3BBIyCPvzWzvx1ScQ+WFF15c3Hvv9xeQzFUJ5vXXf+Wi9qeQSn5HPMZ508NPl3L4Pbcdnt2MPirbvZyq+JBONqvYnk/tfraEnfnhd8LVzpySGUhmGGUbCSVkkWVrCKO+IpTMPkIqIaTt0rbsIlGVf5e7I5W9nK7Um1CaUI4OwNkJPkSApsoz38im+hnS34X/oVjmyLP45/jJbDLfyNoL19z9XfnP2q0MhJldT1adnYyzaPicstTd2s55IjySW2LOng7v9XWsHnI59uLzbHYyylpSSZ+nPKjD0+Ixvvfe/mApj+9/On9XZvQ1tN3LqSG7TJ4Rwd55lxHKbHbyq2efO4RN1v6YTASSpWz0dA8k2xBFkU3NRIpQMhvJfZMQTc1GoqNlbi1/a1l8LAbXbYdk9nK6Um9CaUI5OvhmJ3NGUObIMt/I5vjKbHbhP4tjriyLf66v1i7zjax3IavW78p/1m5lIMzsxmTM6kWiNrTNTGCcAZyy1A35izHMJZPMZkLSYhzR77q2mblk1jKSxep2RiqrL0B/xzv+4NDS95lnXizl8Sr3UvZyagqm6yCULGu35+ZfPfTMofyZElPUFYmEHMZ7KEU2kaPDjKMIJfbtcjnEEh3NZopcxra8vR3ymOHcy+lKvQnlMSSULXlYZT9LvFX8RdvMN7Kos8r2LvyvEm9rm8Xf6szdz3wjay9Kc/d35T9rtzIQZnZjMgjaEImM8na5unrfI3qRALJkPmeZG1Ia/WR9oh6iS5/4PvXUM4sHHnx4cd/9Z5bf02ceXJx9/InFuSd/uHwAI/MRZWfPPr78ve8qmZTe175+0yECxCuFqvndPvVdfeH53Ce+ezkV8Tip2yx5R4J5UnHYl373crpSb0JpQjk6aGcnQ3WQ7+llvpH17Kr1u/Bfja2il8VfsavoZL6RzSWQrd2u/GftVgbCzG5MViF3zE5GH5DLSDaHtvEdl6UhfFUiKp+0DUmM7cdtCCrksfULkfzb79196Pvkkz88tE89JPPJJ58abeOOO6c/MX5Xs3x90003l8eD8+dfW949/8qPS7l87an//cRxxKay3cupio/jrMPsI0vex7mPx61vvZyu1JtQmlCODtjZSVMhLBWdzDeyim1FZxf+K3FVdbL4q7Y9vcw3spYYzt3flf+s3cpAmNkNyarEsJ2dhOSJ8I2V7euFpr4aCP2hWUlI5tC7L8+dO0wcf/GLXyz+5//8n0v4KHmApyWb7D/40CODPwH59NPPLK686mPlZXAe8oHARuyr76hsX3j+8bse7eYzT4UPYRVjaLd7OdXqe393S7nGvoZ9L6cr9SaUJpSjBC47GXtkpVqf+UZWte/p7cJ/L6Yp9Vn8U+zHdDPfyOYSyNZuV/6zdisDYWY3JKsQvLmzk+3rhSCXY+SzrWvvu1QfxoikfNx//5kDwnjmgQeXsP2v//W/DsH3g/tOH+i05HKIWNKHT1zzyTKpRJcHlxQ7M4/Vn2iMs5QPPPtSKZ9ve2z6vYaHQEl2FLvLGpkxTrvHKUnjySITShPKUQKXnehjRGVKXeYb2RQfY7q78D8Wz9S6LP6pPob0M9/IWmI4d39X/rN2K6NiZpfJmM0SARsrWU6O9tXZybjUPfW+yXZGlPaJt/pU+Q9+cP8BWXz6mWeXsDFLiZ+///v/d7mfLX9HYsmSNfdaxr6zDam84Yavlkllez8l90gO5XKUt7OUlSe+P/Tdhy6Kt42/3e/lVKvv/d0TJh+D8WPQy+lKvQmlCeXoQJ2dhHEAX2U7841sFZ/Rdhf+Y/urbmfxr+pT9plvZHMJZGu3K/9Zu5WBMLPLZNXl7riMWrVpZxeHlqYzIpuRSchpe49kZitZJJSvvPrqEjYI5c9/8YvFiy+9tNxHHgnk0Db3WGb3cPLTi3oIp1c+/Mijh4he5anv9mXn1Z9kfPnHw/ebZnnQy6nMxrJxQmN8dotPL6cr9SaUA4RSF95Vy6GTpL0Az93P/K8ac7TfpP/MN7LY/irbu/C/SrytbRZ/qzN3P/ONbG4etna78p+1WxkIM7tMVlnuRifaVolhfPk59yuK6PXKlojSNmSu8uBQ9P3Io2cPyCJEkg9L3v/fP/zD8ss+8iES2crv/f59F91bOWX5m6XviMntt3+7NDbceOPhp8Urv54zddm7l1Px+Ht7t0TJ+Nfw7+V0pd6E0oRydJDOTsa5JKa1y3wja/Xm7u/C/9xYM7ss/kxvjizzjawlhnP3d+U/a7cyEGZ2ray63A0ZlC2EKJK2oe2WFFaXyNt7Lmm3OiPaxvLMM+cXkECIIUvbzz3//EXf3pJ3SypZAm/7Bqms/sJO+9R3ZZYSHeFPefXdj3Xzeuqydy+nYvverhEa47RbnHo5Xak3oTShHCVw2Uk+h8BkNplvZJnuHNku/M+Jc8gmi39Id6o8841sLoFs7XblP2u3MhBmdq2sMmvIrGC0417Klrhl+3EmrkoIaSsurdMuM5OZ/6oMUnnmzIPlWciWQGb795z6/kXL37yrsrfkTf2VV/7FrFlK3mGp43DPDy+U8rrFUvZZ2cupzMay3RIm4z+Ofy+nK/UmlCaUowQuOwmnkpch/cw3siH9qfJd+J8a45h+Fv+Y/pS6zDeylhjO3R/yPyXGMd0h/5m8MhBmdq2MmbYeMWtn4yozjXNsiCPOhBLr3F/SwRdxEgdkFlKqh4P4aTy+PGjDfZHMGGaksSdj5rO9p/Kmm75RIpXtLGXlie/PfOazB4QSbCrL3qefOfze0Pb4x/1KTlnHCJw0BEwoTShHCVwcRLU9dqGfUid/bTnFx5hu61f7YzZT6uQvllPse7rRr7Z7NtV6+WvLuQSytWv9ar8aX09P/iplZVCv+KmQw/hwDKSsR0Cpj0SrMguKTXufJrNrUx7AUVyQyNh+BYennn5mwaxjj0S29bxWKPpn6bvyjspPfOIvD83EXnfdZ0fHLHKnXfauvJPyS/efOxRfjLXdruSUdYzASUPAhNKEcnRwbgdS9nsX+2p95nvf/Vf7XtHL8KnYVXQy38haYjh3f8h/JbaKzpD/TF4Z1DO7KKvePxmXTSFMIm5DJSQ1tlN56AdfcYkc++qrgRQH5FOzkLH9KdsQy6kzlvE9kbR1773fL81Snjv35AFOTzxxrjQGxWXv28+e7+b2e2574KCNHg6VnLKOEThpCGyUUFYuDBWd7OSee6Fr7TLfyCpxVXR24b8SV1Uni79q29PLfG8D+8q9WxWdLP5en6fUb9J/5nsb2E/p/5juUPyZvDKoZ3ZRVpk5hKRFm8rT3fEF3nMf4KnOhIpMtu/IjDFP3WZ2k9/8bmcjh/az+ykrs5TXX/+VQ9hedtm7u2N0fNr7lZ/8vEsoWRav9r+SU9YxAicNARPKHc1Qjl0sp9RlA+AU+57uJv1nvpH1YqrWD/mvkMWKTua/GltFb5P+M9/IKnFVdHblP2u3MqhndlFWebgmkkNsReDGyjhLWJnRxFc7O1khroohLsnH/q26zXL2EIls5WfDAzO0W5ml5KnwiNVnP/u5bq5+5CN/doggvuuWM11Sefb5w698GsKlklPWMQInDQETShPK0YE5G1ArhKKik/lGVrGt6Az5r5DFik7mvxJXVWeT/jPfyKqx9fR25T9rtzKoZ3ZRVlmKjg/JMHMnEjdUtk+EV4hh+wBPpR21vykyKZyqpJJl8va+zcprhOKyN8vZvRzk4R3FRlm5j/J7T5w/ZBPt43Ylp6xjBE4aAiaUJpSjA3McRLXdG8ir9fLXllX7nl7rV/sVsljRkb9Y9mKaUh/9anuK/Ziu/LXlmM2Uutav9qf4GNOVv0pZGdR7fioPvMSZw8psY3ywpnqPZiStxFwhuhDKdva019+59XqPZTsr2e63P89YeeL7m9+89RDZqzzt/eyzrxHEGx96qjtDWX0wp5JT1jECJw0BE0oTShPKK/609GBASzKzi+4YCZpat0n/mW9kU2Mc0t+V/6zdyqCe2UWZZvnGyqjPTOKYLnWQTtlUZhrbGc3qPZftvZ1qcxMlfWrJY7bPvZSx/aeffqZ7Dv7fn/7MIZv3v/8D3Xy9++57DmzOPPNil1B++LsPH+jH+NrtSk5ZxwicNARMKE0oRwfldiBlf4hETJVnvrfhvyWGc/ez+KdiMKa/Sf+Z721gP9bfKXVD8WfyyqCe2UlWIW7tL9ZUlq/jsm/lHs12ubsyCwpxje2oT5ssuUcyI5GtrO1PZdk79uXLX76+Oxaho75WHsypPuldySnrGIGThoAJpQnl6KCswTiWUy78Y7rRZ9wes5lSF33G7bkEsrWLPrU9Jb6ernzGsmdTrY8+43bVvqcXfcbtnl21PvrsbVcG9TEfldnDuHyNr97sJPWxzQoBbe+BrNi0RDe2ualt8Kq8Tqhd9v7rL/z37ixlvI/y7rtPjY5d5NLVV19zCOf2LR/tfvVJ70pOWccInDQETChNKEcH5eyiU73o9/Qy38h6dtX6If8tMZy7n/mvxlbR26T/zDeySlwVnV35z9qtDOqZnWSVVwa1r+LpEcr2/ZOVl6bHezSJrdcG9e09l+rTpsuHCk9987qhGMedd36vSyjvv//0gU3lwRyWxWMb7739we6yd9Qf2u7l1JCd5eM//2d8dodPL6cr9SaUJpSjJCI7wSuEoqKT+UZWsa3oDPmfSyBbu8x/Ja6qzib9Z76RVWPr6e3Kf9ZuZSDM7CSrLEdHQll5L2Q7c1ghh4qHsjJr2t5zGe03vc1ydrvE3e63P6lY+X3v9sGcXh5eeunlkwllXFYfwqmXU0N2lu+OMBn7cex7OV2pN6E0oRwlEdlJ2BvEq/WZb2RV+57ekP+WGM7dz/z3YppSv0n/mW9kU+Ib092V/6zdykCY2UlWIZRxJrBC9uISeeUJ75aAsvzdI6GxDfVlm2Vl2Ts+mMR271z8+tdvOkQQx3JQdbHPH7nj4e4MZeVdlL2cim16e5zIGJ+jgU8vpyv1JpQmlKMkIjvZNVCvWma+ka3qV/ZD/nsXrWp95l9tr6PcpP/MN7J1xI2PXfnP2q0MhJmdZBVCGWe1KoQyzmhW9FtCWYkptqG+bLOs/ILOhQuHf3qyd+7NedI79vlLp891CSVPg0ebbLuXU5mNZUeDOPk45Mehl9OVehNKE8pREpGdfPtOOnoXrWr9JrEZImX7jv2m48+OSWUgzOwkq5C3TRPKlhxOjUl92Wb56KNnu8veLaHs/QyjCWVOBrZ5XN3W8TwGlXGyp2NCaUJpQun3UB7MyGya8G3af3ax6w2C1Gd2kk0lb5UZx0gQp+oTV+WF5pHkqi/bLCuvDzp//rlD2F977XWjy94mlMeTzGwzL91WnkOVcbKns7eEctMXpuosVU9vKHl7dtX6zP+6sMHPJv1nvpGtK/4h/1Vse3qZ/3XFPoR9L6ZqfRb7vmM/1KfeILiPhJIl8N49lPtAKB9//NyhMcaEMr/YD+W25cZrXTlQGSd7OiaUAzOU1QtzT2/oYPfsqvWZ/02TmnX5z2JHtmn/VWx7eln864odP5n/XkzV+sz3vmM/1KfeILiPhLLySzz7QCjbJW8TShOkofPY8s3mRmWc7OmYUJpQjhK47CReF2nKfCPbtP8q6erpZfGvK3YTyvGfw8ywH5L1BsF9IJTtr8pUluHjk+dD2GxS/mDhXZQtoeydc17y3iyp2GQ+2PfRPnaVcbKnY0JpQjlK4LJBYF2kKfONbNP+exetan0W/7piN6E83oTylVdePZiBnvPeygqhjPdpZrm6adm9379v8kM5vXPv85//wgFuxP/Od/5hd7yI/bzu+48fqae8/6+/+Njin//mmw6+l1162WLsy8vcY3/Yfsubf2vxhte9/tD32k9fu7jqyquWspa0t/ZT9m+4/oalT/xPsevpXv6uSxe/+itvTH3eeNPNi7v+8TfZn332/OKqqz62+KN//x+W3w9+6MML6nv+N13P+fy5z31+53Gs0s8eWazUm1CaUI4OyFmCros0Zb6Rbdp/76JVrc/iX1fsJpT7RSjj+xQrD9m0rwHq3Q/Z/rJOpY0LF/qvv8lyeB0y4mtfZJ7tx7YuvPDi6AM5nJdTX2zenkeVX8p56dWfdIlB7+Ia+zW2ffmllx0igmO6EM0zZx64KDaI2DvefslF8jGSNtbOWJ1I6q233HpRe2N2vbq3/c5bl8S41YOoXf7uP1ncdvu3F5BJtiGU0mObOu1vsySW0/94PM6efWJJcLW/zTjW1VYvpyv1JpQmlKMELkvWdZGmzDeyTfuvEsaeXhb/umJvL4RqqxdTtV7+2nJd8bd+tV+Nr6cnf5WyMhCO+YEs9ghfnA3kJxJ7+lMJJf5ijJU2sGl/rjH62OT2U08/0yWU95z6/qE+PfjgQ11C+Z3v3HFgw3Hp5ev73nfFgT79rRDKCma9nKpi2xLKdqax3W9nKJl9RAfy2LY5RNJavSn7f/r+K5btPfbY2Yvam+Kn1X3Tr/36gnhb+fXXf2XBLCRySm23etvehzgySwrJVdvvfd8VR2K2VPFMLXs5Xak3oTShHB2Us6TsDeLV+sw3sqp9T2/If4+sVOsz/72YptRn/qux9fQy38imxDemO+S/F1e1fsh/Jq8MhJmdZJXZwLiEjV2PULYEcc5T25Xf/45EV/3ZRll5qTn3WMZYvvWt27uELAp4rgAAIABJREFU8uFHHj2wYbZuLAepa3/L+5Kb7+8ueceYhrZ7OTVk18oh0V/72tdHv7fccutyZjKbnTx1z6klwYPotb5ZChdJg3iyDflkRpOla0gh+8w6YhtnNNFHT3XyzUwoNu0yOkvg6FOnNmWDD9VRLzJKe+xDJqnPSDGzgCxpi8ANLW9/8pOfWs5eqk3stAQtosdsJl/klJBV9LBhW8voaiPqUYcfznNmRKVLKX3IrtpUHPtU9nK6Um9CaUI5OihnJ0RvEK/WZ76RVe17ekP+q6Slp5f578U0pT7z34upWp/5RjYlvjHdIf/V+Hp6Q/4zeWUgzOwkqxDKdsaxQvbiTFjlqe2WHFZsiIOfdlRftlFCNrLl7VbGLGaMp/eENznx0ksvH9jcfPM3uvl63XWfPdCnrTd/9d7R7x9/8/Qh/Rhf3O7lVNQd267OULLc/abf+M2LlrxZeoaUtcSPNiNJi+QSUgiJk47IqEgfhE8EsSWOkEX0Yp90XyWlCK7iEZlErtlNfEZ5ayPf3DcJYWMWENLG9tCScpy9hPRFogdp5AuJxCcl+9jgFzIJWVQ7Ipno4Yf6ltC2BJaYYwzqwz6VvZyu1JtQmlCODsrZCTFGJKbUZb6RTfExpjvkv0dWqvWZ/7F4ptZl/qux9fQy38imxjikP+S/F1e1fsh/Jq8MhJldlPVmHNt7HCszjvEp7MqyentPJPa9uKhviWjs1ya2K7OTkEuIutqn/71jf+WVf3FoCR+yOJR/kt9442u//f3EC6+OkknIJkviimms7OXUmG2sqxJKZicv+bdvv4hQQvwglPGLDNImoinSqfseIXPUQeQgmswMQgZFKNGDdGb3ZUJEsYl9gGTGWUn8YNsSxTgDio5mJKVH3NGviB4yzSByr2LU0TaEEJLHvu5nhCyKXEL2pMs2pFGrCmyjK7KJL3TR03b0SR1kM/qUfitTm/tQ9nK6Um9CaUI5OihnJ4IG61XLzDeyVf3Kfsh/78JVrc/8q+11lJn/amw9vcw3snXEjY8h/724qvVD/jN5ZSDM7KKsQtyiPiSuZxOJXuVJb/y1s43PPXeh2w46+I/xbWr73JM/LM1Otsvd9977/S6h/PL1XznUh8sue3c3X+My8T0/vNAllJ8+Vbs3sJdTVXxZ7oZU9r5f/MIXF3zbXxYSORRZVLsiadRLR0vNcR9SBxmEADKDCGHU7CQkU/5UQgQjeUQeyWHcj+0gxw4yKoIrAkkJwW3bg0SKoPUIJaRQy82a2aRsiSBxoCvyqZlHZiL5Itd9kdGn9PQAUCSw+ORLrMSp/X0rezldqTehNKEcHZSzk2LTpGPT/qukpae3SWyGSFkvpmp9FjuyfcZ+qE+VgXDIVvLKjGOccavMHrYzjpVlcmbyFBNlhbhCRGmrJaPRzzq2WYK/6+5TJULZLqVe+5nPdgklvhUn/a7kauzzl06f6xLKrz/41EEbaisrezmV2WSyHqEUkVTZEkotI4ssqg3ImUiadIQ5JFJL3pA+SB6kEBIK6aOOfflSqVlPzSwil4w22CcOzYzGdiWHuMbYsEGmGVO1RRkJpe5bZCYx6rANAYxL3JF8ilxqqVwzlvKjesrot9VT+/ITyabskMmvZPtU9nK6Um9CaUI5OjBnJ0RlIK/oZL6RVWwrOkP+q6Srp5f5r8RV1cn892Kq1me+kVVj6+kN+a/G19Mb8p/JKwNhZhdllfsVI9mrPoUdCU+ljXZpHfvKLOWmSeUUMsmSeMS28rog8uG551570v3b3/5ON1eZwYztVJ7wPv3MC4dson3c7uVU1B3b7i15M8Oqb7bkDRnLyJ9m/SCJkcCxjz5EkrikJ4IJWYTcRdKo+DXrKfIoOYSUL/vEI1+aocQu+tUMJfXapk0RXvmNhBIZM4DMDGoGkXqWniP5Y0YSYgfBRA7BYxs5PtoZS3TQxxf1EEdmKVs9+aFttScb7DSDqXaQ7du3l9OVehPKgQPf3kA+d38oqXoXzGp95r9qW9HbpP/MN7JKXBWdXfivxFXVyeKv2vb0Mt/IekSxWj/kvxdXtX7IfyavDISZXZRV7nF88cXXHhjBtjLj+OMfv/bOw8qsJsQwzoTSTnWWclOkcgqZZBxticNXvvo/uuf8Jz7xl4dmWK+++ppurn7mM4cfyHnr137QnaGMD0rF499u93Kq1R/a7xHK+JLz7KEciJwIXGxDZE5Ya1+zh9IVoaMemfSQS0eliCk+9IUoMvtIHMiY4dRsKW1Ljt9IZDUriT4ENSPFkDjIntqHzOlBGUgi21qCZrlbMoie7EQEIYH4EfGLM5KafZQ9pLDVk3/50b7usYSEEo9i3ceyl9OVehNKE8rRwTw7MaoX/Z5e5htZz65avwv/1dgqeln8FbuKTuYbWZUw9vSG/Fdiq+gM+c/klYEws4uyypPe7exhZcaxJaGV2cb2iXJmKSvkFULJF92WlMa+Ttmu3jOpf8jPnDn80MsLhZeZkw9xuZv4fvd3f6+bq3eHZczHL7zSJZPVJ7xpv/epYth7bZBmJ1VW/R4HPc0SHvVZP8UZSeo+4t/L6Uq9CaUJ5SiBy06MygW/opP5Rlaxrejswn8lrqpOFn/VtqeX+d537If6VBkIh2yjXIRsrIwPvzD7OKarurjszQyI5GNlnNkkxgrhbf1BeKszchEHtpl9qj7NLTIJKWyJ7A1f6c9OfvBDH1m8/PIrB7M/leVu/uGJDz3d+NBTXUL58e+99o7Ltr/tfi+nWn3vz1sCZtZPS9xHFUNmOPVA0FGNsRJXL6cr9SaUJpSjBC5LxB5ZqdZnvpFV7Xt6u/Dfi2lKfRb/FPsx3cz3vmM/1KfKQDhkG+WVB3PifZQQxZbEZfvRpnrvJbOMkYgSZ5WMKoZnnjm/ePzxc4tHHz27fHq4JXux72wTJ++OrPxGt0hkLGk3+jx79vHSud4+3f3Rj/55d3byIx/5s0NtveuWM11Cedtjh9+LGWNtt3s51ep7fx6hNG7bw62X05V6E0oTytFBPTuhx4jKlLrMN7IpPsZ0d+F/LJ6pdVn8U30M6We+9x37oT5VBsIh2yiv3KvYPrnNkrYI3FA5Z6kcX7qfK8ZYIb3YPvbY4+kT2ZDF02ceXJx9/ImDLzOR/ExiJIdTt1kaj3Eyw3rlVR8rnevxyWa2e7dbUH/bba/9vvMrP/l5l0zyDspnX/7RoRhjvO12L6dafe9vjxgZ63lY93K6Um9CaUI5OqhnJ+cQSZkqz3wjm+pnSH/I/9SL4ZB+5n8oljnyTfrPfCObE2dmsyv/WbuVgTCza2XVd0XGZeTqsnd8yXl1lhJiGO2Il1lLSO0QeUV+7lztXZFDeT9V3r5zkjgrD+KQV+3s5DXX/GWJUMbl7tsfe7ZLKKfcP0n8vU+bO96fR3KM2/Zw6+V0pX5vCWV2EZsjG0rYqYPmkP6Q/zmxZjaZ/0xvrmyT/jPfyObG2toN+R86VlPlmf82hlX2N+k/841slXij7a78Z+1WBsLMLpNVHn6JS9j4mPOgTeWBHshh9tLyHqmcu2Q99fxAPyOTlZeYK5fi7CSvDarMTvIEeDx2leXua4svNJffXk5Jz+X2CJGxXg3rXk5X6k0oPUM5SiKyk1SD/apl5hvZqn5lP+R/zoUxs8n8q+11lJv0n/lGto648bEr/1m7lYEws8tkFaLXLmFX722M9zAyS1khopDK7KXlkMqhWLNc3oTsyScvfkn4008/U86xb37z8KtrqrOTPBGtY3f+lR93ZydZ7n7suZcObGQ7VvZyaszWdasRH+O3Gfx6OV2pN6E0oRwd4LOTd99Jx7ounpvEZoiU7Tv2m44/OyaVgTCzy2Rz3hVZXcJuiSgznWNL17EuI5XEn/lYV/4P+eFpbr3/MGIImeSJ7UoO8Lvd8R7R6r2T73znHxwihtd9//Euobzk5vsO2cSYh7Z7OTVkZ/lmyJBxXR3XXk5X6k0oTShHB/jsRK1cECo6mW9kFduKzpD/oQvhVHnmvxJXVWeT/jPfyKqx9fR25T9rtzIQZnZDssqyN7OD0X5otjCSQrbb5fLe/ZDRfohUcu9nfFhnk0veLHHHmVZh8PjjT5TJJLn18COHX+Hz/vd/oLTcffvtrz2M8+pPf7GovMx86nI3fep91G+XqxMdY7gdDHs5Xak3oTShHCUR2cncIxPV+sw3sqp9T2/I/1TiOKSf+e/FNKV+k/4z38imxDemuyv/WbuVgTCzG5JVl7DjwzmQrEj+hrZZ5o52U5a+8ZndU6l+8IAQZHgTD+XwJDgvKVdbsZxyzyQ59bWv33TIz913nyqRyXZ2svIwDsvdz7xUf7pb/erllPRcbocMGefVce7ldKXehNKEcpREZCfqGJGYUpf5RjbFx5jukP8hgjhVnvkfi2dq3Sb9Z76RTY1xSH9X/rN2KwNhZjckqy5ht7OUlVcIQQrbX8KpPikukgqpbGc6Y19Ytn/i3A/T1wZNOQdY2mZGsu2n2iKGyovLYw594ppPHiLUPK1d+VUcHtaJs5PEcMnN93eXu99z22v3WyruStnLqYoP66xOgozh+jDs5XSlfqOEMg4Uq2xnSbOKv2ib+UY2ZWAd092F/9i/Vbez+Ff1KfvMNzLVr1oO+R87XlPqMv+rxhztN+k/840str/K9q78Z+1WBsLMbkwWl5BF5LKynW3MdDJZSwirs6LRFwQ2tt/2h1lTXlQOKawugzMT+cijjy1fhN76i/u8tLz6nknlWfuLOPirLnXPnZ1kFjPGXd3u5VTVj/XWR4iM5WpY9nK6Um9CuaMZyinEZUw3O4k0QK+j3KT/zDeydcSNjyH/Y3hOqcv8ryv2ofjX5T+LfRvYbzr+rF+VgTCzG5NVl7Db2bspxLC9F7F6H2YklcxWMsvX/qrOUN9ogwdq2i+zpEM2UX7hhRcnz0qSE5DJJ5uXn3/5y9eXlrqZnYxPdhNPZXaSh3GquMQ+st37tPreX43sGL/N49fL6Uq9CaUJ5SiBy07kTZOCTfufQhrHdDeJDRhs0n/mG9mmsd+0/6xflYEws+vJKg/nQO7i73tDYCB5kfQNbaPXzjDOIZX4n0ose31v6+cSSfIhI5PV+yYhk/wUY4zny6ef7C51c+/kl06fO2QXffS2eznVs3f95gmSMZ6GcS+nK/UmlCaUoyQiOyk3TQo27X+MJE6p2yQ2YLBJ/5lvZJvGftP+s35VBsLMrier3tvY3hNZffUQRDB7cnsuqRRxxb79hZ1eX7N6SCQP3HDf49zjmpFJngiv3jeJXvxVnOde+UnpyW6e/uYnGbN+VWS9nKr4sM40wmO8NotXL6cr9SaUJpSjF4PsJJ578WjtMt/IWr25+0P+p5DGMd3M/9xYM7tN+s98I8vimCPblf+s3cpAmNlVZNVZynbJuPqAzqZIpcglZBdCBsGMM6lZ359//sKSQN500zdWIpHKp1XJJLOTzGTGWD98x8Mbn52kvd4nxuTtzRIh47sefHs5Xak3oTShHCUR2cmqC8KqZeYb2ap+ZT/kf4wkTqnL/KvtdZSb9J/5RraOuPGxK/9Zu5WBMLOryKqzlCw5x/v12K6S0SFSyYM7IoabLu+442/XlhvkB7Oa7cvPp8xMZkvd9/zwQolMrjo7SV70PpXcsc56iJBxXA+OvZyu1JtQmlCOXiiyk3XfSccU0jimu0lshkjZvmO/6fizY1IZCDO7qqz6xDezktEnM4JTiGC2/M2DO9V7Mqe0FXXvuefe0TFi6jG9/oavXvRao6lk8rLL3n1oqZvl68pLzLl38usPXvyTkPG4VLZ7OVXxYZ31ECHjuB4cezldqTehNKEcvVhkJ+vUC8iQfuYb2ZD+VPmQ/zGSOKUu8z/Fvqeb+Z+KwZB+5hvZkP5U+ZD/Xp+r9UP+M3llIMzsqrLqE9+QtPZ1QNUZThE8SGW7NM1s55QldPmqlvwM4tTjn+mzxH369JlDpBqM7777nvI9k8xMct8kBDQen+pSN09/x5ni6GPKdi+npviy7noIkXFcDcdeTlfqTShNKEcvFtlJWr3o9/Qy38iyi9Ec2ZD/XlzV+sx/1bail/mfg0Nmk/lGlunOkQ35r/S7ojPkP5NXBsLMboqs+qAMs4ktIazaigDiI3uoBtmUZXT565Vzjn9rw6xkfHhG2E55NRBkMrtv8saHniotdTM7efqZFw4RUcUxtezl1FR/1l+NDBm/1fHr5XSl3oTShHKURGQnauWCX9HJfCNrL0Zz94f8V2Kr6GT+K3ZVnU36z3wjm4t1azfkv9r3nt6Q/0xeGQgzuykyZr2qS8+QvnaWbM4MI++0bGPEL8StGkuPTFLfHtsp+5++9rrFD3948RIzsVdfWi4iSdn+Gs7jF14pk8mPf+/w74O32E3Z7+XUFF/WXZ0MGcPVMezldKXehNKEcvSCkZ2ovYt9tT7zjWzKBWtMd8h/Nb6eXua/ZzOlfpP+M9/IxvCcUjfkf0r/x3SH/GfyykCY2U2VMUNYIWjotK8SggiynF21l162BE7cIpbrmLH8xCf+cnJe/PVff3Hx6KOPXUR4iQ1SWH0tUCSTn/3s5w75O//Kj8v3Ta7jQZyYD72cirreXp3sGMPNY9jL6Uq9CaUJ5ejFIjuRxy70U+oy38imEJcx3SH/U2Ic0838j+lPrduk/8w3sjE8p9QN+Z+KwZD+kP9MXhkIM7s5sikzjSx1xzbmkkrIJTN+2Ed/2uY+zSlxiayqrD6Uc+VVf7G45ZZvXfT0tuI4f/65WbOSkMqrr77mUN94COddt5wpz07e/eTzh+wV09yyl1Nz/dpu88TJGOcY93K6Um9CaUI5SiKyk2/oIj9VnvlGNoW4jOkO+Z8a55B+5n9Id458k/4z38jG8JxSN+R/Dg6ZzZD/TF4ZCDO7OTJI3ZTl5nWSStpluXuIWCKHXNLmlBghlrw2iIdq2hxgSfvWb92WLmsLP4gkhDDONk7Z5j5L+aKcSibXudStOHo5JT2XOXkxLkcPl15OV+o3SiizC8EcWZZ87cA2dz/zjWxOnJnNLvzPxSKzy+LP+jlHlvned+zn4DBkk+EzpDtVnvlGluXAHNmQ/6lxDukP+c/klYEws5srm/LUN2StffKbdqc+qKPZRMoesVS/+FlHlukhobTHMjzflmyybI782WefWzz88COLe07duzh79vFB4ir/qxJJSGd7z+RUMvnHt5xe6Rdx1Je27OVUq+/9o0egfEwOH5NeTlfqTSg9QzlKIrKTbugiP1We+UY21c+Q/i78D8UyR57FP8dPZpP5RjaHPGY2Q/6zWObIhvxn8spAmNmtIpv60vHsCWiWsSNRnLJ9++3fWXz+819Y/Pf//uUl+VulL1Ns6QckcM4DN3HWknss21/BmUomuW+Sh3amxF/V7eVU1U9P7w9ve/CiZf2ezVfPPrf4s3vPXWR3zemnFnc9e/hdqD1frj9Muo4zHr2crtSbUJpQjpKI7ASaQwAym8w3skx3jmwX/ufEOWSTxT+kO1We+UaWkcM5siH/U+Mc0h/yn8krA2Fmt6ps6iwj+m2bLFG3M4ZjxPLcuR8uLr308ouWl9/5zj9YfOYzn12StKEl8bbt6j4zkZDIj370z2c9bBOJJNu8tLx9z+RUMskrgu4699xFeFb71NPr5VTPvlIPAaQf7XfI9slXfrLICGhrf8VdZzeGy1Bslh99YtrL6Uq9CaUJ5SiJyAaCoYv8VHnmG9lUP0P6u/A/FMsceRb/HD+ZTeYb2RzymNkM+c9imSMb8p/JKwNhZreqDOI29cltSGVL+HhvZdVPRiZbwsb++953xeK66z67uO22by/OnHlg+VBPpb/PPnt+qX/jjTct74uEqGb+58q417KdreVp7ikP4ECg1vFrOGN49HJqzLZSx0xiSwS1n9lDJn//b+oPKZlUHn2Clx3nTcp6OV2pN6E0oRwlEVkCzyEAmU3mG1mmO0e2C/9z4hyyyeIf0p0qz3wjy8jhHNmQ/6lxDukP+c/klYEws1uHbA6phDy2pJJYekvgLHPPJXKyY6kZssmStb7sq35TZbbETZ8fePal8quBRLg+ftf63jc5lAO9nBqyq8hf+snPR8lh5gOCqP5XS5bGM1+WnUyy2cvpSr0JpQnlKInIBpehi/xUeeYb2VQ/Q/q78D8Uyxx5Fv8cP5lN5hvZHPKY2Qz5z2KZIxvyn8krA2Fmty4ZM4xTlq31YA0P97QxjM1Wcs/kpgjfJv2yVN7OStLvKb+AIxK1iSe622PAfu+T2VRlPXLY+nngwo8uIpPMVsb7JTOfnqU8mcSxzR/t93K6Um9CeQwJ5ZwL9JCNki2WQ7pT5dFn3J7qZ0g/+ozbQ/pT5dGntqf6GNOXz1iO6U+piz7j9hQfY7rRZ9wes5lSF332tisDYc/HqvVzSCXEMiNaxMJDPy1J3TdCyb2SLLe32HK/5Htvv/hhFJHGofI9tz2Qzuy2/tex38upuW381UPPHCKHv33jfYf26XvrO7vXkiXwqMesZ+sL0hl1vH2yCWYvpyv1JpQmlKMzgtkgM+XCP6ab+UY2ZjOlbhf+p8TX083i79lU6zPf+479UJ8qA+GQ7Trlc0ll79dwRCzvu+/0XsxQct9l+zog4cwLyHk6e4g0DskhkxBR+dl02cupOe1DAlvS1xLMjFBe/t1HDuE1NPOY3WM5J07bHE/i2cvpSr0JpQnlKIHLBo8qaenpZb6R9eyq9bvwX42topfFX7Gr6GS+9x37oT5VBsIh23XL55LKsdlK7rdkJhNi+eEPf+TIkkpmJIeIJA/efPiOhw8RoyHy2Mq5ZzK753Tdxy766+VU1K1ut09oQxSZWWz7O+QPQjp2X2RLKD1DeTyJ4VB+9OS9nK7Um1CaUI4SuCwJK4SlopP5Rlaxrejswn8lrqpOFn/VtqeX+d537If6VBkIh2w3IeeF4tWntttXBPGScV5GPhTXCy+8uPj4xz9xpEglT25nS9v04dWf/mLxpdPnZs1KQrS28QBOhnUvpzKbMVm7bM1MJQSRb5VQjvnP/AzNZI75cd3xJaG9nK7Um1CaUI4SuGwA6ZGVan3mG1nVvqe3C/+9mKbUZ/FPsR/TzXzvO/ZDfaoMhEO2m5LPefo7kkt+uSZ7aEfx8m7Im266eflOx00+UDPkmwdtmI0cugeUOHlP5JzlbRGsTb8aSFhmZS+nMpshWfZQjWYaMyI45GdMnr3oPD60M2bruuNLIuOx7eV0pd6E0oRylMDFhNP2GFGZUid/bTnFx5hu61f7YzZT6uQvllPse7rRr7Z7NtV6+WvLqn1Pr/Wr/Z5dtV7+KmVlIKz42YTO1JefR1LJNsRybMaSmPXicWYK1/3eSBFKXjHEey3bX7dpMYNI87L2bz+Sv7RbZHGshIRu8qXlbczZfi+nMptMlr0iKM4croNQZoSV5fQsHstOBnnMjnMvpyv1e0soqxeenl4GLLKeXbV+F/6rsVX0svgrdhWdzLexv/sg9zJ8KrhWdDLf+479UJ8qA+GQ7TbkU38NpyWV7LMUzpPflXsJmTVkCZoZzC9/+fqD9032yCb3QEIcmX3EjhnIBx54sERMWObnPZp6gOjtN1/89PIYiVQdLzjf1M8pTjnWvZyq+oI8qm+ULHVDMmW/KqHEvn3QR8vpasPlySWR8dj3crpSb0LpGcoDApMRkZhw2s705sjkry3n+MpsWr/az3TnyOQvlnP8DNlEv9oe0p0ql7+2nOpnSL/1q/0h/aly+auUlYGw4meTOmPvl8wI5JjsxRdfXs5aVsjlJvsEiYTkZveLRhJV3eZ+yW0+yT2GTS+nxmxVx7J22/dbnnzhgEyitwqhxLZ9EIf2mLFUDC5NJpUDvZyu1JtQmlCaUH7vtVnBKcRGJ2Isp9j3dKNfbfdsqvXy15ZV+55e61f7PbtqvfxVyspAWPGzaR0IYO/XcMaIZFYHuYTUQVg3HT/+ua+TGdCMRMb4WiI1ts8SN68T2kb81TZ6OdXzk80ccp9jazeXUA6RyTn3TT722NnFW978W4s3vO71B99rP33tRbG2sU/dv+rKq5b+b7j+hrX7nhrLSdTv5XSl3oTShNKE0oTyYACvErqe3tCA3LOr1g/5z+SVgTCz25UMUsYSdiRg69hmuRmCCeHjvstVSSZxslwPCeZezikxVh/G4ZdvjsqsZMyHXk5F3Wy7fap7jFAP1Q2RwyEyqQd9snjGZO94+yVLQnnhwv+ePYVYboJQtjHQ7jbaads9qfu9nK7Um1CaUJpQmlCaUA6MA7u8uED8dM/hFLI2VZc2IIT60m78ijCqfqr/TP+v7n3souXeSJwuufn+xZlnXjzIy10eh6zt3sU1s4kylrZjf+dsZ4Ry3WSSmN/0a7++YPZQ8W+LUDIrakK5vSX5Xk5X6k0oBy4k1ZmSnp5Owrbs2VXrW7/sV20repv0n/leZ/y78F/BtKqTxV+17ellvvcd+6E+VQbCIdtdy7kPcdUnwTNCdxRkf3HnxS8yZ+aS3/DeNe699ns51bPnwZv2ReZTSSXkMbazCTLZLnXTXiSUt95y65Jwajn8T99/xTImCCi2iu9tv/PWBV/tUxdJKnJ84YcldkisfEoW2/rVX3njAdnED74VK/uXv+vSA3vs8N8u3bftK7aTWvZyulJvQmlCOUpAs5OrR1aq9ZlvZFX7nt4u/PdimlKfxT/Ffkw3873v2A/1qTIQDtkeFflxJZb3Pf70gtnKz997dnHfD58vPaV+FI5JL6fWFSMksSWamW8etMkewJm7zB3bGJqhZAkcYidiJkLIrOKpe04dkEP0RA7ZjnWxHdlD/JDTrmYo5UPkUD6Q0z5xIJOc5XJ8QCzxwzZkV9u0IV8xhpO83cvpSr0JpQnlKIHLTrAxojKlLvONbIqPMd1d+B+LZ2pdFv9UH0P6me99x36oT5WBcMj2qMmPG7FkuZ3l9V0/kT71OPdyaqq/If0wjf7lAAAgAElEQVQKoYRMtq8GgoQyA9r+znckp9THVxQNxTBEKHl4BqIIqZMtRA4Sx75mISF8ug+Tbb5x9lK2Y4QSYilSGkts8BdnP6kXEZUdbUA26QvxibSqbZd/10vpUr0JpQnlKIHLTrQhkjJVnvlGNtXPkP4u/A/FMkeexT/HT2aT+d537If6VBkJh2yPqhxiCRHbxMM721gO5ylwHug5qvj24urlVM++Wl8hlNnMZCSOY9vZfZhtbHMJJTOCEEnIHsSuJZZtO2OEUuS1tWG/SihlSzsQWi3PS37Sy15OV+pNKE0oRwlcdpJlBGWOLPONbI6vzGYX/rM45sqy+Of6au0y3/uO/VCfKgPhkO0+yHlim6e3t0EEV2kD8ssDPqs+XX4Ujkkvp9YVY49QZvVjBLKtW4VQMjMZl7y13KzZQe2jgy6zgppdzGYIM0IJWcRP2xb2zDQirxJK/PPl2EAms1nSdR23ffTTy+lKvQmlCeUogctOjJaczN3PfCOb66+124X/NoZV9rP4V/EXbTPf+479UJ8qA+GQ7T7JWTZm1o+HeLbxdHiFXB4nEhlzoZdTUXeV7YwwRn9ZfUsax/ZXIZTEAUFjBlNEsZ31o073M6IPiRsici2hxBd+dX/kUFtVQokevuRT5DLieZK3ezldqTehNKEcJXDZCRaJySrbmW9kq/iMtrvwH9tfdTuLf1Wfss987zv2Q32qDIRDtvssZyaQl5oze7ktgslSNoQWYsuy/D7jNxZ7L6fGbF23vVfhGOs61r2crtSbUJpQjhK47IQUKVm1zHwjW9Wv7HfhX22vo8ziX4dffGS+9x37oT5VBsIh2+Mkh+Dpl2wgfbxXcu49mHonJfdxQlrxu28P1qxybHs5tYpv29ZJkLFaH1a9nK7Ub5RQ+mCv72AbS2PpHJiXA5WB0Nj+3XJGEWI49DVGr+VfL6eM1WtYGYv9wKKX05V6E8qBGUqfBPtxEvg4+Tj1cqAyEPZ8uN55FnOgl1NR19vOnX3IgV5OV+pNKE0oB5c/9+EkcIwerHs5UBkIez5c7zyLOdDLqajrbefOPuRAL6cr9SaUJpQmlM6BY50DlYFwHwZ8x3h0iEkvp3ysjs6x8rGoHYteTlfqTShNJo41mfBgUhtMjjNOlYHwOPfffVv/OdDLKWO+fsyN6WYx7eV0pd6E0oTShNI5cKxzoDIQ+mK12YvVccO3l1PHrb/uz/E/P3o5Xak3oTSZONZkwgPh8R8Ie8e4MhD2fLjeeRRzoJdTUdfbzp19yIFeTlfqy4Sy4sw6RsAIGAEjYASMgBEwAicPARPKk3fM3WMjYASMgBEwAkbACKwVARPKtcJpZ0bACBgBI2AEjIAROHkImFCevGPuHhsBI2AEjIARMAJGYK0ImFCuFU47MwJGwAgYASNgBIzAyUPAhPLkHXP32AgYASNgBIyAETACa0XAhHKtcNqZETACRsAIGAEjYAROHgImlCfvmLvHRsAIGAEjYASMgBFYKwImlGuF086MgBEwAkbACBgBI3DyEDChPHnH3D02AkbACBgBI2AEjMBaETChXCucdmYEjIARMAJGwAgYgZOHgAnlyTvm7rERMAJGwAgYASNgBNaKgAnlWuG0MyNgBIyAETACRsAInDwETChP3jF3j42AETACRsAIGAEjsFYETCjXCqedGQEjYASMgBEwAkbg5CFgQnnyjrl7bASMgBEwAkbACBiBtSJgQrlWOO3MCBgBI2AEjIARMAInDwETypN3zN1jI2AEjIARMAJGwAisFQETyrXCaWdGwAgYASNgBIyAETh5CJhQnrxj7h4bASNgBIyAETACRmCtCJhQrhVOOzMCRsAIGAEjYASMwMlDwITy5B1z99gIGAEjYASMgBEwAmtFwIRyrXDamREwAkbACBgBI2AETh4CJpQn75i7x0bACBgBI2AEjIARWCsCJpRrhdPOjIARMAJGwAgYASNw8hAwoTx5x9w9NgJGwAgYASNgBIzAWhEwoVwrnHZmBIyAETACRsAIGIGTh8AkQvnP3vhPF2943esX11x9dRmphx58cPGh//rBxc9+9rOyzTYV/9W/eMuyT1/4/Oe32azbMgJGwAgYASNgBIzAsUFg44QSMgkJhVju+gMh/nfv/INDYZhQHoLDO0bACBgBI2AEjIARmIzAxgnl773td48EofzbO+9cxtESysmI2cAIGAEjYASMgBEwAkbgEAIrEUrIGbOPzEJqOfyf/8ZvLm668cZlI5Kho69mKlk2lwy9uIx+/tlnFyKi0lHJ0jn6skHONh98sC1d+Yxtqa4tFRf+/9N//JMDH2pHqPX6rDjkHzy8nC70XBoBI2AEjIARMALHEYG1EEqRJ5WQMIiZ9mMJcYuELdaJAGoZOtaxLeIo0qgS/SHSCJnTsnvrL+6LUA61rdhEKKNtjI32srqjeg/pcUxq98kIGAEjYASMgBHYLgJrIZTMJvJhZlEkjyVmPtoXYUNHBEwyLUczm4eMerYhYXzZRiZSJp/t8rVIH+2KREpHhFP7y+Ca+EQG8U+cfGSHjPZFKIf6LH21gx/N2KpNl0bACBgBI2AEjIAROE4IrIVQRiInsicSpX2RR5G2dhZPJFKEMyOUInmtTx0Q4mhnGEXsWqInm+irJaGtDsRXhHKoz5BOxYA/4SBfLo2AETACRsAIGAEjcNwQ2DqhhGCJPA6Bmd0/CUnTJ5JAyYaW0bdNKBUP/RRB1Wym6lwaASNgBIyAETACRuA4IbA1QqklcM1AQio1y8esHuRLs5ginZrFhJBpuRvwM0IpmWYEReZaQtmSO9nRtmZPkWk2VDObyOKSt2KP8dC2+qIk0XK9+i+5SyNgBIyAETACRsAIHBcENk4oRag0Kwnh6s0miuSJUFJCBEU4Va99DkZsB33piFCKLMqnCKH05EvL1dJTKf3ekrfqZUdJG5EQH5fkcT+MgBEwAkbACBgBIwACGyeUzNqJtEVSCEGTHNLFjKI+6EVCpm1IIx/ZiQQiy9pBT4QSnehX7bW+WsJLvcgkPkQYo0w+NEMpHeKGoCL3xwgYASNgBIyAETACxxWBSYRyGyBoJlGEjzbjU+DbiMFtGAEjYASMgBEwAkbACNQROLKEUrOSsYyzgvUuWtMIGAEjYASMgBEwAkZgkwgcOUJJZyGO8Z5Ilo2ZufTHCBgBI2AEjIARMAJG4OghcCQJ5dGDyREZASNgBIyAETACRsAIDCFgQjmEjOVGwAgYASNgBIyAETACJQRMKEswWckIGAEjYASMgBEwAkZgCIG9J5S8Cig+ET7UUctfQ4AHnfwqo9fw8JYRMAJGwAgYASOwGgKTCCXELf4E4lDT6G2L5PHwztDT38j1jkhIFORzzgvGIV+Vfg/hsW45fchIIf2L793M2tUvFcV3eGZ6UYYu/dcT90N4R5t1bMc2abt9J+g62rAPI2AEjIARMAJGYHUEJhFKyEqPsBASRGBbT2VnxIoYiBOyqTj0wvI5P4EIOebXfY7KB4JHv1tSWCFceqfnFGINjuo/bW7rn4W2PxBZ+q1jelSOh+MwAkbACBgBI3DSEZhEKCGKIhNsc4HXLJKIJiUXfb4QET4QALYlY5ZMs2wiCZoFzHziAyKktkQq5KMlibSHjn6Puz3IxEI7fCI5w1/8NR38KD78ySc2igXSo/bBhv6rjn3Zo6d4oj0+ZY8dNuhSggn1ilX9kFz7lMJCZGuoj9SLqKlPaj/607b80mb8QDCJVx9iZD8eR/mnv3xafOnj0KfSLjox34hBx546PvQtYj/UnuVGwAgYASNgBIzAfAQmEUoREZpjmy8XbF3EkWtJNZIniIWIDjZsi8hB4PQZ8ildEavWh9qSH0gG36EP8YhEiZxBQPAvEkybIkLIFD967GvGDhvi4SNyg2/ktKP+KebWHhv5QgffbX/afsi3CFss1a+xPsa4KsvkxIcNpWKLuNEnYs/6TX+IV/hAOvHBV7G2/WNfx1zHQDr4wicfsMNfPHZsx77TP7UvHy6NgBEwAkbACBiB9SJQJpS6UEMktC2SJXJBaJAELuj6MAslAgYB4AKPvWxEUMZ8Qho0myU92pEPtaWSNkTSJFNJe8SndiEbIoSQF7ZbAhIJCm1KH5/qL/6IU+3KL/HywQe2ihk9vtjQrvolTBVvVoIFfYwf+SWOsT7SpggZ9uy3vqJfbRMfuuoHcnCgXfoqHzresqN/1CumMRIpG0r1R/ipDv/4FF4i5MiEndqkLWJsfciXSyNgBIyAETACRmA9CJQJZZwx0rYu1BAGkRQu6tomRIgGF/iWSGCDXJ8hnyIOsse/CGFsV34oNXMVZdrGD/b6KD7tU+IXIjJEzkSe0CUeEUwRLOSR9IlM0UfFTBk/bf9jXbstEhXl+FO/xvpI7MSmj8iX9ntltFcc9FvHB1n0Tx0YtTH12tExiHrkAv6ok7/YlnSREQextjhLx6URMAJGwAgYASOwPgTKhDLOGGlbYXABF8niAg5JgURBALiwizgiY5aLUhd9+RjyKUIJKYF0QVZFnGK78kMpX7SlD9voqw6/xIovYuTDPnKRO0oRF8lFIOkDX+KRHb6w4YNPtR99oAspwpYPMVFPXMgrn4wE4kdEfqyP2CquNpasbY4rfeajflDywZ4+69gji7Hp2KEvTIlNtvKzFDR/2mOLPb756ljQdvRHPHyEJXii648RMAJGwAgYASOwWQTKhFLkg3DYFnlhP5InkRku5pAAiBMkgIs/X130sYE06DPmEz1sRVbUdmxXflQqXrWLLuSCL/bIZY9/5BAj6StO4qcvyEWsop76IMIkAqNYiUckVLFFe2LgQ3vY6CMcFYfklMSjWCTHj4jdUB9lq/bBQaSOfmQETLHTf+pjPOqzyLH8K7a2Hlvhq1jps7bVF0r6I12Vwlp60R9+FAf9xybGKhuXRsAIGAEjYASMwPoRKBPK9Tdtj0cJARH/KTEx06nZzil2URfivKqP6M/bRsAIGAEjYASMwPYRMKHcPuZHskVmFZlRrH6Y2WQWULOCVbtWj1lEzeq2dd43AkbACBgBI2AE9gMBE8r9OE6O0ggYASNgBIyAETACRxYBE8oje2gcmBEwAkbACBgBI2AE9gMBE8r9OE6O0ggYASNgBIyAETACRxYBE8oje2gcmBEwAkbACBgBI2AE9gMBE8r9OE6O0ggYASNgBIyAETACRxYBE8oje2gcmBEwAkbACBgBI2AE9gMBE8r9OE6O0ggYASNgBIyAETACRxYBE8oje2gcmBEwAkbACBgBI2AE9gMBE8r9OE6O0ggYASNgBIyAETACRxYBE8oje2gcmBEwAkbACBgBI2AE9gOBMqH85S//buGvMXAOOAf2LQd6Q/G+9cfx7vYcdD7tFn/n//rx7+V0td6E0kTZ/yg4B451DvQGQ1+g1n+BOs6YOp+cL8ctv3s5Xa03oTSZONZk4rid+O7P9ItZbzA0ptMxPcmYOZ+cL8ct/3s5Xa03oTShNKF0DhzrHOgNhsft4uD+bJbwOJ82i6/zd/v49nK6Wm9CaTJxrMmEB6ftD05HDfPeYHjU4nU8RztnnU9H+/j4/Jl+fHo5Xa03oTShNKF0DhzrHOgNhr4ATb8AnWTMnE/Ol+OW/72crtabUJpMHGsycdxOfPdn+sWsNxga0+mYnmTMnE/Ol+OW/72crtabUJpQmlA6B451DvQGw+N2cXB/Nkt4nE+bxdf5u318ezldrTehNJk41mTCg9P2B6ejhnlvMDxq8Tqeo52zm8ynxx9/wuOxr8lbz4FeTlfrTSj3KHlfffVHizNnHjj01cWHgSjWnT//3GhSvuXNv7V4w+tef+h77aevXbztd966oE5+11H+6fuvONTOr/7KGxdXXXnVQRsXLrywaGVT273h+huWbdx6y60L/NG32MZUf+i/4+2XLN70a79+EOccH7bZPTnoDYbbOkacn1/8whcXt33rtgXnJ9t8Oa+1XSEU7flErl/+rksX5D7bnAvr6BPjAf4ooz/Oq0wunVXGEMYe7OXrKJbrzieO+Qeu+MASU3Dl+9v/+t8svva1r3dxGBrHdYwYC9eBIfml2GLJ+BjH3nW0FX3ceNPNi7vuvuegD2z/0b//D4urrvrYgSzq73L7lVdeXXzuc58/cnFVMOnldLXehHKPCCWDzpX/7cqDiw/bDDoMSPEkZ/tNv/Gbo4kNgYMwtcnGAJHJW70p+/ijPdlosBPhe+yxs11Cie7YhUYXPy6qp+45tcRD/tVur8Q2xmlCuXsy2DtmlfreYFjxsQ4diKTO0yeeOLc8R9mHTF526WUH315b7fkkfZ0D5L9kq5Scl8QHgY1+GCPG/ulcZQyJhLI9H2MMu9xeZz7FnGB8JxcoGb/BnjF+rK9D4zgEMI5lYz6m1Ik8xn9alHccrym+eroQtMvf/SeL227/9oHfT37yU0vZe993OCd7vrZRf/bsE0uye/rMAwfxbqPddbTRy+lqvQnlHhFKLjrMciiBNONBqQtVLKXXlprBY9Bp6xiE2gtIqzN1n4sEF5loBzlsZbG+3UY/i7fVY5+BDRzioJfptTII6JSYWnvvH00C2hsMt3ncmHkSUYA8sA15OHXq3gNCGc/xLLbsfEKP/MXfumal8Ml4EP+R07k19s/ausaQo3o+riufmKXm2JMTWmHi+HH82b/k3759eTwhnVkejI3jHDPyJLNbRaYcWzd5zGK6/vqvLD74oQ8f9OHZZ88vCRuzgMxSsp/Z7VIG0WVWdZcxzGm7l9PVehPKE0goNYPXEkcNULpYoMegxCBHyYyF/hvVLAgETBcc/feqOiV2e1FCrmU7dGXHIEUM+KNN7KijDfYlwx4ZcaLLF3/oU6cYqUeGncgl+5qB1cUR/aElHfUtxow/YaRZHPaFleqw8Xf3GPQGw20eozgjxSyl8lqzlMxI8Y/jWEzkcEYW4jmQnUf45LxR/us8ETnAp+rUPvmv8wpZnB1txwfarIwh8q0xAAzYjrbt+fie//xfllgpVo0Z9EH+tlWuK58+9alPLfukfyA0MaB9SCWEE2KZ9Q38hV1bz7HU2NUeJ8asOG5hC946zhwHtrNxTMcMe7UZ8045JT3i4JhpDNc4jK104ngqn8uY3v0nh8gZBBPCJmKpmUtkcQkcEioiig3kk6+IHoQUfeqYAaUtfCKTrpausZFMJbrMRtIGMkpmU/HDtmxjX476di+nq/UmlHt00V/XkreIVDtgaIBiUNCgwknPyaALkXQYGOSHOnQYlLILHYNTe6HSYII/4mBQYRu5fCgOtRnjxSdfBk1iiRc6+cMP/SA+9HTBUp90UdJFqo1TfaZv2LDPQCr/xBUxoK69AB/1geQkxNcbDLeNQZylhECS+3GWknqRiiy2Nk+lwzmgc5HcF6GIcrZ1flFP25xnIhjxgo9f5Tr1cUyI2+gRE7o6V3XuItf51p5P1OEXG30juYj9VHy0QXvErn6o/9sq15VPEEWOteJuCSVy5Yd0YqmxR5jEOrBjPG6PUzwG8diwDfbgzLFjH9vok20R/ViXjb3oKT7aRD+23Y6ntBfb0r2ScRYS8idSGLchcCKGWnbGPhJQ7KQDcWQb8occMggpZTmdbUgitoqBJey4raV4dJaYhLjwyTf2ZR+2ezldrTeh3CNCua6HchgwGDziF1kkWAxS8STXoMHAgB36DAroaPBhwGgHN10IdFHRycW+BjBt45sLBX7wL10NTLrYKYZ4QWFb+/KHHT4Uu2JRjJTEwMVMPmOc9Ev7bMtOF032hZnq1JZid+kZyjYHuO9Z596DDz50sM3sJQSDmSv+eWzt2FcOy56Sizd15D/nj84X5X/Mc/JZF3idu9TzRd62KV/kufwQA9s673W+VccQ2ojnltrUuaTzvNUhPvqn8096st9W2bu49uK4+667l7PQHDv+kWBGul3ylg/dFqH9WIJ3zAO2kWks03EFR9nF8Yl8IXfAER3sOd7o8JVNLME/+qMuG3vJEeUOcaCn48c2PpDTtsb82I7IoGSaKRTBhBTypZ6ZSkggddFOpBMyiC6kEX0IH3WaVYRIqg4f+KK92Ga7LXvaQ1+zpSaUvbPjH+t1YF3u7gLJoMMAE7+QzPiUqOoYtIaOFSeyBo+oIzkDdnuSM8DogkOJrkoNZAwSDGbRpwZ/9KM8+mdQ0yDFAIM/vuhgo4ETX+xnPolFg2CMFX38MOhpgMMfcl0IiVkXasUZ91s7tY8fYYa+2hJO7Pu7ewx6Q9y2j5FIAjl+7tyTB/mOHEJJOfQwhnJPeRpj5xwi99ucjPvkrC7mIhScf5wj+ucp+oznQTzH0Nd5qnEAO7VFnOjEc0Hnpc6nlhDG8zy2q3g0ThAnsUu+7XId+aSZRzCMx5ptZi4Z0+mX7qPM+iiswTPWxxwZOgbo67hzXMCUY6X8aI+N/IN7i33MCx1j9HU8FR95R5s6/sofbDR+qh2IWpzpYxviFr+QOvSZQUQOcYQYQv4kkz6kUWQUO/bVFvtappYdviCcajfaQE7lV+3JF/rErv19KXs5Xa33DOUeXfT5T1YnoUouPloqkUzlUDKLSLUnseQQrHbgiIMGgxT1yNBloGAbedumCCKDi+rigIdM/lQvGf3AvwZOxSufGqjQJwbiZ5vYFIvio64d4NDDDhsNcopTMdKW2qNEV37Qwa98UDeEA3X+7gaD3mC4zeMCUWBWityGPIhYIPvGzd9YzlZBKvnnMYtLuag8lQ55jk/yka/OHeq5iJOXbCvPyX3OK77UoR/PJ/mlpF46Ogew5xv12I5ttzr4gDyoD/IlHzrP6YvijP3Uecf5hq7stl2uK590/Nv4kTNDzaSA8qTVYV9Ya1yUTsR36BigC4bUgydjGWMmxyiOZ/KpkjqNrVFGLOzjT/U6nsSn/EQW45OPtoyEUiSPUnpxxhAZhA8yRwkR1BI1pWwoqYMMYh/3RQIhltSzdB7tIKCyoR2+sV7btC89yfah7OV0td6Eco8u9OsilAzq2aChGQBOAAYIdBgINDAw6FCHHgMdJfu62MTBXyeRbHXxYHCJg47s4yCEjPbxq+14gZRPxYNP6pGjT9y0wbb6RD80kHGxkg/pqU5xah9dbPFJTGxjA4b4b7FET7hQ7+/uMegNhts8RmMP5UAkIRNjD+Uob1vyF88B5S4l5wg5qXNDepwvbIuk6VzLsND5rnMFnTg+cE5w/tKWzrdWR3Gjo/NJ5wklsUbb2AfFpNjHYpXuJst15xP/PLRPcnNbBP9k8B16p3A79qjPOqZgHY9TPAboSk94gn8c1+VPJcetrdcxUX6RaxobaRt97IiFbfR0/KlXHLJRW5FQxiVp1YtkaqlZs4YihhBHyJ320cOP7rGMpA896pjBZBtCyTY6momk1LI4PtGjDb60jV/F1JJRxXyUy15OV+tNKPfoor8uQsmFQYNITHIuCvGiwT6DALoM8NLVwKSLGnoMJKqPpQYV/OirgUR6ImEMOrSFHnGwjw6DFjrIaVvtMzBRTxzUidCiiz0y/MkPupIzgPElduT4inVqg7app/+KIQ5+ETMNrm3/sPf3/2/v7H/uKo48/59MpPycSPk52cn+sLs/JEom0iZSogwkGWmDGGBGWSUBQnbDAg5JyAt2ogxvDg4JbwIMJGADBryAw4ttHL+CH2Nj43cwCQYzGiVSpLP6Xrau6+mn6lR197n33HtuWXp0+lR3VXfXqdv34+pzzu3PB9ZiOM1rA2hEXAIcaesb0ECvDUJ92wM59HmiuKSx02eAPqcUv/SZoXY4Io4p7kkP7XkbXiZbvA0+L7AB+7wP/nmADWqTriEEM9BFG7KHdtQ3/zxChjYYOx8HtZ3mset4ktZ1+AVxoWWqMV/4h/uLfEDXC/6CTLsG6bUnPcjJFj9K6xvZ4GsvrX9YJ3G9YCP9D0J6/fkajfaAOUAbQR6BIY0HckAebVUT/HGYo3sr0S6FPp65JF3arka/lOEkYCVb6JcgkmAT+hgXoBT90Bjn6WjFtLc+gHKOvuzpNRO0iOOIbRF6nxmX4wtrngI6xtofcA3d99ZiOK35p9lJAAM+swBLQAXul2vLTk5rnLPaD0BFAqhpj7freKJ74HHt8YftbsQE3Uc57fnNQn+USeSAOM1xEUBS/wBFbZsb46LxclCd5nhr+7Ji2lsfQDlHQFkbNKEf0LaIMWAthtPyCf7jh+wjsk6ABZTxx8va9ua0xjir/SA7hmwXZb/6HOesxFOfPphG34A4ZASn0ZfUBzKOlIW0xgIApWypZGvWZVZMe+sDKAMoe/vAzvqHLMY3DAC3FsO4zsO4ztO6jhFPES/TirVp9WPFtLc+gDKAMoAyYmDQMWAthtNatKOfYYBIxNMwrmN8Hs9fRyumvfUBlAETg4aJWDTOLxqL6gtrMVxUv8S8yz4bEU9lfot4m12/WTHtrQ+gDKAMoIwYGHQMWIthfNHN7hfdLF6biKeIl1mMy5oxWTHtrQ+gDJgYNEzUfMhCdxhfHNZiGNd5GNd5Wtcx4iniZVqxNq1+rJj21gdQBlAGUEYMDDoGrMVwWot29DMMEIl4GsZ1jM/j+etoxbS3PoAyYGLQMBGLxvlFY1F9YS2Gi+qXmHfZZyPiqcxvEW+z6zcrpr31AZQBlAGUEQODjgFrMYwvutn9opvFaxPxFPEyi3FZMyYrpr31EwXKTz20reniT3NUF7ZhQ7I/Sdvob57tz/PYw/cffCalmJ9332hzshZDTW/o8nPn3m/Onn13/IcXrB868WbzyJ7DzX07D47/Nu8/2ux64/To78DJM+J6OXRf8flFPAVQ8ngYQtmKaW99AGUAZSvcSh+WAMr+oCx83+57KV6txVDSGZLs3Xffa/7853dGv8hz6tSbzcmTp5tjx06s+Ltz2/7WtSCNvas372l++cKrI/AEcJ55572FgM1Fj6chfTZiLh/858CKaW99AGUAZeuXiPSBS15EgCIAACAASURBVL9YSs8l25CV2kv1hmg/nWPp+RB9o83JWgw1vXmVAyD/9Kc/N6dPv9UcP35yBThKMLl+xwHxc/ebXUeaV956t7nhhSWxPo2/b27a1azbutS8eOjEYAFz0eJpXj8HMW5/JtmKaW99AGUAZesXhfShTL9ESs8l25CV2kv1hmg/nWPp+RB9o83JWgw1vXmSv/PO2ebNN880J06ccgFkCpVf37hj2efuX57c3Zw+9x/N46+dav7XM680L5/4U3P4z+83kOfE3Pee3t08uvdwc+zMnweTvVyEeJqn2I+x+sFR85UV0976AMoAytYvCCkAc75Q2tpKtiFr08mpG6L9nPm3tR2ib7Q5WYuhpjfr8vfeO9ecOfO2OwuZQiSdHzxybMVnDiCJf4DI9a8cH8ElANObqZRiD1vkuB9z3rfGhxpPsx7vMb56cNR8aMW0tz6AMoByxZcJ/zKQApDX15Ql25DV2OS6Q7TP51dTHqJvtDlZi6GmN6ty3A+JeyEJCGuPbUAJ3wEkL9zwx1G2sgYoKV6/9PuXR/dezmvWcmjxNKtxHuOaHECmvrVi2lsfQBlA2QpwaeDhnL4Yao+S7bB//s0Ikn9qfU76ku0h+F6al7UYSjqzJsMT2QDJ0i1tCzrTLW9kJekfspSIG2x7dwGUFIM4/vL5V0dPj8+av9vGQ37Rjm26UTc9SApf+32txXKuPIAygLIVEKUPJf9CqClLtiGrscl1h2ifz6+mPETfaHOyFkVNb1bkAEnvwzUWOGr1T+89tOxzh4wkABL/zv7HX8f3U9bEXJsutsOXTrw1F/dZzns8zUpcxzj8wDdpX1kx7a0PoAygXPZFki76UiCnbUrPJduQldpL9YZoP51j6fkQfaPNyVoMNb2+5XjQZlIZSQksN+w62GA7mscUHsJBVhKAyeWTKuM1RLO+FT6v8dR3PEf/swOQ6bWwYtpbH0AZQNn6RZEGHs67+jKRbIf92PL2xJcWO5LcWgwlnT5leNimy3skJXiEDH3gDy80p78Tb55p/njk5Ggb+v6dh8YvN8eLzgF7yCRetHGycAmoRX99XoO2vuctntrmEnWzC3nTvDZWTHvrAygDKFsBUQpqzxe+p41kGzKPrqfNEO175u1pM0TfaHOyFkNNrw85wE4DwFI5tsvxTkrYxi/jAFi7mNvuo2+Ontr+9bYDDd4/6Ym7nDawOYvb4PMUT11c57AxfOi0YtpbH0AZQNn6RSAtJjlfCm1tJduQtenk1A3Rfs7829oO0TfanKzFUNObphwvI9d+waYEJGELLzeH3WnNA68D2rx0bJTJTLfO22LRqpu1bOU8xNO0rnn0MwzYtGLaWx9AGUDZCnDSgmF9AXjrJduQefWtdkO0b83ZWz9E32hzshZDTW9acoBfCTSmOgSRNRlIPE2+a9fu0d/u3XuaffteGf8dOvR6Fpzi13KwTd4FXCJbOSv3Vs56PE0rbqOfYcAkrmNX/wIoAyhbAU5aNLzQYrWTbENm6Xnrh2jfO3er3RB9o83JWiw1vUnLAW/Yik7BMPccv5DjzURiyxtPjWP7m+6hpP42bny8+cd/vLD57Gc/Z/5dd92q5sYbVzcPPfRws337y6NsqOavUeZy/9Hqey8BpoBUrZ9pyWc1nqY1/+hnOCBJ19KKaW99AGUAZSvAUcDxowUr3npuk5e9+lY7bpOXLT1vPbfJy159qx23SWVLx1tP9tKjV99ql9qlc0vPW0/2PEdrMfTY6LpN7RY37osEFAJK28YGgCR4JHCUjps3PyNC5BNPPNH85S9/ab73vavFeg6fl156WXPbbWtHgKmNadcbp0cP9nivs9Tuvj/2+8DOLMaT5u+QDw/+JnFNrZj21gdQBlAGUD50/slq6QtMk2kfbK19rlyyn2tDay/Zhkxrnyvvy77Ur7UYSjqTlAEmS98r6QFJ+l3vnD4uvviSZcB48823NC+/vKM5fPjI6A9l/D344EPL2nGgTMtr1vxchctasMRWel8/4TjpeLr82VeWfQ5/us0G6DffeW+ZjvV5feHofLzzc5Kfw7B9HratmPbWB1AGULYuRNKHzlqsvPWSbci8+la7Idq35uytH6JvtDlZi6GmNwk5tpulDKFHhq1t7f5IyJGJLHlv5b59r4qQePr06ZHrAJX4h/MUGj3nF1zwleaee+5tTpw4uSKbiod4Sl9DhPsq+4DKScUToPDSp/esWP88QLn75J9W6LWtBQGU52FqEp/zebNpxbS3PoAygLJ1IZI+GG0LVU6dZBuyHBttbYdov22+OXVD9I02J2sx1PS6lpfCJCARW9fSeACSAE0PkGptduzYuQIUt2zZMtrqhu+w7Y1/2PqG3AORWpu1a3/VpA/3AArv2H6g6HPfB1ROIp4OnXmn+drj8quXPEB55943svwHAJXiKWSLCZpWTHvrAygDKFsXImmByQGXtraSbcjadHLqhmg/Z/5tbYfoG21O1mKo6XUpL4XJM2feFr/4uwBJDpjSwzjY4sY/AspamOSQuXbt7SsylgdOnil6n+W0obLreALcfeHRHeq65wHKm3ceVvXTdeChpeNiTHUZ72FrvsDUimlvfQBlAGXrQiQtDOkCVXou2Yas1F6qN0T76RxLz4foG21O1mKo6XUlL4FJ3P8oZSXxEA4gk8NgF+W77rpnWebxG9/4n83Zs2dHfwBKlLHl/bWv/dOydhwSS8rYCsdrk8jXb5891+BF6blxPU2o7DKesPVszdUDlOl9l5GBnC+go/jv62jFtLc+gDKAsnVBkwLcWgC99ZJtyLz6Vrsh2rfm7K0fom+0OVmLoabXhbwEJvE6H+npbdjKedAmFzR/9avbx7AIoPzJT34yPgcs4kEdyEvAsU3nwgu/uuLhHbweKPf9ldOCyq7iCZlCz+fVA5RphhP3Y3YRv2FjMcDUimlvfQBlAGXroiYtKJ5F0NNGsg2ZR9fTZoj2PfP2tBmib7Q5WYuhplcrx9PcuVAnbXEDLgGZuba87XGPJr2T8rXXDjX33//A+O+Xv7ypueaa60Z/bVDYRd2aNb9Ylq0s2QIHVNZeN0u/q3hKs4r43GLrOoVDCyjTJ7yhb80h6hcDFL3X2Yppb30AZQBlK8BJAekBFk8byTZkHl1PmyHa98zb02aIvtHmZC2Gml6NvOTVQMhApn3iFUBdZiXxazqAVtjFGNP+rHM8SY5f0nnggfUTgUxkK/HrPDQOPLADSPTENLXBK4VIfxLHruIJIMgfxKF7G2kedLSAMt02B6hOYt5hc7gQasW0tz6AMoCydbGWFhFa6GqPkm3Iau2S/hDt09xqj0P0jTYnazHU9ErlyCjm/C43gFGCyS7ulYRtPAUOgJS20UvnyPW2bt3W/OY3d7p/ZceTzdy06ckxFOG+SkBiTsw/sufwWJ+PtYtyl/GEp7vxhDZ/jU86TwsoPU94w8amQ6cm5pMu/Bo2+gNWK6a99QGUAZStC7X0IU8XvNJzyTZkpfZSvSHaT+dYej5E32hzshZDTa9UnvNzigC+NFMI8MuxIW1tYwsbkJoLkRgL3he5tHRg9JerD7j86U9v7OQ+SzwJzq9BLlTi5elcv6vypOMp/UxbQJnzhDeyl3F/ZX/g1lUMdm3HimlvfQBlAGUrwEmBmy54peeSbchK7aV6mn1PhsTTRrOfjqP0XLLvGZenjWQbstKxpnp92Zf6tRZDSadUhi1hCfAkmQaTOdnN1C6ykdLT4Xw+gEY8WY0MKMAT44AdvI9y9eqfN9dcu0r8W7fujubue+5tnnpqswmbx4+faG655dZqsLz++h8su68yByrxUM8kXnw+6XhKP0sWUEovQ09t8HO05/EQ5QBMK6a99QGUAZStECEtNnxxqilLtiGrscl1Nfse4PK00ezzMdSUJfuecXnaSLYhqxkv1+3LvtSvtRhKOiUygFoKeG3n2Ibm/eDdkqUwCTBMM51kG1lGZCsBmwSP6bgAkxpIPvvsc2rd7evuaLZseb45eUrOBiLbiafDPTGptbnqqu8WQ+XVm7uHp0nHE/8coWwBJa4zso7Y+sYfXXccsZUuASfdr8nbRnlxwdKKaW99AGUAZStESItMuuCVnku2ISu1l+pp9rUvrly5Zj8dR+m5ZD93jFp7yTZkpWNN9fqyL/VrLYaSTq4M0Jbzs4fpPZOAQQ32Uvjj522/ooNMZRtEcjtaZhIwiX9PPLFJhUoC0ZtuvrXZtm37MvgjP+7du6+54oori8GSQ2XugzqP7u32fspJx1P6WfIAJflZOgI20yfHI0u5uPAoxYgV0976AMoAylaIkIIvXfBKzyXbkJXaS/U0+xpk5co1++k4Ss8l+7lj1NpLtiErHWuq15d9qV9rMZR0cmU5D9BgW5zbz4VRAkH0Kd3jCJBExpLaWcelpddEWPzxT37W/PWvf23ef//90R/OCR7bjj/80Y9H2+L8heU03wcffKgzqPT+Bji2vo+dOf/ydBpL6XHS8ZR+lmqBEvO89oWlFZ/t3Pmvu31d8+G/+9Cy2M21Ee1nE2StmPbWB1AGUK5YaPiCJi0AvL6mLNmGrMYm19Xsa5CVK9fs8zHUlCX7uWPU2ku2IasZL9fty77Ur7UYSjo5MgCcBW1Uj4dtuG0AYe42NzKZ0n2SuSBJY9K2u/F6IPw7efLU6PjS1q0uoCTYJLBMoffgwUPNJZdcWgSWuKeS/If3VHpfft7l1vek44l/jlDuAihhI7VLfvQeAyhnEwa916+tnRXT3voAygDKFQsNX3ikINQgJVcu2YaM919T1uznjlNrr9mvGTPXlexrY8mVS7Yh4/3XlPuyL/VrLYaSTo7MC4TYnk7hKieTCABEX6kNnNc+FU4QSMdf/tvNY7chS0n/IKc23uPqNb9o9u9fGoMgfIvs5Y03ri6CSv709+b9R90xi7Y511VrS77QjpqeV55+7roAyvQ+ypKXnwdQBlBqMU/yiQJl7pec1l77IKYfvNJzyX6prVRPsg1Z2q70vA/72nXKlfcxdvSZO06tvTZ+rX2uXLKfa0NrL9mGrDQOU72+7Ev90mKnHSUdrwxgRJk+65g+NIP7Gy0dXo/26bi6evH57373yDJQPHz4iOgugKEXJNN2jzy6ccX9lXfddXfR53HLlj+MfeF98rurp75FxzBheo1yz9PPkgWU0rsseZ+oT21676Fcs3rNaJsbW92f+dSnx1veyFp/+YtfGtdd/s1vja4H2lAZY1j/wPrmYx/56Og/FLz9xV+/aHz9+Fij3A+0svCtKgZQRoZyxWLDFx/pA65BSq5csg0Z77+mrNnPHafWvg/72lhy5drYa/zNdfuyL/VrrZCSjkeGzKD3QZr0vkk8lMNh0Srjfkk+JvSdC6RWH3fedfcYFvGKoHvvvW/FH+QpKOacI1t55MjyJ5Gfeea5Iqg8dOj1kU/wkI73fsr7dh5c5kfuU295UvFE/fPPEcptQJn+2g7a7j55/h5dvMyc/xoP2fY85f3kpidHwIgjxrbqmmvHQAkZwBFgSe22vrS1oSwm5NABREIPYAkopUw1QJXmG8d+IJL73Yppb30AZQBlK8DxoKNyLrxo7cleeqRFr/aY2qVzbTy5crKXHnPtaO1TuzjX2ubKJduQ1fqc9PuyL/VrLYaSjkfmfecktqm5PbweyAuigMD0iXDApHeb3YJIXo/t9+3bdzQPrH+oATjSHyAwBxqttri3Ek+Dc58899yW7Ni+7LJ/HWc88RJzir22YxcP6Ewqnsgf6fjbgFJ62CbVT88BmNRX2xEgiIwjtSFYpHN+BCyiHrJPfvwTDYAR8EgQCcCk7CUBKtePcr9QacW0tz6AMoCydSGWPui58KK1l2xDprXPlQ/Rfq4PtPaab9Ivn9LzvuxL/VqLoaRjyXKyk+lWdw4MppnN0tcLcXBEGfAI23iQB3Ox5ot6ZBYBgusffLjpAjJf2rptWb8lUHnPPfeObXi3vtHOM1+tTZfxlP4Ot+fzRj/TiOxkLlDi3klsgWtz43JkIJFhJBkHSsAitq0BjPRHQAmYBFQCSNOtbdLjoEr249gfVFox7a0PoOwJKLUv+ly59iH0LEyeNpL93DFq7SXbkGntc+VDtJ/rA6295htPTHja9GVf6tdaDCUdS+bNTqZb1V49QF96z2QtTAJkke30AqTlAwAm4BIZRysrqdVDn/fz4IMPZ3/+9+17ZWQDW9/ep75rXiPUZTzVACX5Ddva6Xsmpc8ofnbRC5OwTQCJrWyc0z2QKAMUCTYpE0lAiWwk7psEaFI2Em1om5u2v2lbnOYRxwDKZYtBGhDal1muPLVL59KHpkRG9vixxI6kw23ycq4PtPbcJi9LYymRcZtU1saSKyd76THXjtY+tUvnWvtcOdlLj7l2tPapXZxrbXPlkm3ISmJE0unLvtRvlwAA+97sJLa1ObzlbHUjg8jnUgOTsCW9ZojbrynjwST8HGMpWD766MZlc7311tuy4pxvfeMl5lI8prJfbzuwrM+c+XcZT10AJY0dv5IjZSwhp6wmtfUeCSIBh/weSoJNyNEGGUcCSthOt8sBlmhD2UyCS+84ot1kYdOKaW99ZCgHmqHMBQytvfRB1trmyiXbkOXa0doP0b4211y55pv0i7f0XLOfO06tvWZfkluLoaTTJvNmGdMXe3tf7ZO+XigHRPnWthckAb0ATmQv8VOJr79+pFk68Nr4D5mkNFsq+acGLLduPX9PJexcccV3staBhx/+3RgQPQ/o1Dzx3XU8Sb6cdxm2vDlgzvt8hj5+K6a99QGUAZStC7f0QdK+5HPlkm3Icu1o7YdoX5trrlzzTSlApnqa/dxxau01+5LcWgwlnTaZ5ycW0YbbALBx2Gsr83suAXs591zCLjKjKczysaCM1w0BEvlcdu/Z1/zh+Rdb/3b8cVdz8NDrrfbxu94lT4PjReo0TjzBfcEFF7rXggsv/OoIhqHvfTdl6U8ydh1PNOehHJF9xJb3UOazCPOwYtpbH0AZQNm6aEsfJu1LPlcu2YYs147Wfoj2tbnmyjXfpGBYeq7Zzx2n1l6zL8mtxVDS0WQAsTYYpLr0yWxkC6mu7YjsJ+8799VAgE8OpNwWMp24p1N6wnzvvldFkHx5x87m3LlzzUtbt6+o37Z9R3M4eQUQ7++ppzdn3VuJLXN+Xx1+P1y7/pKcv/Dck6VEGz5eb7nLePL2Ge0mu+W76P61YtpbH0AZQNm6aEsfNGkxL5FJtiErsSXpDNG+NM8SmeabUoBM9TT7JWOVdDT7ktxaDCUdTebZtgawcX1vdhIwyPWQZWyDz7QOY+P3bJItgKQFpi+8uHUFMKZ++9vf/raiDTKagE0NLJeWDmTdW3nTzbcum8OqVd/PWg+wZY95e7OUeN0Q+cl7TP2SnnvtRLuAxFmJgTSGS88DKAMoWxdsKeClL/gSmWQbshJbks4Q7UvzLJFpvknBsPRcs18yVklHsy/JrcVR0pFkgLUU4qTzNMvozU7yB2dy75vU7nEElEoZST5u3DOZbnXve+XVkdv+8te/Nvijf7t271nRlnSxHZ7OHX7E0+A5D+w8+dTTY8gDIErXX5NRlvLts+dcT3yXvEKIfKEdpdgJWcDjLMeAFsu58gDKAMrWBVv6EGiLea5csg1Zrh2t/RDta3PNlWu+KQXIVE+znztOrb1mX5Jbi6KkI8mwjc1BTCvzLKE3O5kCoRdCMYZUF2PHGLw2Dh85ugISj584MXIbtrvffffd5szbb4/Oj7yxsi0BJY7IdErZylyoRHu6Bg895H+VEO6lpPtH79h+wHziGw/nUD/eY1fx5O0v2gWMTjoGrJj21s81UGpfNrly6WLl2tDaS7Yh09rnyvuwnztGrX0fYw/ff24Ue5rvUzAsPdfsa7GQK9fsS3JrMZR0JJlnuzuFO5xr4MnlyEhSn15w1WAS91Dyh214P1o5vUcSIIl/OJ49e7Y5dvwDwMQ9pBwgtfKevR+8G5LmhGMOVN6+7o6xPwCIF1zwFfeauen//1Qg3jXpid8XD50Y98XHq5W7iifNfsgDIKcdA1ZMe+sDKD/7OXExyf2C09prgaG1z5X3YT93jFr7PsaOPrXx5Mr7GH/uGLX22tg9X8CeNpp9bTy5cs2+JLcWQ0knlXm3uwFcpOvVSSHUC4O455JnQ9Fv6fsq9+8/sAwUCShT30GuQWQql6By9+497gd1+M8z4rVA3hjBeynpGnxz0y4TKnO3vVOfpOfUdxwDDOclBtIYLj0PoAygbF2opQ+Ed2G32km2IbP0vPVDtO+du9VO840HFj1tNPvWuLz1mn1Jbi2Okk4q8zzdnT6M432opiQ7ib64HsZbCpOUtQRU0sM5uFcS91Gmf233UKZAiXMJKjdsfMwFlfh5R7oOuVlKvHYIuhv2HTGBMvdp7y7iieYVx4DOWYgBK6a99QGUAZStACcFu/dL32on2YbM0vPWD9G+d+5WO803Hlj0tNHsW+Py1mv2Jbm1GEo6qcyzdZ1mGj3vj0x1vNlJngnFWJGptB6+IXCUjhgrXin01ltnRq/uwet7jh49Nnq5+c5de8TXBkkAKcleeXX/GAzJr3iaW/s5Ri7nWcrbblvrXhvoN76Pn3nHBErE84GTZ1aMkcaaHruIp9RmnAdY9hkDVkx76wMoAyhbF2kpyL1f+lY7yTZklp63foj2vXO32mm+8cCip41m3xqXt16zL8mtxVDSSWUe0OOQh+yhBG6pjD/Z7b13Eg/bpOPzwGvaN+aEPtNt89Q2nQN+kXGkLKYEj5oMcEp2cMT9lBwctTLAk/SQdfTGR+62d85Lzq14ivrwwKJ6IIAygLJ1kabFnB+9i7rVjtvkZUvPW89t8rJX32rHbfKypeet5zap7NW12pG99OiBRU+b1C6dW+Py1pM9z9Fa3C0bXjjkYObZ7gbQ8b69UJhudXt/CpKAkkCS951TBjgDLDV4lOSAUA7c6G/9gw+7oPLw4SNjP115pf8nGWnb+/6dh8ws5Q3P7Rv3YfnCiqeoDw8sqgcCKAMoAyg/+8GTz16YoXbaFw/V1x4l+7U2SV+yDZkHFj1tNPvUf+1Rsy/JrcVd0uEygBDBmHZMs4aeJ8L5Oxu90JpukXv1aNzay8/5fL1lbIvnZCuxdc5tnzp12gWUAE/SwxPc3tihp713H33TjOuc+yiteIr68MCieiCAMoCydYGmhZwfvQu61Y7b5GVLz1vPbfKyV99qx23ysqXnrec2qezVtdqRvfTogUVPm9QunVvj8taTPc/RWtwtG54MIIdD2PPcz8h/IhH3LxL0tR3T7KT3XZOwiaypNdfcesA2foJRykpKMv7TiujLk6XES9FpXDkvOl/DHurxxOyZd94b90P9SUcrnqI+PLCoHgigDKCcOaDU7qfKlUtfBpB5ocVq14d9a0zeem3sni9eTxvNvnd8VjvNviS3FndJh8s80MbvhQQotkEh6kq2u9PspPel6ZOCSfIRxuGFSvyaDunheNKZpdy/f2ms5932xkvOqa+rN+8xs5Ten2G04inqwwOL6oEAygDKVsCiBZkfrS97bz23ycu54Ki15zZ52Ts+qx23ycuWnree26SyV9dqR/bSowcWPW1Su3RujctbT/Y8R2txt2wA/ixAzL1/ksOhd9s6vQfRs62OcfO+rLmW1iND693+TrOU69bdYW59b9jw2BgO77rrntY1i8cQ3Ufp+dUc3Gvpmb8VT1EfHlhUDwRQBlC2Ls7SAssX7JqyZBsyDRBz5Zr9mjFz3T7s8/5rytrYPbDoaaPZrxkz19XsS3JrcZd0uMyCyfT9kwA4SwdPV1Mfnqe70z68EAoY5rBLfU7ieOzYcdfWd/puSrwayPps86e9t29/uXXN4nGCtpjr5v1HzQzlr7cdGF+TNv9Y8RT14YFF9UAAZQBl6+IsLax8wa4pS7Yhs75cvPWa/Zoxc90+7PP+a8ra2D2w6Gmj2a8ZM9fV7Etya3GXdEjm2b5OH8jxbJHn3j+ZZhk9T5EDavlWPM1pkkc8eCPdO8llyGRyyPU+nEM6OfdR4hd2MF9sZ1txi21xj2+seIr68MCieiCAMoAygDKe8h5/kVpfut567YuZQ2FNWbMvya3FXdIhmec+RTxQQ+1x9DyQw9t7ADTd7vbopKDL+5xUGaDL4VErI5vJx+B50fnS0vkMove3venBnLfPnjOBEj/TyMekla14ivrwwKJ6IIAygDKAMoBy/EVaA3lcV/sy5m1qypp9SW4t7pIOyTyZwPQJb2u7OwU9qz3q06e7PTophNKcJn30ZCnTX8/BPZLWzsOWLc+P43TVqutb1y2Kreuv/8FYx/OfIY9vauLJYz/axK/mTDsGrJj21gdQBlC2LsxSYNNiXXuUbENmfbF46zX7teMm/T7sU9+1xz7Gjj5rx0362vglubUYSjok87wyiN8PmbtF7rkXMr1/0pM1TXVoPtM4Hj7yhpmlTJ/29txH+dRTm8dw6P0ZxtxfzPH4pyaePPajTQDltGPAimlvfQBlAGXrl7wU2PSlXnuUbEPmBUarnWa/dtyk34d96rv22MfY0WftuElfG78ktxZDSYdkHqDk9yl6YI9nND3t04ymJ2ua3nNJ85nGEXPStrq5nI8F29nW5/nuu+8dAyXujaRYsI7Uj+fVQdgap/basSaeNJshD4jsMwasmPbWB1AGULYuzFKQWwu4t16yDZn1xeKt1+x7x2e168O+NSZvfR9jR5/e8VnttPFLcmsxlHRINgtAmcKhZ0w8a0pzmebR815KviWP8Vqfa7xeiOYwKaD0vIuyJp5o/HEMgJylGLBi2lsfQBlA2folLwW99WXvrZdsQ2Z9sXjr+7Lvnb/VThq/peOtl2xD5tW32vVlX+rXWgwlHZJ5Hn7hGUpAknV/I89Qel4ZxNtjXLljorlM8+i5jzJ9H6X1ueZAuWXLH9yxSvP+8XP7zAdzAigD9Che+YAzVwAAIABJREFUFulorZHe+gDKAMrWhVn6UFkw4a2XbENmfbF46/uy752/1U4av6XjrZdsQ+bVt9r1ZV/q11oMJR2S5cJbbvbQ074EKPlriWgu0zwuHXjN3PauAcp9+15xxyrN+76dBwMo3w9gpHiI4/lYsNZIb30ApQKUXmix2mlBa+l56zX71he+t16y79W12km2IfPO3WrXl31r3t56afzWnL31km3IvGOz2mn2veOz2mn2Jbm1GEo6JJsEUPKM5qSAksbf13ESQHk72/IOoDwPA31d4+h3ONfAWiO99QGUAZStECEtGhZMeOsl25BZMOGt78u+d/5WO2n83rlb7STbkFlj8tZr9q1xees1+5LcWgwlHZJNAij5/Y2TAsrIUH5uHMt0LSNDORwAomsax26uqbVGeusDKAMoxwuvBAvSB1ZqVyKTbEPmhQqrXV/2S3wh6Ujjt+bsrZdsQyaNo0Sm2feOz2qn2Zfk1mIo6ZDM83vZPOM4jXsoc8dEc5nmEa8F4k90S+WaLe9Nm550xyrNO+6h7AY+yJ9xHI4/rTXSWx9AGUDZujBLi0YJYEg6km3ILJjw1vdlX5priUwav3fuVjvJNmQl45R0NPvWuLz1mn1Jbi2Gkg7JPBlEDpQo5zyU42lf8pQ3Xi1Ec+jj6HnKm/ttEZ/yXnXtdc1//vtPjv7+23/5r823v/Xt1j/pOn7mU59uPvx3H1r2t+72dc2a1WtGshTaJRte2aprrh3Z3L9/qdPYuvyb32o+9pGPijYfeODB5ujRY6O6F158qfnhj25o/uVfvzH6w68gQeYd/6TaLS291jy6YWPv46iZn7VGeusDKAMoWyFCClIJIEpkkm3IvFBhtevLfokvJB1p/NacvfWSbcikcZTINPve8VntNPuS3FoMJR2SzQJQYtudxoNjvIfy35tJvTZomu+h/MLnP78MBHft2t1ofxf9j68viwGKB4DYxV+/aEVdG6SRbu4R/Wjgl2uLt//yF7/UAIy5DGXA4uVXfGcElE9v/r8jiCRwA2Re/X+uHcNmqjvJ8527do/GRX1gTBgnnc/j0VojvfUBlAGUrRAhfThKAEPSkWxDZsGEt74v+9JcS2TS+L1zt9pJtiErGaeko9m3xuWt1+xLcmsxlHRI5gFKfk+kJ+PIAfHcuffNjGb6qzeePlIdms80jtP4pZzVq9e4YpX/Uo7nxeYe/9TEE7efAmVbhvKT/+nvVwALso/ITgIeuV2UNUhL2+WcA/o++fFPrOgrx4bUFjYx3rQOGcjf/vau5syZt0fAhmxl2qaPcwAkYJb6RoYSWVOAJsnm7WjFtLc+gDKAsnVhlj4YEkCUyCTbkHmhwmrXl/0SX0g60vitOXvrJduQSeMokWn2veOz2mn2Jbm1GEo6JPNkAwGd1B5Ha8ubA6WnPezN0295e+6fjN/y/vdmz569ze9//8joD/eEatlJkvMYQ3nrS1tHQImt6LQO8EeQhna0NY4jtqzxBxjF1jh0eUYToIpMJNWRbcigT+d0pK1wbo/qYJe25DmMkhwy2E2hGHAGSKPtZCqTXX689da1yzKEyBYCRNEG4AcABJwSoOIIOKWsIsq0jU4ZUOhTO9TBDsAWcmqLI8YJOcrIovJxzVPZWiO99QGUAZStECF9KEoAQ9KRbENmwYS3vi/70lxLZNL4vXO32km2ISsZp6Sj2bfG5a3X7EtyazGUdEjmyQbiC4Xa42gBJep5e8+T5DwLCl2PTgquvM9JleEL6QGcVHbs2PFlPrjp5lvNzz1+npHGLcWcJFu79vaxzqce2tb6Hspvbto1bkv9SMeaeOL20gwlgRc/4h5LZC6lDOWTm55cBoXcNkEawSFBJwCOtsjRhuQoo1+AJu7BxHl6/yVkpEt9QR82oUf3bQJgUU9ZUtgBiBKMoh1soR1BcQqvgDzcLwk7ADuCP+qXH9GO2hLcERhCD3+wgS10soX2aIN+aOsc59QP2gESUU9wy20CYmkM1CfakmzejlZMe+sDKAMoWyFC+mBIC3eJTLINmRcqrHZ92S/xhaQjjd+as7desg2ZNI4SmWbfOz6rnWZfkluLoaRDMrx+xwLEFNw8sMdf64MvJKuP9MEcT+YUNvmDLzSnSR492ckXXvwAOGgcp06ddn3mqf2JEyfdcYp7LaGHX8CxgBJb4tRH27EmnrhdD1ACJqFDR64P8OPwiTJkADiUAWkEb6TH74ME4CEzuP6B9SPAgw4gFW1ScKSMJgEo2QMYEgxyOIQM9gguU5CljCTpYNxkE0cAH0EbygR6vA2VAYTUlrafAX8EegSbZBe2UIdzlNGWYBO2qB2VuU3S4fBI/XAZ2s3TnxXT3voAygDK1sVZ+lCUAIakI9mGzIIJb31f9qW5lsik8XvnbrWTbENWMk5JR7Nvjctbr9mX5NZiKOlwmQV76f2KgD9Lh2ccUbbap31gC9zSQf2JE6ca3KfJ5zOpMrKOaSZSOt+z95Vl4/nDH543P/PIYNK4c352ES9Ah97m/UdNoLxj+/kMKPUlHWvjiWx+96qrxk9509Pe6fFz//AP4ye/SY+OBG2AQJLhSJCGemQJAXNUD1Ckc0Ad6iGjTCNlJwGZpJPaJDllSAkGqV+cp/0CPNFHqoO2AM+0P0AgAZoFlIBC2uIGGCKziGMKghg32hJ8UuYR7fEHOT1Rzm1SO2xpox5tKVsJmwSU6JN8M29HK6a99QGUAZStECF9MCSAKJFJtiHzQoXVri/7Jb6QdKTxW3P21ku2IZPGUSLT7HvHZ7XT7EtyazGUdLgMUGbBG4c2T/aQZxy9cIh3XPJxed5HiXHzvrh+l2X0gcyjBJCp7PSbby2bx82O7e4NGx4b66xd+yt3nCKbiXkCFq0M5f07D437aPNNbTyR7fvvu7+5/FvfFv/wSqF777l32R/p0RGABhhD9pBkOALOCNL4VjPqeKYQwIl62n4mCMQ5t8dtEjxyGcEgwSHAkvdLcvTHxwYbgFmeyaR+OVDSfYsARKqnYwp4gFAAH9oSXAII0Z7Aj2CQ6lMQTNvRE+aww+GSxkAyaXzUZtaPVkx76wMoAyhbF2fpg1ACGJKOZBsyCya89X3Zl+ZaIpPG75271U6yDVnJOCUdzb41Lm+9Zl+SW4uhpMNlni1svrXsue8SkMr7OHnytAmtAEiu4+mHQDh9cIjbqS1jHJ73TgIssSXO+zvp3O7m909eeullrjjNfcIb2+J8bFq5Np7IbtuWN+o4UH7hv39+xdgAYxL8EcAB7ACdaINtcMpoQo4xUDuesQTc0XY0jRNH0iV4hAw2YRt90H2SGBPqCE5JDrvojzKUsEdl1KEd748DJaARGUPc10htUObb2igD6NAOQAkohIzgEnqo59lFtEF7yoQCHJGlTNuRHYxDglDU0/Y4jW/ejlZMe+sDKAcKlN4vZqud9MGQAKJEJtmGzBqTt36I9r1zt9ppvim5jpKOZt8al7desy/JrcVQ0uEyz6uDUmAjkGs78vsoPVlN2Eqf9vbALo0BX6B8Xl2UMW4vTAIoU3BY/+DD5uf9hz/68Xjchw697oJJxGTOAznIXp55571xP22+qY0nsl0LlMgCEgySTRwJ/sjXgDtAG9pyICSgQ3uuBzm3hzJlQ2GH/gCIsAeohIxgEu0BrZDjj8ZDdikriXER8Kb9Aew4QALkAJkAQvwR+EGPMphoDzgEJEJOIEhxT5lEnpGk7CNsQh8wmbYj+2SHxoExoB/AJEFpOo95Obdi2lsfQBlA2bqgSx8ICSBKZJJtyLxQYbUbon1rzt56zTcl11HS0ex7x2e10+xLcmsxlHS4zPNziumDOZ7taPqCQl/ebe90+9qrR1CJcfHteT7P3DJsere5AZM7dy1/6MX7MA6gk8aW85OLuNcSeruPvmlud1+08Y/jPqgv7VgbT2S3dsub7AzxOC9ZP4wTAMs/y/N4PayY9tYHUAZQtgKc9OGQAKJEJtmGzIIJb/0Q7XvnbrXTfFNyHSUdzb41Lm+9Zl+SW4uhpMNlXmjjOp6MY7rt7c02pllKTwaVgBJHPODDHwri4/aU0T8erEnvjWw7B3jy2wLQjyc7iXg4cuSNMex5t7sRk3T/JO6NtO6fxO98e+aONtY/r51opz8Jje1lnqGcVV8he4ks56yOzzsuK6a99QGUAZStACcFpAQQJTLJNmReqLDaDdG+NWdvveabkuso6Wj2veOz2mn2Jbm1GEo6qczzYA5/aMYLoRyyPE97AwjTbCjG6oVRDpaYE8A3BdR07nSOLXpkSPfuezULJgGa6XsnDxx4zfU5X7fujvGXNZ7YlmJNkl111XfHeni/pAWUG/YdGben+WrHLuJJsx1yHTLDN5PzjRXT3voAygDK1oVd+hBLC3iJTLINmQUT3voh2vfO3Wqn+abkOko6mn1rXN56zb4ktxZDSSeVAaQ4jEnldDva86BNquMBV/QNEORjxDY2Mo/SuDwyjBXbdsh2AowBuugD59gm57Zf2ro9CyhxXxofK8qeF5kjFrZt2z7Wve22tW6gxNY4+sF9kRZMov61U/77S7uIp9QfcT45WArf2r61YtpbH0AZQNkKcNKHUQKIEplkGzIvVFjthmjfmrO3XvNNyXWUdDT7bduiOXWafUluLYaSTirz3EeZvivSs+0N2OMZQm+WEn1xPYwXGUQOfh6QLGmTc53Sd05inBs2Pub6jK9mT/XmvMwc8Ujb3Z73T+bcP4nxW//S2IlzG2jCR/36yIppb/1cA6X3y9NqJwWzpeOtl2xD5tW32vVh3xqTt76PsYfvV41iT/O9BIclMs1+Doy0tdXsS3JrMZR0UhkygB74Ktn2Ls1SIquYPmAzDahsuy68ToLJ3bv3uNc+tKXrkPPuyeuv/8FYz7Pd/W8v7h+3p/7ajl3EU5v9qOsXrhbR/1ZMe+sDKK9dJS4mXiiy2mnBael56/uw7x2b1a6PsaNPa1ze+j7G7x2b1U4bewk8SjqafQ4cNWXNviS3FkNJR5J5ntxO4dCjk2YpPdlQgtu0P4wbUOndOic7OUfPa4JeeXUlpOHhGrwCyIpN1PN7J3Ozk/R097Ezf3Ztd7/0+gcvP5euuSTrKp4k2yELmOwjBqyY9tYHUAZQti7wUnB7vhA8bSTbkHl0PW2GaN8zb08bzTcSHJbINPs1EMl1NfuS3FoMJR1J5t2O5llD3IvogbUUDHMeskl1MXaMwQuznvHxNgcPvq7eQ4mnuQ+zp7LJjzkwifjlT3bn3DvJX2bu+XWcL/3+ZTGhQOOWjl3Fk2Q7ZAGUfcSAFdPe+gDKAMpWgJOC2wMsnjaSbcg8up42Q7TvmbenjeabEniUdDT7HAprypp9SW4thpKOJPNue6cvOfdmC/kT37g/Mud+SAkqMQfcx5ljh4NjW/nAgYNN+nAOfgUnfVgIY8iFyaee2jyGvJwnuxGHDz/8u7EuYNF6ICd3uxvzsf5JsROyAMVZjgErpr31AZQBlK0AJ30IPMDiaSPZhsyj62kzRPueeXvaaL6R4LBEptmvgUiuq9mX5NZiKOloMk/WDwDJ9b2ZTdwTWaJH4Iex8ewo2YIMwEntujy+/vqR5tDrR5q33jqzbOzU9549e93b3IhbPP1NujheeeV33E92X3jhV8dA63kYB7CJl57z/jzlLuPJ01+0CRiddAxYMe2tD6AMoGwFOCmQPcDiaSPZhsyj62kzRPueeXvaaL4pgUdJR7PPobCmrNmX5NZiKOloMu/9jYBIbsObpUyzm7kgCCjFPZS8byoj64lXA3WVscS2fDpP6gtHZBo9sUhtcH8lftubbCDbKMWWJuPZSTy5bWUnc5/upnF1GU9kM44BjX3GgBXT3voAygDK1kVfCnL6Aqg9SrYhq7VL+kO0T3OrPWq+0b6sc+Wa/RqI5LqafUluLYaSTpvMA4dpltJ7LyWyhxwIkV0EJOZmFaWtZz4ngDHgMsc2QBQQCdvpK4u4bUAhHqrJjVFkM8lOzm92IzZx7yTN2ZudzHmZOY0LR+sfbxvlAMV5iAErpr31EwXK3AVFa69dEK19rlyyn2tDay/Zhkxrnyvvw37uGLX2fYw9fN/+2iDtWuXKtWvLobCmrNmX5NZiKOm0yQAuHsBLs3feB20Ao3zrGmUPxKZjAizy+zLb5oR2gExkSPkf5oq6NoAku2ibm5WkuOIvMIedSy65LCs7SU92Yyye7CTur8RLz2nsOceu4ymn72gbgDqJGLBi2lsfQBkZyla4lYKXvgRqj5JtyGrtkv4Q7dPcao99+aYGIrmuNn5Jbi2Gkk6bDIDn2TZGGw6GgLIU+rRzwCcfQ837JWHLC5a8T28Zczx16rT712/S2N342OPL5nrllVdlwSR/7ySyjtZWN+rxBLh3fmm7ruMptR/nAY3TjgErpr31AZQBlK0AJwV2+oVQei7ZhqzUXqqn2edgUlPW7KfjKD2X7JfaSvUk25Cl7UrPNfs1/ua6mn1Jbi2Gko4lQxZPg0EuT++J9OrBRvrkdg1Uwh4ylsj+ebKN1vxRj/FgjADn++5fXxQ7/L5H2Mx5RRDdhkG/ioOMo+fJbgDl8TPL73H1zJfaTCKeyHYcAyb7iAErpr31AZQBlK1fBFJwl0JGqifZhixtV3qu2edgUlPW7JeON9WT7KdtSs8l25CV2kv1NPs1/ua6mn1Jbi2Gko4l82YpAXL8nkjYzblvUYLKHH0Ot7wMG4BbbHN7ARPzwDY+QSS3l15/zznf5oZfcn4Nh2CSfrMb+o/sed2Vnbwp85dx0liYRDylfcR5gOU0Y8CKaW99AGUAZStESEHt+bLwtJFsQ+bR9bTR7HMwqSlr9j1j87SR7Hv0PG0k25B5dD1tNPs1/ua6mn1Jbi2Gko5H5s02StvXHMascgqVH2wxv+nKkFq2eT0gE2NN/6zt/R07dmbFDZ7m3r59+QvFS2CSb3VjS/+Hz+xxAWVNdhJxYf3zxE60CWCcpRiwYtpbH0AZQNn6ZSAFvQcoPG0k25B5dD1tNPscTGrKmn3P2DxtJPsePU8byTZkHl1PG81+jb+5rmZfkluLoaTjkeVkKbHVzG3inMOcVU6hErbwlLalN416vIvSExNos3rNL5b9Cg7mUbLNzd85ieuAh5Zue+FVEyjv23lw2XXg18RbnlQ8efuPdgGjXceAFdPe+gDKAMrWLwMpcL1fHlY7yTZklp63XrPPwaSmrNn3js9qJ9m3dLz1km3IvPpWO81+jb+5rmZfkluLoaTjlWEL2Att6dY3INGri3YSVCIzZ2UQc/oobXvTTbeYsbNhw2PjV/vAv4DqEpjEdjd+QYeuEflxw66DrUCJ+yvfPnturEf6ucdJxlPuWKJ9wGUXMWDFtLc+gDKAsvWLQApW/sVeU5ZsQ2bBirdes18zZq6r2feOz2on2bd0vPWSbci8+lY7zT73X01Zsy/JrcVQ0smRee9pRDtk08g2yl5dAr3UBmzBTt/Zyr17X1F/EQdZyaWl5U9V40GanF/BoXsmceSvCEqB/n8/vVuFyhcPnRj7nq5ByXHS8VQyptAJsKyJASumvfUBlAGUrRAhBWkNCHBdyTZkFqx46zX7fAw1Zc2+d3xWO8m+peOtl2xD5tW32mn2a/zNdTX7ktxaDCWdHBkyjwR81hE/j8htl0AlMpLSa4AwDtz/aI1hUvWAyjvvunscQ6vX/Lx56unzv8tN88b9kxdc8JWsVwMRUN5zz71j/2G+aXb24JFjzZ3b9i+DSmQmn9h7eKxH4yg9TjqeSscVegGVpTFgxbS3PoAygHL8BSBBghSg/Iu9pizZhkwaR4lMs18zZq6r2S8Zq6Qj2Zfalcgk25CV2JJ0NPvcfzVlzb4ktxZDSSdXlpMhTF8lJIGRB/rQJ8940pgBm32CJe5nxBzTsWGL+8477yoCSQDl2rW3j6HQAnGA5fOvHh79ATq9T7KTD9uO04intv6jLsCx6xiwYtpbH0CpAGXNlx3X1S689CVcIuvDPp9fTbmPsaPPmjFz3T7GXxIjkk4fY5+G76V5WYuhpJMrA+Dk/JpN+is6pVCJPvHqH2m8gCjcX5hm8TywWtIGEJvOi8b13HNbirOSKUzCZs6tAtqYaGy5x2nEU+6Yon1AZk0MWDHtrQ+gDKBszUpJQcqhqqYs2YZMAqASmWa/ZsxcV7NfMlZJR7IvtSuRSbYhK7El6Wj2uf9qypp9SW4thpJOiQxQmANi6bZ1KVSiT8Bcao/PAdAJuMyBXs9csIWPzKOWAdy7d19z3XWrirOSEkzSQzje8XE/dFGeVjx1MdawEaDpiQErpr31AZQBlK0QIQVjDQhwXck2ZLxNTbkv+xJglcik8ZfYkXQk25BJbUtkmv2a68l1NfuS3FoMJZ1SWc7rgJA5BETyvnCek31LocoCS/QF+EPWDtvSaO/pD2NFW8Ac5tgGr+ijC5AETPJ7JmE3ByYBz+m2O/d1aXma8VQ6xtALkMyJASumvfUBlAGUrRAhBSX/Yq8pS7Yhq7HJdfuyXwJgko40fqldiUyyDVmJLUlHs8+vT01Zsy/JrcVQ0qmRIWuXgp52LkGldX+gZovLAYmAxlKg0jKObX4BaD7++BPNJZdcWpWRBEjijz/NjX5zYBK+SGG9bew5dZOIpzffea+5c+8bzaVPL385+9ce3zWSH1J+KhL1nt8ul9qgv5x5R9vhQqoV0976AMqegLLmy5Trah9y6Uu+RCbZ5/3XlCXbkNXY5Lp92S/xs6QjjV9qVyKTbENWYkvS0ezz61NT1uxLcmsxlHRqZLlACKiUMn65AMWBkpcBuDVw2eYLvP7nmWeea372sxs7gUiA5IUXfmXZeybRf64vur5vkvug63jadOiUCwolAAygHC7k8ZibdNmKaW99AGUAZStESIFcAwJcV7INGW9TU+7LvgRYJTJp/CV2JB3JNmRS2xKZZr/menJdzb4ktxZDSadWVnI/pARBkAE4OSDWlJG5xNPhsJubwUMGElvZjz32eHPzzbc0//zP3WQiKSOJI35OEf2Q/wHn2GrPmTPgk/Qncewynh5aOu6CScowAj75nAIoAyh5PJSWrZj21gdQBlC2QoQUoPyLvaYs2YasxibXHaJ9Pr+asuabEniUdDT7NWPmupp9SW4thpJOFzIAWw4IoS1gL+0b28+5UOXtd+PGx5sbbvhJc801143/rr121ehBGpJ9+9tXdJZ95PDIy3gv5aZNTy6bO/znub+Tz3XSMIlrY/1Lr592jm3sLzy6Iwso0Z7b++m29l8HIhCVjimccrtRXixQtWLaWx9AGUAZQPn8i0UQqy26HHxqypL9GntcV7INmQSHJTLNPh9DTVmzL8mtxVDS6UqGTCAHHk8ZW9TSvY/I3HWZrfzFL345cVDk0KiVv//9HzTYOuc+x1PpuXMFfEp+43a7KHcVTxIMQkZj3H3yT42UgXzh6PKX41P7tuPNOw8vA1fYbWsfdQGUVpxL9QGUAwXKmi9rristLLy+pizZhqzGJtcdon0+v5ryEH2jzUla+LhM0+tKXgKVeEJZuq8S2crc+wkliEVmUgO8ackvvfSyFQ/ewOc5L4mnuU0LJjE+6583btLs5OXPnv99crIh3V+JbXKq9xwBoGmGMteGp59oM78QasW0tz6AMoCyFeCkRaIGZLiuZBsy3qamPET7Nf7gukP0jTYnazHU9LqUl0AlYCn9VR0aE2CzZhv8hht+3BtQYnv74Yd/twKKSra44aNpwiT8b/2ja9R2lLa7pcyjBINSu7a+AKocKCM7Ob/g13ada+qsmPbWB1AGULYCnBSkHExqypJtyGpsct0h2ufzqykP0TfanKzFUNPrWl4KlQAmKVuJ8ZWC5dVXXzN1oLzkksuaJ57YtOyhG/IxwJmyjTnHacMkxmv9ozl1cZQe2sErhry2JSCVnhb32ot2w4RRK6a99RMFypovPK6rBXHJvV2SjmSf919TlmxDVmOT6/Zhn/dfU+5j7OH7D+4XHarvpXlZi6GkMykZoDL33kACLGx1a/cI0la41/Y0gfLGG1eLW9vwMe6VLP31Hu1e00ldO7I7rXgC+KXb4rgXksbhOabZSdjLAVJPH9Fm/iHTimlvfQBlZChb4VZaLGogkutKtiHjbWrKQ7Rf4w+uO0TfaHOyFkNNb1JybO16wY9gko7QQzZPA0uMGdBqvVx90vdQXnHFlaOXnKcP25BPSzOr5IdpPM1NY02Pk4wnQCTfnubl3PseIzs5/6CXxt6kzq2Y9tYHUAZQtgKcFMAcTGrKkm3Iamxy3SHa5/OrKQ/RN9qcrMVQ05ukHBlFbNcSIOUePWAJ6EQGEA+5SH11maXEOylvueXW5tlnnxO3tMmXtSAJPwGYyV4fx0nGkwaU176w1OCp75z5RnYygNIbL1ZMe+sDKAMoWwFOCsgakOG6km3IeJua8hDt1/iD6w7RN9qcrMVQ05u0HMBX+8Q2wBI2kPW0xov+AHTIcEIHD/Xcffe9zcUXX+K+n5LeTfmb3/y2eeCBB5vdu/e0AiSNCRAoQW0OSGOuGD/Z7Os4yXjSgJIyld4spZSd5K8k6st30e9sQq4V0976AMoAylaAkxYADiY1Zck2ZDU2ue4Q7fP51ZSH6BttTtZiqOlNS15zXyUHMgAb3lXZth3eNidAKYAt/auxB3AFCPJxlpQBv6XjaJtzSd204gnwmP62N8BS+11vPpc0O+nV4zaiPJvwN4nrYsW0tz6AMoCyFeCk4K0BGa4r2YaMt6kpD9F+jT+47hB9o83JWgw1vWnKS1+Zo8EZwaUnc9nVPAF82GIHRJY+aJPOBzDKf4qxq7HW2JlmPAEeKTtJR+vBnC6zk/v3LzWf+dSnmw//3YfGf+tuX9d5lvjir180sn/y5PKflqy5TqHrB2Irpr31AZQBlK0AJ30oOZjUlCXbkNXY5LpDtM/nV1Meom+0OVmLoabXh7z09TkpiPG39DnXAAAHhUlEQVRzQBke0oFtZB+7yvQBVpFdxT2aNe/E5GPlZdjEvaZ9XIe2PqcdT+mT3rifsm18XWYnAXoASgI9gOUkgDKdz8c+8tEGMJvK49wPiTm+smLaWx9AGUDZCnBSUNaADNeVbEPG29SUh2i/xh9cd4i+0eZkLYaaXl9yQNQkAI3DGiATfeAPoEl/AES+5U1yHAkca++F5OOQyhgbxtGX/61+u4gnZB75/ZJtkJgCJYBRG6OUnWxrr9kh+Sc//olmzeo14/6mAZSAV/QTQDkZeKRry49WTHvrAygDKFsBjgcdlTmY1JTJXnqsscl1U7t0ztvUlMleeqyxyXVTuzjn9TVlyfYQ7EvzshZDSWcWZDXvaJRAbR5kgNauMqiTuoZdxJP0O974mcV0zNJPL7Y9XCNlJwGZqV3PebrVDR0OlE9uerIBcEKGv1XXXDvqBwAKXerjy1/8UoM/Okcdh1TIcQ5bgEiyhyNkqOd9IXtJWVLowTaNFeeXf/NbYxvQg366dZ/2T2Nb1KMV0976AMoAylZIkT5gNSDDdSXbkPE2NeUh2q/xB9cdom+0OVmLoaY3K3Jk67q6J3FWoRL3Xc7i9rYUA13Ek3RvJO6R5E9xo5xmJ9M2fHxdZydhW8tQIosIsCMwA7gBAAF6W1/aOioD4ijbiDqUeR0fO+wQPBJU4og2ZIPgkGxADj2MAzKSY5seegBLsgnYpTLski0+hkUuWzHtrQ+gDKBsBTjpQ8bBpKYs2YasxibXHaJ9Pr+a8hB9o83JWgw1vVmTDxEs5wkkKR66iicpS0kP3mjHtt/hlrKTUtaT5uE5akC5/oH1I2gE1JEdgBwgDueUhQTw0X2YKOOPZy9JF3IOfABQAkpAKs7TP0Ah9Hj2E20oe0l66AOwCfsYH9mlvuNo/5yoFfNUH0AZQNkKcNKHrQZkuK5kGzLepqY8RPs1/uC6Q/SNNida7LSjpjercmyFT/oey0lmMnGPJO7JnJeMZBoHWhyRPG2vneMnEAGIGjxKcu3l5lJ2sg0+tTGl8lKgREYQIAnYA9gB/DhYpv20ASXBa6qDcy9Qki4gFEBL2/MkX/QjxW7tca6Bkn9B1pSlYKqxx3Ul25DxNjXlPuzXjJfr9jH28H38lne6aGpxOOtyABnuOZyX7XA8aQ4YnnW/WuNL4yc9t/R5Pba+pXdNpjAJOGy7F1LKTvLtc95nTlkDSmQm+ZY3bTdTdpDO0QZtkRWkDKOUIZSAEjbwl/YFfWQaIfcCJUCStrkBk1KWNMcvQ2ubxnDpeQDl8y+KCxwHn5qyFng1NrluH/Z5/zXlPsaOPmvGzHX7GD/vv6bcx9in4XtpXtbiKOnMmwyv8JlFuAREYqt+1h+0ybnek4gnwB+e9E5BEtvieBq8bXzSgzuWTps9XqcBJdoA0FBPoJhm/VCHrCTZA8RpIMeBEu3RDnZxBDhqfXmBEu0At7CJI8EljW3Rj1ZMe+sDKAMoWwFL+qDVgAzXlWxDxtvUlIdov8YfXHeIvtHmZC2Gmt68ygGXeBk4YA7by5Pcvk5t45VCANshZCK1679o8aT5IeTTe63PpH1txbS3PoAygLIV4KRA5mBSU5ZsQ1Zjk+sO0T6fX015iL7R5mQthpreUOTYGgfg4b5FQGYX75HENjvu4wQ8Al7x7sqh+Muax6LHk+WfqJ8/0LRi2lsfQBlA2Qpw0uJQAzJcV7INGW9TUx6i/Rp/cN0h+kabk7UYanqLIOcvMcfWNH+ROZV5m3l9kKbLaxnxNH/A1OX1H6ItK6a99RMFyiE6PuYUi0nEwHzFgLUYxvWcr+vZ9/WKeIp46TsGu+7fimlvfQDl+/Hh6Do4w17E1CzFgLUYztJYYyyz/9mJeJr9axSfo7xrZMW0tz6AMoByYe59ikUmb5EZir+sxXAo84x5TCe+I56m4+eI5+n52Yppb30AZQBlAGXEwKBjwFoM44trel9cQ/B1xFPEyxDimM/BimlvfQBlwMSgYYJ/aKK8mF8E1mIYcbGYcVF63SOeIl5KY2dW9ayY9tYHUAZQBlBGDAw6BqzFcFYX+RjXbIJLxNNsXpf4vJRfFyumvfVuoPQajHbhgfBAeCA8EB4ID4QHwgOL5YEAysW63jHb8EB4IDwQHggPhAfCA517IICyc5eGwfBAeCA8EB4ID4QHwgOL5YEAysW63jHb8EB4IDwQHggPhAfCA517IICyc5eGwfBAeCA8EB4ID4QHwgOL5YEAysW63jHb8EB4IDwQHggPhAfCA517IICyc5eGwfBAeCA8EB4ID4QHwgOL5YEAysW63jHb8EB4IDwQHggPhAfCA517IICyc5eGwfBAeCA8EB4ID4QHwgOL5YEAysW63jHb8EB4IDwQHggPhAfCA517IICyc5eGwfBAeCA8EB4ID4QHwgOL5YEAysW63jHb8EB4IDwQHggPhAfCA517IICyc5eGwfBAeCA8EB4ID4QHwgOL5YEAysW63jHb8EB4IDwQHggPhAfCA517IICyc5eGwfBAeCA8EB4ID4QHwgOL5YEAysW63jHb8EB4IDwQHggPhAfCA5174P8BmnaTiwCmAM4AAAAASUVORK5CYII=;" vertex="1" parent="1">
          <mxGeometry x="340" y="1120" width="454.67" height="310" as="geometry" />
        </mxCell>
        <mxCell id="SoOD0umvgKuOXdiHO2RA-41" value="On-Prem" style="text;html=1;align=center;verticalAlign=middle;whiteSpace=wrap;rounded=0;fillColor=#ffffff;" vertex="1" parent="1">
          <mxGeometry x="344.83000000000004" y="1273" width="60" height="20" as="geometry" />
        </mxCell>
        <mxCell id="SoOD0umvgKuOXdiHO2RA-40" value="Cloud" style="text;html=1;align=center;verticalAlign=middle;whiteSpace=wrap;rounded=0;fillColor=#ffffff;" vertex="1" parent="1">
          <mxGeometry x="340" y="1120" width="40" height="20" as="geometry" />
        </mxCell>
        <mxCell id="SoOD0umvgKuOXdiHO2RA-42" value="" style="shape=image;html=1;verticalAlign=top;verticalLabelPosition=bottom;labelBackgroundColor=#ffffff;imageAspect=0;aspect=fixed;image=https://cdn4.iconfinder.com/data/icons/core-ui-outlined/32/outlined_adjustments-128.png;rounded=0;strokeColor=#000000;fillColor=#ffffff;" vertex="1" parent="1">
          <mxGeometry x="200" y="540" width="40" height="40" as="geometry" />
        </mxCell>
        <mxCell id="SoOD0umvgKuOXdiHO2RA-43" value="" style="shape=image;html=1;verticalAlign=top;verticalLabelPosition=bottom;labelBackgroundColor=#ffffff;imageAspect=0;aspect=fixed;image=https://cdn0.iconfinder.com/data/icons/mobile-basic-vol-1/32/Filter-128.png;rounded=0;strokeColor=#000000;fillColor=#ffffff;" vertex="1" parent="1">
          <mxGeometry x="200" y="500" width="40" height="40" as="geometry" />
        </mxCell>
        <mxCell id="K7mVDIc0h9RYjXVxm_QA-1" value="" style="shape=image;html=1;verticalAlign=top;verticalLabelPosition=bottom;labelBackgroundColor=#ffffff;imageAspect=0;aspect=fixed;image=https://cdn4.iconfinder.com/data/icons/core-ui-outlined/32/outlined_adjustments-128.png;rounded=0;strokeColor=#000000;fillColor=#ffffff;" vertex="1" parent="1">
          <mxGeometry x="200" y="1253" width="40" height="40" as="geometry" />
        </mxCell>
        <mxCell id="K7mVDIc0h9RYjXVxm_QA-2" value="" style="shape=image;html=1;verticalAlign=top;verticalLabelPosition=bottom;labelBackgroundColor=#ffffff;imageAspect=0;aspect=fixed;image=https://cdn0.iconfinder.com/data/icons/mobile-basic-vol-1/32/Filter-128.png;rounded=0;strokeColor=#000000;fillColor=#ffffff;" vertex="1" parent="1">
          <mxGeometry x="200" y="1213" width="40" height="40" as="geometry" />
        </mxCell>
        <mxCell id="K7mVDIc0h9RYjXVxm_QA-3" value="&lt;font color=&quot;#ffffff&quot; style=&quot;font-size: 24px&quot;&gt;&amp;nbsp; &amp;nbsp; SFM&lt;/font&gt;" style="rounded=0;whiteSpace=wrap;html=1;fillColor=#dae8fc;strokeColor=#6c8ebf;align=left;" vertex="1" parent="1">
          <mxGeometry x="190" y="250" width="630" height="60" as="geometry" />
        </mxCell>
      </root>
    </mxGraphModel>
  </diagram>
  <diagram id="YYJPZJLLzpeLbIJ4byP-" name="API">
    <mxGraphModel dx="2062" dy="1132" grid="1" gridSize="10" guides="1" tooltips="1" connect="1" arrows="1" fold="1" page="1" pageScale="1" pageWidth="850" pageHeight="1100" math="0" shadow="0">
      <root>
        <mxCell id="Gur1bK2M0lumTdirb7bI-0" />
        <mxCell id="Gur1bK2M0lumTdirb7bI-1" parent="Gur1bK2M0lumTdirb7bI-0" />
        <mxCell id="Gur1bK2M0lumTdirb7bI-23" value="db" style="points=[[0,0],[0.25,0],[0.5,0],[0.75,0],[1,0],[1,0.25],[1,0.5],[1,0.75],[1,1],[0.75,1],[0.5,1],[0.25,1],[0,1],[0,0.75],[0,0.5],[0,0.25]];outlineConnect=0;gradientColor=none;html=1;whiteSpace=wrap;fontSize=12;fontStyle=0;shape=mxgraph.aws4.group;grIcon=mxgraph.aws4.group_elastic_beanstalk;strokeColor=#D86613;fillColor=none;verticalAlign=top;align=left;spacingLeft=30;fontColor=#D86613;dashed=0;rounded=0;" vertex="1" parent="Gur1bK2M0lumTdirb7bI-1">
          <mxGeometry x="140" y="120" width="600" height="350" as="geometry" />
        </mxCell>
        <mxCell id="Gur1bK2M0lumTdirb7bI-24" value="Endpoints" style="points=[[0,0],[0.25,0],[0.5,0],[0.75,0],[1,0],[1,0.25],[1,0.5],[1,0.75],[1,1],[0.75,1],[0.5,1],[0.25,1],[0,1],[0,0.75],[0,0.5],[0,0.25]];outlineConnect=0;gradientColor=none;html=1;whiteSpace=wrap;fontSize=12;fontStyle=0;shape=mxgraph.aws4.group;grIcon=mxgraph.aws4.group_aws_step_functions_workflow;strokeColor=#CD2264;fillColor=none;verticalAlign=top;align=left;spacingLeft=30;fontColor=#CD2264;dashed=0;rounded=0;" vertex="1" parent="Gur1bK2M0lumTdirb7bI-1">
          <mxGeometry x="140" y="530" width="600" height="2610" as="geometry" />
        </mxCell>
        <mxCell id="Gur1bK2M0lumTdirb7bI-26" value="GitHub Converters" style="text;html=1;strokeColor=none;fillColor=none;align=center;verticalAlign=middle;whiteSpace=wrap;rounded=0;" vertex="1" parent="Gur1bK2M0lumTdirb7bI-1">
          <mxGeometry x="150" y="560" width="120" height="30" as="geometry" />
        </mxCell>
        <mxCell id="Gur1bK2M0lumTdirb7bI-28" value="" style="group" vertex="1" connectable="0" parent="Gur1bK2M0lumTdirb7bI-1">
          <mxGeometry x="150" y="600" width="580" height="110" as="geometry" />
        </mxCell>
        <mxCell id="Gur1bK2M0lumTdirb7bI-25" value="GitHub_Issue_Open -&amp;gt; New Workitem&lt;br&gt;&lt;ul&gt;&lt;li&gt;Per-Project Auth Key&lt;/li&gt;&lt;li&gt;Project Name&lt;/li&gt;&lt;li&gt;Issue Label&lt;/li&gt;&lt;li&gt;Open DateTime&lt;/li&gt;&lt;/ul&gt;" style="rounded=1;whiteSpace=wrap;html=1;strokeColor=#000000;fillColor=#ffffff;align=center;" vertex="1" parent="Gur1bK2M0lumTdirb7bI-28">
          <mxGeometry width="580" height="110" as="geometry" />
        </mxCell>
        <mxCell id="Gur1bK2M0lumTdirb7bI-27" value="POST" style="rounded=1;whiteSpace=wrap;html=1;strokeColor=#6c8ebf;fillColor=#dae8fc;" vertex="1" parent="Gur1bK2M0lumTdirb7bI-28">
          <mxGeometry width="70" height="110" as="geometry" />
        </mxCell>
        <mxCell id="Gur1bK2M0lumTdirb7bI-29" value="" style="group" vertex="1" connectable="0" parent="Gur1bK2M0lumTdirb7bI-1">
          <mxGeometry x="150" y="730" width="580" height="110" as="geometry" />
        </mxCell>
        <mxCell id="Gur1bK2M0lumTdirb7bI-30" value="GitHub_Issue_Close -&amp;gt; Close Workitem&lt;br&gt;&lt;ul&gt;&lt;li&gt;Per-Project Auth Key&lt;/li&gt;&lt;li&gt;Project Name&lt;/li&gt;&lt;li&gt;Issue Label&lt;/li&gt;&lt;li&gt;Close DateTime&lt;/li&gt;&lt;/ul&gt;" style="rounded=1;whiteSpace=wrap;html=1;strokeColor=#000000;fillColor=#ffffff;align=center;" vertex="1" parent="Gur1bK2M0lumTdirb7bI-29">
          <mxGeometry width="580" height="110" as="geometry" />
        </mxCell>
        <mxCell id="Gur1bK2M0lumTdirb7bI-31" value="POST" style="rounded=1;whiteSpace=wrap;html=1;strokeColor=#6c8ebf;fillColor=#dae8fc;" vertex="1" parent="Gur1bK2M0lumTdirb7bI-29">
          <mxGeometry width="70" height="110" as="geometry" />
        </mxCell>
        <mxCell id="Gur1bK2M0lumTdirb7bI-32" value="" style="group" vertex="1" connectable="0" parent="Gur1bK2M0lumTdirb7bI-1">
          <mxGeometry x="150" y="990" width="580" height="110" as="geometry" />
        </mxCell>
        <mxCell id="Gur1bK2M0lumTdirb7bI-33" value="GitHub_PR_Close -&amp;gt; Close Workitem&lt;br&gt;&lt;ul&gt;&lt;li&gt;Per-Project Auth Key&lt;/li&gt;&lt;li&gt;Project Name&lt;/li&gt;&lt;li&gt;Issue Label&lt;/li&gt;&lt;li&gt;Close DateTime&lt;/li&gt;&lt;/ul&gt;" style="rounded=1;whiteSpace=wrap;html=1;strokeColor=#000000;fillColor=#ffffff;align=center;" vertex="1" parent="Gur1bK2M0lumTdirb7bI-32">
          <mxGeometry width="580" height="110" as="geometry" />
        </mxCell>
        <mxCell id="Gur1bK2M0lumTdirb7bI-34" value="POST" style="rounded=1;whiteSpace=wrap;html=1;strokeColor=#6c8ebf;fillColor=#dae8fc;" vertex="1" parent="Gur1bK2M0lumTdirb7bI-32">
          <mxGeometry width="70" height="110" as="geometry" />
        </mxCell>
        <mxCell id="Gur1bK2M0lumTdirb7bI-35" value="" style="group" vertex="1" connectable="0" parent="Gur1bK2M0lumTdirb7bI-1">
          <mxGeometry x="150" y="860" width="580" height="110" as="geometry" />
        </mxCell>
        <mxCell id="Gur1bK2M0lumTdirb7bI-36" value="GitHub_PR_Open -&amp;gt; New Workitem&lt;br&gt;&lt;ul&gt;&lt;li&gt;Per-Project Auth Key&lt;/li&gt;&lt;li&gt;Project Name&lt;/li&gt;&lt;li&gt;Issue Label&lt;/li&gt;&lt;li&gt;Open DateTime&lt;/li&gt;&lt;/ul&gt;" style="rounded=1;whiteSpace=wrap;html=1;strokeColor=#000000;fillColor=#ffffff;align=center;" vertex="1" parent="Gur1bK2M0lumTdirb7bI-35">
          <mxGeometry width="580" height="110" as="geometry" />
        </mxCell>
        <mxCell id="Gur1bK2M0lumTdirb7bI-37" value="POST" style="rounded=1;whiteSpace=wrap;html=1;strokeColor=#6c8ebf;fillColor=#dae8fc;" vertex="1" parent="Gur1bK2M0lumTdirb7bI-35">
          <mxGeometry width="70" height="110" as="geometry" />
        </mxCell>
        <mxCell id="Gur1bK2M0lumTdirb7bI-38" value="Misc Helpers" style="text;html=1;strokeColor=none;fillColor=none;align=center;verticalAlign=middle;whiteSpace=wrap;rounded=0;" vertex="1" parent="Gur1bK2M0lumTdirb7bI-1">
          <mxGeometry x="140" y="1160" width="120" height="30" as="geometry" />
        </mxCell>
        <mxCell id="Gur1bK2M0lumTdirb7bI-39" value="" style="group" vertex="1" connectable="0" parent="Gur1bK2M0lumTdirb7bI-1">
          <mxGeometry x="150" y="2320" width="580" height="80" as="geometry" />
        </mxCell>
        <mxCell id="Gur1bK2M0lumTdirb7bI-40" value="Create New Project -&amp;gt; Return auth key&lt;br&gt;&lt;ul&gt;&lt;li&gt;Admin Auth Key&lt;/li&gt;&lt;li&gt;Project Details&lt;/li&gt;&lt;/ul&gt;" style="rounded=1;whiteSpace=wrap;html=1;strokeColor=#000000;fillColor=#ffffff;align=center;" vertex="1" parent="Gur1bK2M0lumTdirb7bI-39">
          <mxGeometry width="580" height="80" as="geometry" />
        </mxCell>
        <mxCell id="Gur1bK2M0lumTdirb7bI-41" value="POST" style="rounded=1;whiteSpace=wrap;html=1;strokeColor=#6c8ebf;fillColor=#dae8fc;" vertex="1" parent="Gur1bK2M0lumTdirb7bI-39">
          <mxGeometry width="70" height="80" as="geometry" />
        </mxCell>
        <mxCell id="Gur1bK2M0lumTdirb7bI-2" value="WorkItem" style="shape=table;startSize=30;container=1;collapsible=1;childLayout=tableLayout;fixedRows=1;rowLines=0;fontStyle=1;align=center;resizeLast=1;rounded=0;strokeColor=#000000;fillColor=#ffffff;" vertex="1" parent="Gur1bK2M0lumTdirb7bI-1">
          <mxGeometry x="190" y="160" width="180" height="250" as="geometry" />
        </mxCell>
        <mxCell id="Gur1bK2M0lumTdirb7bI-3" value="" style="shape=partialRectangle;collapsible=0;dropTarget=0;pointerEvents=0;fillColor=none;top=0;left=0;bottom=1;right=0;points=[[0,0.5],[1,0.5]];portConstraint=eastwest;" vertex="1" parent="Gur1bK2M0lumTdirb7bI-2">
          <mxGeometry y="30" width="180" height="30" as="geometry" />
        </mxCell>
        <mxCell id="Gur1bK2M0lumTdirb7bI-4" value="PK" style="shape=partialRectangle;connectable=0;fillColor=none;top=0;left=0;bottom=0;right=0;fontStyle=1;overflow=hidden;" vertex="1" parent="Gur1bK2M0lumTdirb7bI-3">
          <mxGeometry width="30" height="30" as="geometry" />
        </mxCell>
        <mxCell id="Gur1bK2M0lumTdirb7bI-5" value="id" style="shape=partialRectangle;connectable=0;fillColor=none;top=0;left=0;bottom=0;right=0;align=left;spacingLeft=6;fontStyle=5;overflow=hidden;" vertex="1" parent="Gur1bK2M0lumTdirb7bI-3">
          <mxGeometry x="30" width="150" height="30" as="geometry" />
        </mxCell>
        <mxCell id="Gur1bK2M0lumTdirb7bI-6" value="" style="shape=partialRectangle;collapsible=0;dropTarget=0;pointerEvents=0;fillColor=none;top=0;left=0;bottom=0;right=0;points=[[0,0.5],[1,0.5]];portConstraint=eastwest;" vertex="1" parent="Gur1bK2M0lumTdirb7bI-2">
          <mxGeometry y="60" width="180" height="30" as="geometry" />
        </mxCell>
        <mxCell id="Gur1bK2M0lumTdirb7bI-7" value="" style="shape=partialRectangle;connectable=0;fillColor=none;top=0;left=0;bottom=0;right=0;editable=1;overflow=hidden;" vertex="1" parent="Gur1bK2M0lumTdirb7bI-6">
          <mxGeometry width="30" height="30" as="geometry" />
        </mxCell>
        <mxCell id="Gur1bK2M0lumTdirb7bI-8" value="Project" style="shape=partialRectangle;connectable=0;fillColor=none;top=0;left=0;bottom=0;right=0;align=left;spacingLeft=6;overflow=hidden;" vertex="1" parent="Gur1bK2M0lumTdirb7bI-6">
          <mxGeometry x="30" width="150" height="30" as="geometry" />
        </mxCell>
        <mxCell id="Gur1bK2M0lumTdirb7bI-9" value="" style="shape=partialRectangle;collapsible=0;dropTarget=0;pointerEvents=0;fillColor=none;top=0;left=0;bottom=0;right=0;points=[[0,0.5],[1,0.5]];portConstraint=eastwest;" vertex="1" parent="Gur1bK2M0lumTdirb7bI-2">
          <mxGeometry y="90" width="180" height="30" as="geometry" />
        </mxCell>
        <mxCell id="Gur1bK2M0lumTdirb7bI-10" value="" style="shape=partialRectangle;connectable=0;fillColor=none;top=0;left=0;bottom=0;right=0;editable=1;overflow=hidden;" vertex="1" parent="Gur1bK2M0lumTdirb7bI-9">
          <mxGeometry width="30" height="30" as="geometry" />
        </mxCell>
        <mxCell id="Gur1bK2M0lumTdirb7bI-11" value="Category" style="shape=partialRectangle;connectable=0;fillColor=none;top=0;left=0;bottom=0;right=0;align=left;spacingLeft=6;overflow=hidden;" vertex="1" parent="Gur1bK2M0lumTdirb7bI-9">
          <mxGeometry x="30" width="150" height="30" as="geometry" />
        </mxCell>
        <mxCell id="Gur1bK2M0lumTdirb7bI-12" value="" style="shape=partialRectangle;collapsible=0;dropTarget=0;pointerEvents=0;fillColor=none;top=0;left=0;bottom=0;right=0;points=[[0,0.5],[1,0.5]];portConstraint=eastwest;" vertex="1" parent="Gur1bK2M0lumTdirb7bI-2">
          <mxGeometry y="120" width="180" height="30" as="geometry" />
        </mxCell>
        <mxCell id="Gur1bK2M0lumTdirb7bI-13" value="" style="shape=partialRectangle;connectable=0;fillColor=none;top=0;left=0;bottom=0;right=0;editable=1;overflow=hidden;" vertex="1" parent="Gur1bK2M0lumTdirb7bI-12">
          <mxGeometry width="30" height="30" as="geometry" />
        </mxCell>
        <mxCell id="Gur1bK2M0lumTdirb7bI-14" value="Start Datetime" style="shape=partialRectangle;connectable=0;fillColor=none;top=0;left=0;bottom=0;right=0;align=left;spacingLeft=6;overflow=hidden;" vertex="1" parent="Gur1bK2M0lumTdirb7bI-12">
          <mxGeometry x="30" width="150" height="30" as="geometry" />
        </mxCell>
        <mxCell id="Gur1bK2M0lumTdirb7bI-15" value="Comments" style="shape=partialRectangle;connectable=0;fillColor=none;top=0;left=0;bottom=0;right=0;align=left;spacingLeft=6;overflow=hidden;" vertex="1" parent="Gur1bK2M0lumTdirb7bI-1">
          <mxGeometry x="220" y="340" width="150" height="30" as="geometry" />
        </mxCell>
        <mxCell id="Gur1bK2M0lumTdirb7bI-18" value="End Datetime" style="shape=partialRectangle;connectable=0;fillColor=none;top=0;left=0;bottom=0;right=0;align=left;spacingLeft=6;overflow=hidden;" vertex="1" parent="Gur1bK2M0lumTdirb7bI-1">
          <mxGeometry x="220" y="310" width="150" height="30" as="geometry" />
        </mxCell>
        <mxCell id="Gur1bK2M0lumTdirb7bI-42" value="Projects" style="shape=table;startSize=30;container=1;collapsible=1;childLayout=tableLayout;fixedRows=1;rowLines=0;fontStyle=1;align=center;resizeLast=1;rounded=0;strokeColor=#000000;fillColor=#ffffff;" vertex="1" parent="Gur1bK2M0lumTdirb7bI-1">
          <mxGeometry x="400" y="160" width="180" height="310" as="geometry" />
        </mxCell>
        <mxCell id="Gur1bK2M0lumTdirb7bI-43" value="" style="shape=partialRectangle;collapsible=0;dropTarget=0;pointerEvents=0;fillColor=none;top=0;left=0;bottom=1;right=0;points=[[0,0.5],[1,0.5]];portConstraint=eastwest;" vertex="1" parent="Gur1bK2M0lumTdirb7bI-42">
          <mxGeometry y="30" width="180" height="30" as="geometry" />
        </mxCell>
        <mxCell id="Gur1bK2M0lumTdirb7bI-44" value="PK" style="shape=partialRectangle;connectable=0;fillColor=none;top=0;left=0;bottom=0;right=0;fontStyle=1;overflow=hidden;" vertex="1" parent="Gur1bK2M0lumTdirb7bI-43">
          <mxGeometry width="30" height="30" as="geometry" />
        </mxCell>
        <mxCell id="Gur1bK2M0lumTdirb7bI-45" value="id" style="shape=partialRectangle;connectable=0;fillColor=none;top=0;left=0;bottom=0;right=0;align=left;spacingLeft=6;fontStyle=5;overflow=hidden;" vertex="1" parent="Gur1bK2M0lumTdirb7bI-43">
          <mxGeometry x="30" width="150" height="30" as="geometry" />
        </mxCell>
        <mxCell id="Gur1bK2M0lumTdirb7bI-46" value="" style="shape=partialRectangle;collapsible=0;dropTarget=0;pointerEvents=0;fillColor=none;top=0;left=0;bottom=0;right=0;points=[[0,0.5],[1,0.5]];portConstraint=eastwest;" vertex="1" parent="Gur1bK2M0lumTdirb7bI-42">
          <mxGeometry y="60" width="180" height="30" as="geometry" />
        </mxCell>
        <mxCell id="Gur1bK2M0lumTdirb7bI-47" value="" style="shape=partialRectangle;connectable=0;fillColor=none;top=0;left=0;bottom=0;right=0;editable=1;overflow=hidden;" vertex="1" parent="Gur1bK2M0lumTdirb7bI-46">
          <mxGeometry width="30" height="30" as="geometry" />
        </mxCell>
        <mxCell id="Gur1bK2M0lumTdirb7bI-48" value="Name" style="shape=partialRectangle;connectable=0;fillColor=none;top=0;left=0;bottom=0;right=0;align=left;spacingLeft=6;overflow=hidden;" vertex="1" parent="Gur1bK2M0lumTdirb7bI-46">
          <mxGeometry x="30" width="150" height="30" as="geometry" />
        </mxCell>
        <mxCell id="Gur1bK2M0lumTdirb7bI-49" value="" style="shape=partialRectangle;collapsible=0;dropTarget=0;pointerEvents=0;fillColor=none;top=0;left=0;bottom=0;right=0;points=[[0,0.5],[1,0.5]];portConstraint=eastwest;" vertex="1" parent="Gur1bK2M0lumTdirb7bI-42">
          <mxGeometry y="90" width="180" height="30" as="geometry" />
        </mxCell>
        <mxCell id="Gur1bK2M0lumTdirb7bI-50" value="" style="shape=partialRectangle;connectable=0;fillColor=none;top=0;left=0;bottom=0;right=0;editable=1;overflow=hidden;" vertex="1" parent="Gur1bK2M0lumTdirb7bI-49">
          <mxGeometry width="30" height="30" as="geometry" />
        </mxCell>
        <mxCell id="Gur1bK2M0lumTdirb7bI-51" value="Lead Name" style="shape=partialRectangle;connectable=0;fillColor=none;top=0;left=0;bottom=0;right=0;align=left;spacingLeft=6;overflow=hidden;" vertex="1" parent="Gur1bK2M0lumTdirb7bI-49">
          <mxGeometry x="30" width="150" height="30" as="geometry" />
        </mxCell>
        <mxCell id="Gur1bK2M0lumTdirb7bI-52" value="" style="shape=partialRectangle;collapsible=0;dropTarget=0;pointerEvents=0;fillColor=none;top=0;left=0;bottom=0;right=0;points=[[0,0.5],[1,0.5]];portConstraint=eastwest;" vertex="1" parent="Gur1bK2M0lumTdirb7bI-42">
          <mxGeometry y="120" width="180" height="30" as="geometry" />
        </mxCell>
        <mxCell id="Gur1bK2M0lumTdirb7bI-53" value="" style="shape=partialRectangle;connectable=0;fillColor=none;top=0;left=0;bottom=0;right=0;editable=1;overflow=hidden;" vertex="1" parent="Gur1bK2M0lumTdirb7bI-52">
          <mxGeometry width="30" height="30" as="geometry" />
        </mxCell>
        <mxCell id="Gur1bK2M0lumTdirb7bI-54" value="Lead Email" style="shape=partialRectangle;connectable=0;fillColor=none;top=0;left=0;bottom=0;right=0;align=left;spacingLeft=6;overflow=hidden;" vertex="1" parent="Gur1bK2M0lumTdirb7bI-52">
          <mxGeometry x="30" width="150" height="30" as="geometry" />
        </mxCell>
        <mxCell id="Gur1bK2M0lumTdirb7bI-55" value="Project Auth Key" style="shape=partialRectangle;connectable=0;fillColor=none;top=0;left=0;bottom=0;right=0;align=left;spacingLeft=6;overflow=hidden;" vertex="1" parent="Gur1bK2M0lumTdirb7bI-1">
          <mxGeometry x="430" y="310" width="150" height="30" as="geometry" />
        </mxCell>
        <mxCell id="Gur1bK2M0lumTdirb7bI-56" value="Description" style="shape=partialRectangle;connectable=0;fillColor=none;top=0;left=0;bottom=0;right=0;align=left;spacingLeft=6;overflow=hidden;" vertex="1" parent="Gur1bK2M0lumTdirb7bI-1">
          <mxGeometry x="430" y="340" width="150" height="30" as="geometry" />
        </mxCell>
        <mxCell id="Gur1bK2M0lumTdirb7bI-57" value="Location" style="shape=partialRectangle;connectable=0;fillColor=none;top=0;left=0;bottom=0;right=0;align=left;spacingLeft=6;overflow=hidden;" vertex="1" parent="Gur1bK2M0lumTdirb7bI-1">
          <mxGeometry x="430" y="370" width="150" height="30" as="geometry" />
        </mxCell>
        <mxCell id="Gur1bK2M0lumTdirb7bI-58" value="Repo URL" style="shape=partialRectangle;connectable=0;fillColor=none;top=0;left=0;bottom=0;right=0;align=left;spacingLeft=6;overflow=hidden;" vertex="1" parent="Gur1bK2M0lumTdirb7bI-1">
          <mxGeometry x="430" y="400" width="150" height="30" as="geometry" />
        </mxCell>
        <mxCell id="Gur1bK2M0lumTdirb7bI-59" value="" style="group" vertex="1" connectable="0" parent="Gur1bK2M0lumTdirb7bI-1">
          <mxGeometry x="150" y="2830" width="580" height="70" as="geometry" />
        </mxCell>
        <mxCell id="Gur1bK2M0lumTdirb7bI-60" value="Refresh Project Auth Key -&amp;gt; Return auth key&lt;br&gt;&lt;ul&gt;&lt;li&gt;Admin Auth Key&lt;/li&gt;&lt;/ul&gt;" style="rounded=1;whiteSpace=wrap;html=1;strokeColor=#000000;fillColor=#ffffff;align=center;" vertex="1" parent="Gur1bK2M0lumTdirb7bI-59">
          <mxGeometry width="580" height="70" as="geometry" />
        </mxCell>
        <mxCell id="Gur1bK2M0lumTdirb7bI-61" value="POST" style="rounded=1;whiteSpace=wrap;html=1;strokeColor=#6c8ebf;fillColor=#dae8fc;" vertex="1" parent="Gur1bK2M0lumTdirb7bI-59">
          <mxGeometry width="70" height="70" as="geometry" />
        </mxCell>
        <mxCell id="Gur1bK2M0lumTdirb7bI-65" value="WorkItem Crud" style="text;html=1;strokeColor=none;fillColor=none;align=center;verticalAlign=middle;whiteSpace=wrap;rounded=0;" vertex="1" parent="Gur1bK2M0lumTdirb7bI-1">
          <mxGeometry x="150" y="1500" width="120" height="30" as="geometry" />
        </mxCell>
        <mxCell id="Gur1bK2M0lumTdirb7bI-66" value="" style="group" vertex="1" connectable="0" parent="Gur1bK2M0lumTdirb7bI-1">
          <mxGeometry x="150" y="1640" width="580" height="110" as="geometry" />
        </mxCell>
        <mxCell id="Gur1bK2M0lumTdirb7bI-67" value="Read All WorkItems -&amp;gt; List of all workitems&lt;br&gt;&lt;ul&gt;&lt;li&gt;Limit&lt;/li&gt;&lt;li&gt;Skip&lt;/li&gt;&lt;li&gt;Project id (optional)&lt;/li&gt;&lt;li&gt;Project name (optional)&lt;/li&gt;&lt;/ul&gt;" style="rounded=1;whiteSpace=wrap;html=1;strokeColor=#000000;fillColor=#ffffff;align=center;" vertex="1" parent="Gur1bK2M0lumTdirb7bI-66">
          <mxGeometry width="580" height="110" as="geometry" />
        </mxCell>
        <mxCell id="Gur1bK2M0lumTdirb7bI-68" value="GET" style="rounded=1;whiteSpace=wrap;html=1;strokeColor=#82b366;fillColor=#d5e8d4;" vertex="1" parent="Gur1bK2M0lumTdirb7bI-66">
          <mxGeometry width="70" height="110" as="geometry" />
        </mxCell>
        <mxCell id="Gur1bK2M0lumTdirb7bI-69" value="" style="group" vertex="1" connectable="0" parent="Gur1bK2M0lumTdirb7bI-1">
          <mxGeometry x="150" y="1770" width="580" height="80" as="geometry" />
        </mxCell>
        <mxCell id="Gur1bK2M0lumTdirb7bI-70" value="Read One WorkItem -&amp;gt; One Item&lt;br&gt;&lt;ul&gt;&lt;li&gt;id&lt;/li&gt;&lt;/ul&gt;" style="rounded=1;whiteSpace=wrap;html=1;strokeColor=#000000;fillColor=#ffffff;align=center;" vertex="1" parent="Gur1bK2M0lumTdirb7bI-69">
          <mxGeometry width="580" height="80" as="geometry" />
        </mxCell>
        <mxCell id="Gur1bK2M0lumTdirb7bI-71" value="GET" style="rounded=1;whiteSpace=wrap;html=1;strokeColor=#82b366;fillColor=#d5e8d4;" vertex="1" parent="Gur1bK2M0lumTdirb7bI-69">
          <mxGeometry width="70" height="80" as="geometry" />
        </mxCell>
        <mxCell id="Gur1bK2M0lumTdirb7bI-72" value="" style="group" vertex="1" connectable="0" parent="Gur1bK2M0lumTdirb7bI-1">
          <mxGeometry x="150" y="2420" width="580" height="90" as="geometry" />
        </mxCell>
        <mxCell id="Gur1bK2M0lumTdirb7bI-73" value="Read All Projects -&amp;gt; List of Projects&lt;br&gt;&lt;ul&gt;&lt;li&gt;Limit&lt;/li&gt;&lt;li&gt;Skip&lt;/li&gt;&lt;li&gt;id (optional)&lt;/li&gt;&lt;/ul&gt;" style="rounded=1;whiteSpace=wrap;html=1;strokeColor=#000000;fillColor=#ffffff;align=center;" vertex="1" parent="Gur1bK2M0lumTdirb7bI-72">
          <mxGeometry width="580" height="90" as="geometry" />
        </mxCell>
        <mxCell id="Gur1bK2M0lumTdirb7bI-74" value="GET" style="rounded=1;whiteSpace=wrap;html=1;strokeColor=#82b366;fillColor=#d5e8d4;" vertex="1" parent="Gur1bK2M0lumTdirb7bI-72">
          <mxGeometry width="70" height="90" as="geometry" />
        </mxCell>
        <mxCell id="Gur1bK2M0lumTdirb7bI-78" value="" style="group" vertex="1" connectable="0" parent="Gur1bK2M0lumTdirb7bI-1">
          <mxGeometry x="150" y="2630" width="580" height="80" as="geometry" />
        </mxCell>
        <mxCell id="Gur1bK2M0lumTdirb7bI-79" value="Modify Project Name -&amp;gt; Result&lt;br&gt;&lt;ul&gt;&lt;li&gt;id&lt;/li&gt;&lt;li&gt;New Name&lt;/li&gt;&lt;/ul&gt;" style="rounded=1;whiteSpace=wrap;html=1;strokeColor=#000000;fillColor=#ffffff;align=center;" vertex="1" parent="Gur1bK2M0lumTdirb7bI-78">
          <mxGeometry width="580" height="80" as="geometry" />
        </mxCell>
        <mxCell id="Gur1bK2M0lumTdirb7bI-80" value="PATCH" style="rounded=1;whiteSpace=wrap;html=1;strokeColor=#9673a6;fillColor=#e1d5e7;" vertex="1" parent="Gur1bK2M0lumTdirb7bI-78">
          <mxGeometry width="70" height="80" as="geometry" />
        </mxCell>
        <mxCell id="Gur1bK2M0lumTdirb7bI-82" value="" style="group" vertex="1" connectable="0" parent="Gur1bK2M0lumTdirb7bI-1">
          <mxGeometry x="150" y="2530" width="580" height="80" as="geometry" />
        </mxCell>
        <mxCell id="Gur1bK2M0lumTdirb7bI-83" value="Modify Project Name -&amp;gt; Return New Details (maybe new auth key?)&lt;br&gt;&lt;ul&gt;&lt;li&gt;Project Details&lt;/li&gt;&lt;/ul&gt;" style="rounded=1;whiteSpace=wrap;html=1;strokeColor=#000000;fillColor=#ffffff;align=center;" vertex="1" parent="Gur1bK2M0lumTdirb7bI-82">
          <mxGeometry width="580" height="80" as="geometry" />
        </mxCell>
        <mxCell id="Gur1bK2M0lumTdirb7bI-84" value="PUT" style="rounded=1;whiteSpace=wrap;html=1;strokeColor=#d79b00;fillColor=#ffe6cc;" vertex="1" parent="Gur1bK2M0lumTdirb7bI-82">
          <mxGeometry width="70" height="80" as="geometry" />
        </mxCell>
        <mxCell id="Gur1bK2M0lumTdirb7bI-85" value="" style="group" vertex="1" connectable="0" parent="Gur1bK2M0lumTdirb7bI-1">
          <mxGeometry x="150" y="2730" width="580" height="80" as="geometry" />
        </mxCell>
        <mxCell id="Gur1bK2M0lumTdirb7bI-86" value="Delete Project (and WorkItems -&amp;gt; Return Result&lt;br&gt;&lt;ul&gt;&lt;li&gt;project id&lt;/li&gt;&lt;li&gt;Admin Auth Key&lt;/li&gt;&lt;/ul&gt;" style="rounded=1;whiteSpace=wrap;html=1;strokeColor=#000000;fillColor=#ffffff;align=center;" vertex="1" parent="Gur1bK2M0lumTdirb7bI-85">
          <mxGeometry width="580" height="80" as="geometry" />
        </mxCell>
        <mxCell id="Gur1bK2M0lumTdirb7bI-87" value="DELETE" style="rounded=1;whiteSpace=wrap;html=1;strokeColor=#b85450;fillColor=#f8cecc;" vertex="1" parent="Gur1bK2M0lumTdirb7bI-85">
          <mxGeometry width="70" height="80" as="geometry" />
        </mxCell>
        <mxCell id="Gur1bK2M0lumTdirb7bI-88" value="Project Crud" style="text;html=1;strokeColor=none;fillColor=none;align=center;verticalAlign=middle;whiteSpace=wrap;rounded=0;" vertex="1" parent="Gur1bK2M0lumTdirb7bI-1">
          <mxGeometry x="140" y="2280" width="120" height="30" as="geometry" />
        </mxCell>
        <mxCell id="Gur1bK2M0lumTdirb7bI-92" value="" style="group" vertex="1" connectable="0" parent="Gur1bK2M0lumTdirb7bI-1">
          <mxGeometry x="150" y="1540" width="580" height="80" as="geometry" />
        </mxCell>
        <mxCell id="Gur1bK2M0lumTdirb7bI-93" value="Create New Workitem -&amp;gt; Return id&lt;br&gt;&lt;ul&gt;&lt;li&gt;Project Auth Key&lt;/li&gt;&lt;li&gt;workitem details&lt;/li&gt;&lt;/ul&gt;" style="rounded=1;whiteSpace=wrap;html=1;strokeColor=#000000;fillColor=#ffffff;align=center;" vertex="1" parent="Gur1bK2M0lumTdirb7bI-92">
          <mxGeometry width="580" height="80" as="geometry" />
        </mxCell>
        <mxCell id="Gur1bK2M0lumTdirb7bI-94" value="POST" style="rounded=1;whiteSpace=wrap;html=1;strokeColor=#6c8ebf;fillColor=#dae8fc;" vertex="1" parent="Gur1bK2M0lumTdirb7bI-92">
          <mxGeometry width="70" height="80" as="geometry" />
        </mxCell>
        <mxCell id="Gur1bK2M0lumTdirb7bI-95" value="" style="group" vertex="1" connectable="0" parent="Gur1bK2M0lumTdirb7bI-1">
          <mxGeometry x="150" y="1970" width="580" height="80" as="geometry" />
        </mxCell>
        <mxCell id="Gur1bK2M0lumTdirb7bI-96" value="Modify Project Name -&amp;gt; Result&lt;br&gt;&lt;ul&gt;&lt;li&gt;id&lt;/li&gt;&lt;li&gt;New Name&lt;/li&gt;&lt;/ul&gt;" style="rounded=1;whiteSpace=wrap;html=1;strokeColor=#000000;fillColor=#ffffff;align=center;" vertex="1" parent="Gur1bK2M0lumTdirb7bI-95">
          <mxGeometry width="580" height="80" as="geometry" />
        </mxCell>
        <mxCell id="Gur1bK2M0lumTdirb7bI-97" value="PATCH" style="rounded=1;whiteSpace=wrap;html=1;strokeColor=#9673a6;fillColor=#e1d5e7;" vertex="1" parent="Gur1bK2M0lumTdirb7bI-95">
          <mxGeometry width="70" height="80" as="geometry" />
        </mxCell>
        <mxCell id="Gur1bK2M0lumTdirb7bI-98" value="" style="group" vertex="1" connectable="0" parent="Gur1bK2M0lumTdirb7bI-1">
          <mxGeometry x="150" y="1870" width="580" height="80" as="geometry" />
        </mxCell>
        <mxCell id="Gur1bK2M0lumTdirb7bI-99" value="Modify Workitem Name -&amp;gt; Return New Details&lt;br&gt;&lt;ul&gt;&lt;li&gt;Workitem id&lt;/li&gt;&lt;li&gt;Workitem Details&lt;/li&gt;&lt;li&gt;project auth key&lt;/li&gt;&lt;/ul&gt;" style="rounded=1;whiteSpace=wrap;html=1;strokeColor=#000000;fillColor=#ffffff;align=center;" vertex="1" parent="Gur1bK2M0lumTdirb7bI-98">
          <mxGeometry width="580" height="80" as="geometry" />
        </mxCell>
        <mxCell id="Gur1bK2M0lumTdirb7bI-100" value="PUT" style="rounded=1;whiteSpace=wrap;html=1;strokeColor=#d79b00;fillColor=#ffe6cc;" vertex="1" parent="Gur1bK2M0lumTdirb7bI-98">
          <mxGeometry width="70" height="80" as="geometry" />
        </mxCell>
        <mxCell id="Gur1bK2M0lumTdirb7bI-101" value="" style="group" vertex="1" connectable="0" parent="Gur1bK2M0lumTdirb7bI-1">
          <mxGeometry x="150" y="2070" width="580" height="80" as="geometry" />
        </mxCell>
        <mxCell id="Gur1bK2M0lumTdirb7bI-102" value="Delete Project (and WorkItems -&amp;gt; Return Result&lt;br&gt;&lt;ul&gt;&lt;li&gt;project id&lt;/li&gt;&lt;li&gt;Admin Auth Key&lt;/li&gt;&lt;/ul&gt;" style="rounded=1;whiteSpace=wrap;html=1;strokeColor=#000000;fillColor=#ffffff;align=center;" vertex="1" parent="Gur1bK2M0lumTdirb7bI-101">
          <mxGeometry width="580" height="80" as="geometry" />
        </mxCell>
        <mxCell id="Gur1bK2M0lumTdirb7bI-103" value="DELETE" style="rounded=1;whiteSpace=wrap;html=1;strokeColor=#b85450;fillColor=#f8cecc;" vertex="1" parent="Gur1bK2M0lumTdirb7bI-101">
          <mxGeometry width="70" height="80" as="geometry" />
        </mxCell>
        <mxCell id="Gur1bK2M0lumTdirb7bI-104" value="" style="group" vertex="1" connectable="0" parent="Gur1bK2M0lumTdirb7bI-1">
          <mxGeometry x="150" y="1300" width="580" height="80" as="geometry" />
        </mxCell>
        <mxCell id="Gur1bK2M0lumTdirb7bI-105" value="Create New Workitem -&amp;gt; Return auth key&lt;br&gt;&lt;ul&gt;&lt;li&gt;Admin Auth Key&lt;/li&gt;&lt;li&gt;Project Details&lt;/li&gt;&lt;/ul&gt;" style="rounded=1;whiteSpace=wrap;html=1;strokeColor=#000000;fillColor=#ffffff;align=center;" vertex="1" parent="Gur1bK2M0lumTdirb7bI-104">
          <mxGeometry width="580" height="80" as="geometry" />
        </mxCell>
        <mxCell id="Gur1bK2M0lumTdirb7bI-106" value="POST" style="rounded=1;whiteSpace=wrap;html=1;strokeColor=#6c8ebf;fillColor=#dae8fc;" vertex="1" parent="Gur1bK2M0lumTdirb7bI-104">
          <mxGeometry width="70" height="80" as="geometry" />
        </mxCell>
        <mxCell id="Gur1bK2M0lumTdirb7bI-107" value="On-Prem Converters" style="text;html=1;strokeColor=none;fillColor=none;align=center;verticalAlign=middle;whiteSpace=wrap;rounded=0;" vertex="1" parent="Gur1bK2M0lumTdirb7bI-1">
          <mxGeometry x="160" y="1260" width="120" height="30" as="geometry" />
        </mxCell>
        <mxCell id="Gur1bK2M0lumTdirb7bI-108" value="OnPrem (bool)" style="shape=partialRectangle;connectable=0;fillColor=none;top=0;left=0;bottom=0;right=0;align=left;spacingLeft=6;overflow=hidden;" vertex="1" parent="Gur1bK2M0lumTdirb7bI-1">
          <mxGeometry x="430" y="430" width="150" height="30" as="geometry" />
        </mxCell>
      </root>
    </mxGraphModel>
  </diagram>
</mxfile>
